<svg width="40" height="38" viewBox="0 0 40 38" fill="none" xmlns="http://www.w3.org/2000/svg">
    <path d="M29.5244 17.2139H31.2195C33.0177 17.2139 34.7423 17.9282 36.0139 19.1998C37.2854 20.4713 37.9997 22.1959 37.9997 23.9941C37.9997 25.7924 37.2854 27.517 36.0139 28.7885C34.7423 30.0601 33.0177 30.7744 31.2195 30.7744H29.5244" stroke="black" stroke-width="3.5" stroke-linecap="round" stroke-linejoin="round"/>
    <path d="M2 13.8237H29.1211V29.0793C29.1211 30.8776 28.4067 32.6022 27.1352 33.8737C25.8636 35.1453 24.139 35.8596 22.3408 35.8596H8.78027C6.98203 35.8596 5.25744 35.1453 3.98589 33.8737C2.71435 32.6022 2 30.8776 2 29.0793V13.8237Z" stroke="black" stroke-width="3.5" stroke-linecap="round" stroke-linejoin="round"/>
    <path d="M8.78027 1.95825V7.04345" stroke="black" stroke-width="3.5" stroke-linecap="round" stroke-linejoin="round"/>
    <path d="M15.5615 1.95825V7.04345" stroke="black" stroke-width="3.5" stroke-linecap="round" stroke-linejoin="round"/>
    <path d="M22.3398 1.95825V7.04345" stroke="black" stroke-width="3.5" stroke-linecap="round" stroke-linejoin="round"/>
</svg>
