<svg width="138" height="111" viewBox="0 0 138 111" fill="none" xmlns="http://www.w3.org/2000/svg">
    <path d="M137 0.717682H1V110.459H137V0.717682Z" stroke="black" stroke-width="0.89" stroke-miterlimit="10"/>
    <path d="M1 30.1805H137" stroke="black" stroke-width="0.89" stroke-miterlimit="10"/>
    <path d="M17.5059 20.6906C19.3407 20.6906 20.8281 19.2002 20.8281 17.3616C20.8281 15.523 19.3407 14.0325 17.5059 14.0325C15.671 14.0325 14.1836 15.523 14.1836 17.3616C14.1836 19.2002 15.671 20.6906 17.5059 20.6906Z" fill="black"/>
    <path d="M34.3984 20.6906C36.2333 20.6906 37.7207 19.2002 37.7207 17.3616C37.7207 15.523 36.2333 14.0325 34.3984 14.0325C32.5636 14.0325 31.0762 15.523 31.0762 17.3616C31.0762 19.2002 32.5636 20.6906 34.3984 20.6906Z" fill="black"/>
    <path d="M51.3291 20.6906C53.1639 20.6906 54.6514 19.2002 54.6514 17.3616C54.6514 15.523 53.1639 14.0325 51.3291 14.0325C49.4943 14.0325 48.0068 15.523 48.0068 17.3616C48.0068 19.2002 49.4943 20.6906 51.3291 20.6906Z" fill="black"/>
</svg>
