<svg width="93" height="47" viewBox="0 0 93 47" fill="none" xmlns="http://www.w3.org/2000/svg">
    <path d="M68.35 0H56.69V8.28H68.35V0Z" fill="#EDEDED"/>
    <path d="M68.35 38.1899H56.69V46.4699H68.35V38.1899Z" fill="#EDEDED"/>
    <path d="M80.65 9.16992H68.99V17.4499H80.65V9.16992Z" fill="#EDEDED"/>
    <path d="M80.65 29.03H68.99V37.31H80.65V29.03Z" fill="#EDEDED"/>
    <path d="M92.94 19.1001H81.28V27.3801H92.94V19.1001Z" fill="#EDEDED"/>
    <path d="M11.66 0H0V8.28H11.66V0Z" fill="#EDEDED"/>
    <path d="M11.66 38.1899H0V46.4699H11.66V38.1899Z" fill="#EDEDED"/>
    <path d="M23.95 9.16992H12.29V17.4499H23.95V9.16992Z" fill="#EDEDED"/>
    <path d="M23.95 29.03H12.29V37.31H23.95V29.03Z" fill="#EDEDED"/>
    <path d="M36.25 19.1001H24.59V27.3801H36.25V19.1001Z" fill="#EDEDED"/>
</svg>
