<svg width="140" height="140" viewBox="0 0 140 140" fill="none" xmlns="http://www.w3.org/2000/svg">
    <path d="M76.9588 15.116C75.7673 14.9627 74.7214 14.5654 73.8212 13.9241C72.9337 13.2729 72.2738 12.451 71.8415 11.4584C71.4205 10.4673 71.2844 9.39286 71.4333 8.23506C71.5821 7.07726 71.9912 6.0729 72.6606 5.22198C73.3299 4.37106 74.1755 3.74849 75.1975 3.35428C76.2321 2.95027 77.3452 2.82487 78.5367 2.97808C79.5034 3.10239 80.3642 3.38447 81.1189 3.82432C81.8736 4.26417 82.4852 4.83986 82.9536 5.55141L81.366 6.70133C80.6302 5.66973 79.6385 5.07371 78.3907 4.91327C77.5814 4.8092 76.8332 4.89582 76.1463 5.17314C75.4607 5.43921 74.8976 5.86386 74.457 6.44709C74.0163 7.03032 73.7447 7.72099 73.6421 8.51908C73.5395 9.31718 73.6275 10.0541 73.9063 10.7298C74.185 11.4056 74.6217 11.9645 75.2161 12.4066C75.812 12.8374 76.5147 13.1049 77.324 13.209C78.5717 13.3694 79.6827 13.0381 80.657 12.2149L81.8999 13.7459C81.2667 14.3158 80.5238 14.7174 79.6711 14.9505C78.8296 15.1851 77.9255 15.2403 76.9588 15.116Z" fill="#808080"/>
    <path d="M91.9361 13.6305L89.8949 12.7833L87.9725 17.4152L85.9627 16.5811L90.5244 5.59011L92.5342 6.42424L90.6248 11.0247L92.7288 11.898L97.7941 8.60731L99.9609 9.5066L93.9992 13.2719L95.5406 20.5562L93.2325 19.5983L91.9361 13.6305Z" fill="#808080"/>
    <path d="M107.113 25.2167L102.422 21.5571L99.8031 23.0072L98.0069 21.6061L109.548 15.5167L111.264 16.8551L108.181 29.5421L106.358 28.1201L107.113 25.2167ZM107.603 23.3999L109.034 17.918L104.078 20.65L107.603 23.3999Z" fill="#808080"/>
    <path d="M125.973 32.618L116.448 39.751L115.134 37.9956L118.726 35.3054C117.718 34.6587 116.912 33.9316 116.307 33.1243C115.397 31.9087 114.984 30.7524 115.068 29.6554C115.169 28.5606 115.768 27.6023 116.866 26.7803L119.9 24.5079L121.215 26.2633L118.371 28.393C117.699 28.8957 117.333 29.4746 117.271 30.1296C117.21 30.7846 117.451 31.475 117.994 32.2007C118.612 33.0262 119.364 33.6807 120.25 34.1642L124.659 30.8626L125.973 32.618Z" fill="#808080"/>
    <path d="M124.668 50.5552L122.499 45.0148L119.506 44.9268L118.676 42.8056L131.709 43.4528L132.503 45.479L123.381 54.8203L122.538 52.6675L124.668 50.5552ZM126.016 49.2422L130.042 45.2559L124.386 45.0791L126.016 49.2422Z" fill="#808080"/>
    <path d="M135.159 66.0536L134.707 62.1356L124.743 63.2856L124.491 61.107L134.455 59.9571L134.005 56.056L135.863 55.8416L137.016 65.8392L135.159 66.0536Z" fill="#808080"/>
    <path d="M132.404 78.2781C132.211 79.693 131.743 80.733 131.001 81.398C130.268 82.0759 129.278 82.3298 128.031 82.1597C126.729 81.9821 125.786 81.4303 125.203 80.5043C124.631 79.5799 124.448 78.3653 124.654 76.8606L125.345 71.7906L137.136 73.3989L136.842 75.5549L132.85 75.0104L132.404 78.2781ZM126.352 76.9893C126.235 77.8427 126.342 78.5265 126.672 79.0405C127.003 79.5545 127.544 79.8628 128.296 79.9654C129.722 80.16 130.557 79.3701 130.799 77.5959L131.182 74.7829L126.735 74.1763L126.352 76.9893Z" fill="#808080"/>
    <path d="M124.343 109.191L114.285 102.832L115.447 100.993L123.926 106.352L127.223 101.136L118.745 95.7766L119.908 93.9373L129.966 100.296L124.343 109.191Z" fill="#808080"/>
    <path d="M115.217 119.207C114.451 119.898 113.672 120.371 112.881 120.627C112.081 120.891 111.317 120.924 110.589 120.725C109.861 120.527 109.204 120.104 108.62 119.456C108.043 118.817 107.69 118.12 107.56 117.367C107.438 116.623 107.549 115.866 107.894 115.098C108.23 114.336 108.781 113.611 109.547 112.92L111.542 111.121L109.242 108.571L110.884 107.091L118.853 115.928L115.217 119.207ZM110.875 114.24C110.16 114.886 109.754 115.527 109.657 116.164C109.56 116.8 109.765 117.401 110.274 117.965C110.782 118.529 111.358 118.795 112.002 118.764C112.645 118.733 113.325 118.395 114.04 117.75L115.959 116.02L112.794 112.51L110.875 114.24Z" fill="#808080"/>
    <path d="M92.7053 122.166L91.8537 120.52L99.7804 116.419L105.249 126.988L97.5338 130.98L96.6822 129.334L102.435 126.358L101.013 123.61L95.9096 126.25L95.0737 124.635L100.177 121.994L98.6692 119.08L92.7053 122.166Z" fill="#808080"/>
    <path d="M82.815 129.767C82.0682 129.709 81.4436 129.477 80.9412 129.071C80.4304 128.678 80.0976 128.15 79.9427 127.488C79.7801 126.793 79.8644 126.133 80.1956 125.509C80.5294 124.895 81.0447 124.362 81.7417 123.908C82.4276 123.456 83.2175 123.126 84.1114 122.917C84.8839 122.736 85.6864 122.659 86.519 122.686C87.3431 122.726 88.1365 122.884 88.8993 123.159L88.5718 124.894C87.9841 124.671 87.3594 124.538 86.6975 124.495C86.0382 124.463 85.4051 124.518 84.7981 124.66C83.9263 124.863 83.2435 125.203 82.7496 125.68C82.2447 126.159 82.062 126.696 82.2013 127.292C82.32 127.8 82.62 128.137 83.1013 128.304C83.5826 128.47 84.1929 128.467 84.9323 128.294L87.6305 127.663L88.0254 129.352L85.4927 129.944C84.8526 130.094 84.3815 130.344 84.0792 130.694C83.777 131.044 83.6787 131.445 83.7845 131.897C83.911 132.438 84.2574 132.799 84.8236 132.981C85.3789 133.166 86.0372 133.169 86.7987 132.991C87.3174 132.87 87.8345 132.667 88.3502 132.384C88.8684 132.111 89.3368 131.775 89.7552 131.374L90.8404 132.954C90.3193 133.413 89.7457 133.797 89.1197 134.107C88.4853 134.43 87.837 134.668 87.1748 134.823C86.314 135.025 85.494 135.077 84.7148 134.98C83.9245 134.885 83.2561 134.64 82.7096 134.244C82.1656 133.859 81.8163 133.335 81.6614 132.673C81.5272 132.099 81.5643 131.561 81.7727 131.058C81.981 130.556 82.3285 130.125 82.815 129.767Z" fill="#808080"/>
    <path d="M64.7434 126.658L64.7877 124.806L73.7101 125.019L73.4259 136.915L64.7414 136.708L64.7856 134.855L71.2608 135.01L71.3347 131.917L65.5903 131.78L65.6338 129.961L71.3781 130.099L71.4565 126.818L64.7434 126.658Z" fill="#808080"/>
    <path d="M46.49 132.755L49.9143 121.359L52.0308 121.995L50.5633 126.879L56.457 128.65L57.9245 123.765L60.041 124.401L56.6168 135.798L54.5002 135.162L55.914 130.457L50.0203 128.686L48.6065 133.391L46.49 132.755Z" fill="#808080"/>
    <path d="M32.2278 123.106L35.5769 125.189L40.8739 116.671L42.7361 117.83L37.4392 126.347L40.7739 128.421L39.7863 130.009L31.2402 124.694L32.2278 123.106Z" fill="#808080"/>
    <path d="M26.7214 108.411L30.8328 112.712L33.6341 111.657L35.2082 113.303L22.9059 117.655L21.4023 116.082L26.2923 103.976L27.8898 105.648L26.7214 108.411ZM25.9731 110.137L23.7634 115.354L29.0625 113.369L25.9731 110.137Z" fill="#808080"/>
    <path d="M16.6417 91.0375L20.6201 88.9603L21.5643 90.7686L19.2435 91.9803L23.9173 100.932L13.3686 106.439L12.3615 104.511L21.2525 99.8683L18.475 94.5487L9.58397 99.191L8.56897 97.247L17.46 92.6047L16.6417 91.0375Z" fill="#808080"/>
    <path d="M5.16548 88.5382L4.75934 86.4005L13.0599 84.8235L3.56631 80.1208L3.18238 78.0999L14.8733 75.8788L15.2794 78.0166L6.99558 79.5904L16.4724 84.2963L16.8564 86.3171L5.16548 88.5382Z" fill="#808080"/>
    <path d="M3.51976 58.4896C3.67309 57.3323 4.07481 56.3281 4.72492 55.4767C5.36529 54.6127 6.1811 53.9777 7.17235 53.5717C8.16359 53.1657 9.23782 53.0394 10.395 53.1927C11.5523 53.346 12.5565 53.7477 13.4079 54.3979C14.2592 55.048 14.8871 55.8743 15.2916 56.8768C15.6863 57.8665 15.807 58.94 15.6537 60.0972C15.5138 61.1533 15.1667 62.0905 14.6124 62.9088C14.0596 63.7159 13.3528 64.3482 12.4919 64.8057C11.6325 65.252 10.6939 65.4764 9.6761 65.4787L9.43049 67.3325L14.4357 67.9957L14.1499 70.1528L2.35303 68.5898L2.63884 66.4327L7.47557 67.0735L7.72565 65.186C6.76904 64.8992 5.95082 64.4307 5.27101 63.7804C4.58144 63.1174 4.08538 62.3315 3.78281 61.4225C3.4705 60.5008 3.38281 59.5232 3.51976 58.4896ZM13.7325 59.8427C13.8293 59.1124 13.743 58.4264 13.4736 57.7848C13.2042 57.1432 12.7772 56.6122 12.1927 56.1918C11.6082 55.7714 10.9115 55.5076 10.1025 55.4004C9.29361 55.2932 8.55223 55.3665 7.8784 55.6202C7.20458 55.8739 6.65407 56.2754 6.22689 56.8247C5.7997 57.374 5.53773 58.0138 5.44097 58.7441C5.34422 59.4744 5.43054 60.1603 5.69993 60.8019C5.97081 61.4323 6.39777 61.9633 6.98079 62.395C7.5653 62.8154 8.26202 63.0792 9.07095 63.1864C9.87988 63.2935 10.6213 63.2203 11.2951 62.9666C11.9704 62.7017 12.5209 62.3002 12.9466 61.7621C13.3738 61.2128 13.6358 60.573 13.7325 59.8427Z" fill="#808080"/>
    <path d="M13.6835 33.0461C14.2568 32.1888 14.8958 31.539 15.6005 31.0968C16.3115 30.6451 17.0442 30.4261 17.7986 30.4397C18.5529 30.4534 19.2928 30.7027 20.0183 31.1878C20.7343 31.6665 21.2474 32.2551 21.5576 32.9533C21.8584 33.6452 21.9359 34.406 21.7902 35.2357C21.6508 36.0559 21.2944 36.8946 20.7211 37.752L19.2281 39.9848L22.0828 41.8936L20.8543 43.7307L10.9621 37.1161L13.6835 33.0461ZM19.11 36.7973C19.6454 35.9965 19.8822 35.2754 19.8202 34.6341C19.7582 33.9928 19.4116 33.4611 18.7804 33.039C18.1492 32.617 17.5254 32.4998 16.909 32.6875C16.2927 32.8753 15.7168 33.3696 15.1813 34.1704L13.745 36.3184L17.6736 38.9453L19.11 36.7973Z" fill="#333333"/>
    <path d="M21.3868 22.9032L25.3374 19.5189C26.3014 18.6931 27.32 18.1488 28.3932 17.886C29.4591 17.6147 30.4935 17.6463 31.4965 17.981C32.4921 18.307 33.3733 18.9176 34.1402 19.8127C34.907 20.7079 35.3787 21.6767 35.5555 22.7191C35.7248 23.753 35.5973 24.78 35.1729 25.8002C34.7411 26.8118 34.0432 27.7304 33.0793 28.5562L29.1286 31.9405L21.3868 22.9032ZM31.7852 27.2024C32.448 26.6347 32.922 26.0122 33.2074 25.335C33.494 24.6417 33.5717 23.9485 33.4403 23.2551C33.3102 22.5458 32.9797 21.8813 32.4489 21.2616C31.918 20.6419 31.3158 20.2176 30.6422 19.9887C29.9699 19.7439 29.2729 19.7142 28.5512 19.8996C27.8308 20.0691 27.1393 20.4377 26.4765 21.0054L24.2817 22.8856L29.5904 29.0826L31.7852 27.2024Z" fill="#333333"/>
    <path d="M39.2398 12.0291L40.8077 15.293L45.9871 12.805L46.7968 14.4906L41.6174 16.9786L43.5902 21.0854L41.5982 22.0423L36.4453 11.3158L44.2757 7.55423L45.0781 9.22451L39.2398 12.0291Z" fill="#333333"/>
</svg>
