<svg width="108" height="108" viewBox="0 0 108 108" fill="none" xmlns="http://www.w3.org/2000/svg">
    <path d="M54.0001 107C83.2712 107 107 83.2711 107 54C107 24.7289 83.2712 1 54.0001 1C24.729 1 1 24.7289 1 54C1 83.2711 24.729 107 54.0001 107Z" stroke="black" stroke-miterlimit="10"/>
    <path d="M26.3657 52.8645C26.3657 40.3816 26.3657 34.1201 30.2535 30.2323C34.1412 26.3445 40.4038 26.3433 52.9078 26.3433H55.0093C67.6183 26.3433 73.7547 26.3445 77.6425 30.2323C81.5303 34.1201 81.5303 40.3816 81.5303 52.8645V55.0933C81.5303 67.5972 81.5303 73.8377 77.6425 77.7255C73.7547 81.6133 67.5132 81.6145 55.0093 81.6145H52.9078C40.2987 81.6145 34.1412 81.6133 30.2535 77.7255C26.3657 73.8377 26.3657 67.5972 26.3657 55.0933V52.8645Z" fill="black"/>
    <path fill-rule="evenodd" clip-rule="evenodd" d="M53.4746 36.1367C53.4746 43.3659 52.886 47.4427 50.175 50.1536C47.4641 52.8645 43.4084 53.3485 36.1792 53.4536V54.5249C43.4084 54.5249 47.4641 55.0935 50.175 57.8044C52.886 60.5153 53.3695 64.5921 53.4746 71.8213H54.5463C54.5463 64.5921 55.1136 60.5364 57.8246 57.8044C60.5355 55.0724 64.6125 54.609 71.8417 54.5249V53.4536C64.6125 53.4536 60.5355 52.8645 57.8246 50.1536C55.1136 47.4427 54.6304 43.3659 54.5463 36.1367H53.4746Z" fill="#FFC200"/>
</svg>
