<svg width="53" height="52" viewBox="0 0 53 52" fill="none" xmlns="http://www.w3.org/2000/svg">
    <path d="M26.3401 50.94C40.2688 50.94 51.5601 39.6486 51.5601 25.72C51.5601 11.7914 40.2688 0.5 26.3401 0.5C12.4115 0.5 1.12012 11.7914 1.12012 25.72C1.12012 39.6486 12.4115 50.94 26.3401 50.94Z" stroke="black" stroke-miterlimit="10"/>
    <path d="M13.1899 25.1797C13.1899 19.2397 13.1899 16.2602 15.0399 14.4102C16.8899 12.5602 19.8699 12.5596 25.8199 12.5596H26.8199C32.8199 12.5596 35.74 12.5602 37.59 14.4102C39.44 16.2602 39.4399 19.2397 39.4399 25.1797V26.2402C39.4399 32.1902 39.44 35.1598 37.59 37.0098C35.74 38.8598 32.7699 38.8604 26.8199 38.8604H25.8199C19.8199 38.8604 16.8899 38.8598 15.0399 37.0098C13.1899 35.1598 13.1899 32.1902 13.1899 26.2402V25.1797Z" fill="black"/>
    <path fill-rule="evenodd" clip-rule="evenodd" d="M26.0903 17.2197C26.0903 20.6597 25.8103 22.5996 24.5203 23.8896C23.2303 25.1796 21.3004 25.41 17.8604 25.46V25.9697C21.3004 25.9697 23.2303 26.2403 24.5203 27.5303C25.8103 28.8203 26.0403 30.7602 26.0903 34.2002H26.6003C26.6003 30.7602 26.8703 28.8303 28.1603 27.5303C29.4503 26.2303 31.3903 26.0097 34.8303 25.9697V25.46C31.3903 25.46 29.4503 25.1796 28.1603 23.8896C26.8703 22.5996 26.6403 20.6597 26.6003 17.2197H26.0903Z" fill="white"/>
</svg>
