<svg width="84" height="38" viewBox="0 0 84 38" fill="none" xmlns="http://www.w3.org/2000/svg">
    <circle cx="70.8477" cy="8.35039" r="7.35039" stroke="black" stroke-width="0.75"/>
    <path d="M57.9841 28.1045C57.9841 21.2541 63.5375 15.7007 70.3879 15.7007V15.7007C77.2383 15.7007 82.7917 21.2541 82.7917 28.1045V36.8331H57.9841V28.1045Z" stroke="black" stroke-width="0.75"/>
    <circle cx="42.3653" cy="8.35057" r="7.35039" stroke="black" stroke-width="0.75"/>
    <path d="M29.5017 28.1047C29.5017 21.2543 35.0551 15.7009 41.9055 15.7009V15.7009C48.7559 15.7009 54.3093 21.2543 54.3093 28.1047V36.8333H29.5017V28.1047Z" stroke="black" stroke-width="0.75"/>
    <circle cx="13.8819" cy="8.35045" r="7.35039" stroke="black" stroke-width="0.75"/>
    <path d="M1.0188 28.1045C1.0188 21.2541 6.57216 15.7007 13.4226 15.7007V15.7007C20.273 15.7007 25.8264 21.2541 25.8264 28.1045V36.8331H1.0188V28.1045Z" stroke="black" stroke-width="0.75"/>
</svg>
