<svg width="52" height="52" viewBox="0 0 52 52" fill="none" xmlns="http://www.w3.org/2000/svg">
    <path d="M26.1101 50.94C40.0387 50.94 51.3301 39.6486 51.3301 25.72C51.3301 11.7914 40.0387 0.5 26.1101 0.5C12.1815 0.5 0.890137 11.7914 0.890137 25.72C0.890137 39.6486 12.1815 50.94 26.1101 50.94Z" stroke="black" stroke-miterlimit="10"/>
    <path fill-rule="evenodd" clip-rule="evenodd" d="M26.11 10.54C23.1057 10.54 20.1689 11.4305 17.6709 13.0996C15.1729 14.7687 13.2259 17.1414 12.0762 19.917C10.9265 22.6926 10.6257 25.7468 11.2118 28.6934C11.7979 31.6399 13.2447 34.3463 15.369 36.4707C17.4934 38.5951 20.1999 40.0418 23.1465 40.6279C26.0931 41.214 29.1474 40.9134 31.923 39.7637C34.6986 38.614 37.0709 36.6669 38.74 34.1689C40.4091 31.671 41.2999 28.7348 41.2999 25.7305C41.2999 21.7018 39.6996 17.8379 36.851 14.9893C34.0023 12.1406 30.1386 10.54 26.11 10.54ZM25.5199 32.2598H23.08V27.2598C23.1117 26.6297 23.0647 25.9983 22.94 25.3799C22.8579 25.1177 22.6839 24.8941 22.45 24.75C22.1881 24.5818 21.8809 24.4978 21.57 24.5098C21.1853 24.5029 20.8069 24.6068 20.48 24.8096C20.1515 25.0261 19.905 25.3467 19.7799 25.7197C19.6075 26.3034 19.5332 26.9125 19.5599 27.5205V32.2305H17.12V18.8496H19.58V24.0098C20.0759 23.3642 20.7755 22.9059 21.5652 22.708C22.3549 22.5101 23.1882 22.5845 23.9299 22.9199C24.3273 23.1043 24.6713 23.3867 24.9299 23.7402C25.157 24.0727 25.3166 24.446 25.3999 24.8398C25.4958 25.4583 25.536 26.0843 25.5199 26.71V32.2598ZM35.1499 32.2598H32.71V27.2598C32.7417 26.6297 32.6947 25.9983 32.57 25.3799C32.4805 25.1216 32.3083 24.9003 32.08 24.75C31.8145 24.5816 31.5041 24.4977 31.19 24.5098C30.8087 24.5048 30.434 24.6087 30.11 24.8096C29.7815 25.0261 29.535 25.3467 29.4099 25.7197C29.2375 26.3034 29.1632 26.9125 29.19 27.5205V32.2305H26.75V18.8496H29.19V24.0098C29.6842 23.365 30.3821 22.9069 31.1701 22.709C31.958 22.5111 32.7896 22.5853 33.5299 22.9199C33.9272 23.1043 34.2713 23.3867 34.5299 23.7402C34.7611 24.0704 34.9212 24.4446 35 24.8398C35.1055 25.4573 35.1491 26.0839 35.13 26.71L35.1499 32.2598Z" fill="#130E09"/>
</svg>
