<svg width="105" height="105" viewBox="0 0 105 105" fill="none" xmlns="http://www.w3.org/2000/svg">
    <path d="M52.0759 104C80.5463 104 103.626 80.9204 103.626 52.45C103.626 23.9797 80.5463 0.899902 52.0759 0.899902C23.6056 0.899902 0.525879 23.9797 0.525879 52.45C0.525879 80.9204 23.6056 104 52.0759 104Z" stroke="black" stroke-miterlimit="10"/>
    <path fill-rule="evenodd" clip-rule="evenodd" d="M52.0771 21.4219C45.9363 21.4219 39.9334 23.242 34.8275 26.6537C29.7215 30.0653 25.7417 34.9151 23.3917 40.5885C21.0417 46.2619 20.4269 52.5047 21.6249 58.5276C22.823 64.5504 25.7801 70.0824 30.1224 74.4246C34.4646 78.7668 39.9968 81.724 46.0197 82.9221C52.0425 84.1201 58.2856 83.5055 63.959 81.1555C69.6324 78.8055 74.4814 74.8257 77.8931 69.7198C81.3047 64.6139 83.1256 58.6122 83.1256 52.4714C83.1256 44.2368 79.8546 36.3389 74.0318 30.5162C68.2091 24.6934 60.3117 21.4219 52.0771 21.4219ZM50.871 65.8174H45.8837V55.5973C45.9486 54.3095 45.8524 53.0188 45.5975 51.7548C45.4297 51.2189 45.074 50.7618 44.5959 50.4673C44.0607 50.1235 43.4328 49.9518 42.7972 49.9762C42.011 49.9621 41.2375 50.1746 40.5693 50.5891C39.8978 51.0317 39.3939 51.6869 39.1383 52.4494C38.7859 53.6425 38.634 54.8874 38.6887 56.1303V65.7575H33.7014V38.4068H38.7296V48.9542C39.7434 47.6347 41.1734 46.6979 42.7875 46.2934C44.4015 45.889 46.1049 46.041 47.621 46.7266C48.4331 47.1034 49.1364 47.6808 49.6651 48.4033C50.1291 49.0828 50.4555 49.8459 50.6257 50.6509C50.8217 51.9151 50.9038 53.1946 50.871 54.4735V65.8174ZM70.5549 65.8174H65.5676V55.5973C65.6325 54.3095 65.5363 53.0188 65.2814 51.7548C65.0986 51.2269 64.7465 50.7744 64.2798 50.4673C63.7372 50.1231 63.1027 49.9515 62.4606 49.9762C61.6814 49.9661 60.9155 50.1784 60.2532 50.5891C59.5817 51.0317 59.0778 51.6869 58.8222 52.4494C58.4698 53.6425 58.3179 54.8874 58.3726 56.1303V65.7575H53.3853V38.4068H58.3726V48.9542C59.3829 47.6364 60.8094 46.6999 62.42 46.2954C64.0305 45.8909 65.7304 46.0425 67.2436 46.7266C68.0557 47.1034 68.7589 47.6808 69.2876 48.4033C69.7601 49.0782 70.0874 49.843 70.2485 50.6509C70.4642 51.913 70.5532 53.1937 70.5142 54.4735L70.5549 65.8174Z" fill="#130E09"/>
</svg>
