<svg width="41" height="27" viewBox="0 0 41 27" fill="none" xmlns="http://www.w3.org/2000/svg">
    <path d="M18.7523 23.1158C20.5768 24.7068 22.8207 25.7391 25.216 26.0892C27.6112 26.4393 30.0566 26.0926 32.2601 25.0903C34.4636 24.0881 36.3321 22.4727 37.6424 20.4371C38.9527 18.4016 39.6495 16.0318 39.6495 13.611C39.6495 11.1901 38.9527 8.82023 37.6424 6.78466C36.3321 4.74909 34.4636 3.13382 32.2601 2.13157C30.0566 1.12932 27.6112 0.782454 25.216 1.13258C22.8207 1.4827 20.5768 2.51497 18.7523 4.10601" stroke="black" stroke-width="0.89" stroke-miterlimit="10"/>
    <path d="M11.0742 1.19202L23.4872 13.6059L11.0742 26.0198" stroke="black" stroke-width="0.89" stroke-miterlimit="10"/>
    <path d="M0 13.6058H23.4872" stroke="black" stroke-width="0.89" stroke-miterlimit="10"/>
</svg>
