<svg width="36" height="31" viewBox="0 0 36 31" fill="none" xmlns="http://www.w3.org/2000/svg">
    <path d="M25.8702 0.856445H9.1965L0.854736 15.3279L9.1965 29.7994H25.8702L34.212 15.3279L25.8702 0.856445Z" stroke="black" stroke-width="0.83" stroke-miterlimit="10"/>
    <path d="M25.7032 1.71301C26.1753 1.71301 26.558 1.32954 26.558 0.856506C26.558 0.383471 26.1753 0 25.7032 0C25.2311 0 24.8484 0.383471 24.8484 0.856506C24.8484 1.32954 25.2311 1.71301 25.7032 1.71301Z" fill="black"/>
    <path d="M34.212 16.1844C34.6841 16.1844 35.0668 15.801 35.0668 15.3279C35.0668 14.8549 34.6841 14.4714 34.212 14.4714C33.7399 14.4714 33.3572 14.8549 33.3572 15.3279C33.3572 15.801 33.7399 16.1844 34.212 16.1844Z" fill="black"/>
    <path d="M0.854828 16.1844C1.32694 16.1844 1.70966 15.801 1.70966 15.3279C1.70966 14.8549 1.32694 14.4714 0.854828 14.4714C0.382719 14.4714 0 14.8549 0 15.3279C0 15.801 0.382719 16.1844 0.854828 16.1844Z" fill="black"/>
    <path d="M9.12772 1.71301C9.59979 1.71301 9.98248 1.32954 9.98248 0.856506C9.98248 0.383471 9.59979 0 9.12772 0C8.65564 0 8.27295 0.383471 8.27295 0.856506C8.27295 1.32954 8.65564 1.71301 9.12772 1.71301Z" fill="black"/>
    <path d="M17.5383 16.1844C18.0104 16.1844 18.3931 15.801 18.3931 15.3279C18.3931 14.8549 18.0104 14.4714 17.5383 14.4714C17.0662 14.4714 16.6835 14.8549 16.6835 15.3279C16.6835 15.801 17.0662 16.1844 17.5383 16.1844Z" fill="black"/>
    <path d="M25.9488 30.6559C26.4209 30.6559 26.8036 30.2724 26.8036 29.7994C26.8036 29.3264 26.4209 28.943 25.9488 28.943C25.4767 28.943 25.094 29.3264 25.094 29.7994C25.094 30.2724 25.4767 30.6559 25.9488 30.6559Z" fill="black"/>
    <path d="M9.0885 30.6559C9.56059 30.6559 9.9433 30.2724 9.9433 29.7994C9.9433 29.3264 9.56059 28.943 9.0885 28.943C8.61641 28.943 8.2337 29.3264 8.2337 29.7994C8.2337 30.2724 8.61641 30.6559 9.0885 30.6559Z" fill="black"/>
    <path d="M9.19653 0.856445L25.9488 29.7994" stroke="black" stroke-width="0.83" stroke-miterlimit="10"/>
    <path d="M9.08844 29.7994L17.5677 15.3279" stroke="black" stroke-width="0.83" stroke-miterlimit="10"/>
</svg>
