<svg width="52" height="52" viewBox="0 0 52 52" fill="none" xmlns="http://www.w3.org/2000/svg">
    <path d="M25.9265 51.0338C39.6374 51.0338 50.7523 39.918 50.7523 26.2059C50.7523 12.4939 39.6374 1.37805 25.9265 1.37805C12.2155 1.37805 1.10059 12.4939 1.10059 26.2059C1.10059 39.918 12.2155 51.0338 25.9265 51.0338Z" stroke="white" stroke-miterlimit="10"/>
    <path d="M32.8173 14.3925H19.0361C17.7308 14.3925 16.4789 14.911 15.5558 15.8342C14.6328 16.7573 14.1143 18.0092 14.1143 19.3147V33.097C14.1143 34.4025 14.6328 35.6545 15.5558 36.5776C16.4789 37.5007 17.7308 38.0193 19.0361 38.0193H32.8173C34.1226 38.0193 35.3745 37.5007 36.2975 36.5776C37.2206 35.6545 37.7391 34.4025 37.7391 33.097V19.3147C37.7391 18.0092 37.2206 16.7573 36.2975 15.8342C35.3745 14.911 34.1226 14.3925 32.8173 14.3925ZM21.9892 33.097H19.0361V22.2681H21.9892V33.097ZM20.4831 21.0178C20.1377 21.0217 19.7989 20.9228 19.5098 20.7338C19.2207 20.5447 18.9944 20.2739 18.8595 19.9559C18.7246 19.6379 18.6872 19.2869 18.7522 18.9476C18.8172 18.6083 18.9815 18.296 19.2244 18.0503C19.4673 17.8047 19.7777 17.6368 20.1162 17.5679C20.4548 17.4991 20.8061 17.5324 21.1256 17.6637C21.4451 17.795 21.7183 18.0183 21.9106 18.3053C22.103 18.5922 22.2057 18.9299 22.2057 19.2753C22.207 19.5029 22.1635 19.7284 22.0777 19.9391C21.9918 20.1498 21.8652 20.3416 21.7053 20.5034C21.5453 20.6652 21.355 20.7939 21.1453 20.8822C20.9356 20.9704 20.7106 21.0165 20.4831 21.0178ZM33.7721 33.097H30.819V27.5743C30.819 24.2567 26.8815 24.5126 26.8815 27.5743V33.097H23.9284V22.2681H26.8815V24.0401C28.2596 21.4903 33.7721 21.3033 33.7721 26.4815V33.097Z" fill="white"/>
</svg>
