<svg width="52" height="52" viewBox="0 0 52 52" fill="none" xmlns="http://www.w3.org/2000/svg">
    <path d="M26.26 50.94C40.1887 50.94 51.4801 39.6486 51.4801 25.72C51.4801 11.7914 40.1887 0.5 26.26 0.5C12.3314 0.5 1.04004 11.7914 1.04004 25.72C1.04004 39.6486 12.3314 50.94 26.26 50.94Z" stroke="black" stroke-miterlimit="10"/>
    <path d="M33.26 13.71H19.26C17.9339 13.71 16.662 14.2371 15.7244 15.1748C14.7867 16.1125 14.26 17.3839 14.26 18.71V32.71C14.26 34.036 14.7867 35.3074 15.7244 36.2451C16.662 37.1828 17.9339 37.71 19.26 37.71H33.26C34.5861 37.71 35.8579 37.1828 36.7955 36.2451C37.7332 35.3074 38.26 34.036 38.26 32.71V18.71C38.26 17.3839 37.7332 16.1125 36.7955 15.1748C35.8579 14.2371 34.5861 13.71 33.26 13.71ZM22.26 32.71H19.26V21.71H22.26V32.71ZM20.76 20.4404C20.4087 20.4444 20.0641 20.3429 19.7701 20.1504C19.4762 19.9579 19.2462 19.683 19.1095 19.3594C18.9728 19.0357 18.9355 18.6779 19.0023 18.333C19.0692 17.9881 19.2371 17.671 19.4849 17.4219C19.7326 17.1727 20.0489 17.0034 20.3934 16.9346C20.738 16.8658 21.0951 16.9012 21.4196 17.0361C21.744 17.171 22.0209 17.3996 22.2151 17.6924C22.4093 17.9852 22.512 18.3283 22.51 18.6797C22.5113 18.9103 22.467 19.1391 22.3796 19.3525C22.2923 19.566 22.1636 19.7603 22.001 19.9238C21.8383 20.0874 21.645 20.2171 21.432 20.3057C21.219 20.3942 20.9907 20.4404 20.76 20.4404ZM34.26 32.71H31.26V27.1104C31.26 23.7404 27.26 23.9904 27.26 27.1104V32.71H24.26V21.71H27.26V23.4805C28.65 20.8905 34.26 20.7002 34.26 25.9502V32.71Z" fill="black"/>
</svg>
