<svg width="181" height="181" viewBox="0 0 181 181" fill="none" xmlns="http://www.w3.org/2000/svg">
    <path d="M90.5001 179.798C139.874 179.798 179.899 139.773 179.899 90.399C179.899 41.0253 139.874 1 90.5001 1C41.1264 1 1.10107 41.0253 1.10107 90.399C1.10107 139.773 41.1264 179.798 90.5001 179.798Z" stroke="black" stroke-miterlimit="10"/>
    <path d="M115.312 47.8264H65.6848C60.9841 47.8264 56.4756 49.6951 53.1517 53.0189C49.8279 56.3428 47.9609 60.8496 47.9609 65.5502V115.177C47.9609 119.878 49.8279 124.384 53.1517 127.708C56.4756 131.032 60.9841 132.901 65.6848 132.901H115.312C120.012 132.901 124.52 131.032 127.844 127.708C131.168 124.384 133.035 119.878 133.035 115.177V65.5502C133.035 60.8496 131.168 56.3428 127.844 53.0189C124.52 49.6951 120.012 47.8264 115.312 47.8264ZM76.3191 115.177H65.6848V76.1845H76.3191V115.177ZM71.0019 71.6844C69.7566 71.6984 68.5349 71.3386 67.4931 70.6562C66.4512 69.9738 65.636 68.9995 65.1512 67.8523C64.6665 66.705 64.5344 65.4367 64.7713 64.214C65.0082 62.9913 65.6037 61.8674 66.4818 60.9843C67.36 60.1011 68.4812 59.5008 69.7025 59.2569C70.9238 59.013 72.1899 59.1387 73.3399 59.6169C74.4898 60.0951 75.4715 60.9052 76.1598 61.9432C76.8482 62.9811 77.2122 64.1975 77.2053 65.4429C77.2099 66.2605 77.0528 67.0713 76.7431 67.828C76.4335 68.5848 75.9774 69.2733 75.4009 69.8531C74.8244 70.4329 74.1389 70.8927 73.384 71.2066C72.629 71.5206 71.8195 71.6844 71.0019 71.6844ZM118.856 115.177H108.222V95.3277C108.222 83.3818 94.0429 84.268 94.0429 95.3277V115.177H83.4086V76.1845H94.0429V82.4606C98.9701 73.2796 118.856 72.6052 118.856 91.2152V115.177Z" fill="black"/>
</svg>
