<svg width="454" height="337" viewBox="0 0 454 337" fill="none" xmlns="http://www.w3.org/2000/svg">
    <g clip-path="url(#clip0_716_72)">
        <g clip-path="url(#clip1_716_72)">
            <mask id="path-1-outside-1_716_72" maskUnits="userSpaceOnUse" x="25.9082" y="19.9578" width="408" height="527" fill="black">
                <rect fill="white" x="25.9082" y="19.9578" width="408" height="527"/>
                <path fill-rule="evenodd" clip-rule="evenodd" d="M248.723 29.0308C250.081 29.2212 251.36 29.7784 252.421 30.6414C259.443 37.9806 261.7 53.593 261.991 69.0925C262.368 69.3795 262.743 69.6688 263.116 69.9605C276.624 80.5196 287.622 93.9077 295.328 109.171C300.338 120.024 305.089 133.005 309.537 147.417L350.977 113.431L353.362 116.43L351.883 117.63L311.482 150.746L360.397 156.685L359.945 160.525L311.707 154.64C315.581 167.884 319.21 182.174 322.562 197.015C322.532 196.376 322.462 195.742 322.352 195.11C322.352 195.11 323.621 194.631 324.375 197.24L326.942 211.608C327.261 213.448 327.238 215.321 326.893 217.216C329.702 231.023 332.273 245.102 334.583 259.085C338.372 248.106 341.271 239.023 342.221 234.436C344.52 225.35 342.862 215.001 341.288 205.175C339.224 192.291 337.305 180.305 344.636 173.243C348.973 169.233 354.731 170.842 358.596 171.922L358.707 171.954C361.929 172.844 363.292 170.779 364.88 168.374C366.446 166 368.23 163.296 372.234 162.775C376.673 162.175 381.565 163.165 386.849 169.464C387.947 170.477 389.488 169.808 391.49 168.938C394.11 167.8 397.52 166.318 401.765 167.814C407.941 170.026 408.446 175.911 408.762 179.581C408.9 181.186 409.001 182.367 409.525 182.632C410.223 182.975 411.275 183.12 412.498 183.288C415.982 183.766 420.861 184.437 422.962 190.431C426.94 201.689 417.848 212.634 409.966 222.123L409.966 222.123L409.964 222.125C407.199 225.454 404.582 228.604 402.731 231.526C387.151 254.233 373.442 357.27 373.442 357.27L346.159 350.013C347.607 367.019 348.382 381.985 348.41 393.745C347.654 424.034 335.01 452.829 313.178 473.985C291.346 495.141 262.055 506.982 231.556 506.981L188.196 510.52C177.333 521.333 163.794 529.113 148.943 533.077C108.361 543.906 87.1943 533.317 64.2462 510.52C30.0656 476.624 24.4192 429.95 60.5021 373.468C79.0452 344.546 82.3653 303.315 81.0698 262.968C79.9248 261.135 79.159 259.182 78.8005 257.113L78.1363 241.545C78.1615 241.69 78.1886 241.835 78.2177 241.979L78.1966 241.485C78.0207 238.963 79.3512 238.686 79.8021 238.663C79.7135 237.384 79.6223 236.108 79.5289 234.836L75.6599 237.825L73.5161 234.795L79.1938 230.407C78.5112 221.633 77.741 213.087 77.005 204.921L77.0049 204.92L77.0048 204.919L77.0047 204.918L77.0046 204.917L77.0046 204.917C76.8518 203.221 76.7004 201.542 76.5516 199.881L60.4417 197.24L61.0154 193.521L62.7969 193.821L76.2078 196.016C75.064 183.054 74.1358 171.277 73.9691 161.365C73.9632 153.647 74.7421 145.949 76.294 138.388C64.8199 122.37 45.4953 92.1934 49.4206 75.6655C49.9943 73.2958 52.259 71.7661 55.4596 70.8962C62.0134 69.1512 74.4386 70.9389 84.6807 72.4124C90.8127 73.2946 96.1623 74.0643 99.0005 73.8958C102.53 73.7308 107.301 72.3747 112.558 70.8804L112.558 70.8803C114.947 70.2013 117.437 69.4937 119.956 68.8564C133.627 58.507 149.428 51.2794 166.232 47.6885C182.573 44.1966 199.473 44.2273 215.791 47.7718C224.887 40.2808 236.479 31.7177 244.721 29.5616C245.981 29.024 247.366 28.8404 248.723 29.0308Z"/>
            </mask>
            <path fill-rule="evenodd" clip-rule="evenodd" d="M248.723 29.0308C250.081 29.2212 251.36 29.7784 252.421 30.6414C259.443 37.9806 261.7 53.593 261.991 69.0925C262.368 69.3795 262.743 69.6688 263.116 69.9605C276.624 80.5196 287.622 93.9077 295.328 109.171C300.338 120.024 305.089 133.005 309.537 147.417L350.977 113.431L353.362 116.43L351.883 117.63L311.482 150.746L360.397 156.685L359.945 160.525L311.707 154.64C315.581 167.884 319.21 182.174 322.562 197.015C322.532 196.376 322.462 195.742 322.352 195.11C322.352 195.11 323.621 194.631 324.375 197.24L326.942 211.608C327.261 213.448 327.238 215.321 326.893 217.216C329.702 231.023 332.273 245.102 334.583 259.085C338.372 248.106 341.271 239.023 342.221 234.436C344.52 225.35 342.862 215.001 341.288 205.175C339.224 192.291 337.305 180.305 344.636 173.243C348.973 169.233 354.731 170.842 358.596 171.922L358.707 171.954C361.929 172.844 363.292 170.779 364.88 168.374C366.446 166 368.23 163.296 372.234 162.775C376.673 162.175 381.565 163.165 386.849 169.464C387.947 170.477 389.488 169.808 391.49 168.938C394.11 167.8 397.52 166.318 401.765 167.814C407.941 170.026 408.446 175.911 408.762 179.581C408.9 181.186 409.001 182.367 409.525 182.632C410.223 182.975 411.275 183.12 412.498 183.288C415.982 183.766 420.861 184.437 422.962 190.431C426.94 201.689 417.848 212.634 409.966 222.123L409.966 222.123L409.964 222.125C407.199 225.454 404.582 228.604 402.731 231.526C387.151 254.233 373.442 357.27 373.442 357.27L346.159 350.013C347.607 367.019 348.382 381.985 348.41 393.745C347.654 424.034 335.01 452.829 313.178 473.985C291.346 495.141 262.055 506.982 231.556 506.981L188.196 510.52C177.333 521.333 163.794 529.113 148.943 533.077C108.361 543.906 87.1943 533.317 64.2462 510.52C30.0656 476.624 24.4192 429.95 60.5021 373.468C79.0452 344.546 82.3653 303.315 81.0698 262.968C79.9248 261.135 79.159 259.182 78.8005 257.113L78.1363 241.545C78.1615 241.69 78.1886 241.835 78.2177 241.979L78.1966 241.485C78.0207 238.963 79.3512 238.686 79.8021 238.663C79.7135 237.384 79.6223 236.108 79.5289 234.836L75.6599 237.825L73.5161 234.795L79.1938 230.407C78.5112 221.633 77.741 213.087 77.005 204.921L77.0049 204.92L77.0048 204.919L77.0047 204.918L77.0046 204.917L77.0046 204.917C76.8518 203.221 76.7004 201.542 76.5516 199.881L60.4417 197.24L61.0154 193.521L62.7969 193.821L76.2078 196.016C75.064 183.054 74.1358 171.277 73.9691 161.365C73.9632 153.647 74.7421 145.949 76.294 138.388C64.8199 122.37 45.4953 92.1934 49.4206 75.6655C49.9943 73.2958 52.259 71.7661 55.4596 70.8962C62.0134 69.1512 74.4386 70.9389 84.6807 72.4124C90.8127 73.2946 96.1623 74.0643 99.0005 73.8958C102.53 73.7308 107.301 72.3747 112.558 70.8804L112.558 70.8803C114.947 70.2013 117.437 69.4937 119.956 68.8564C133.627 58.507 149.428 51.2794 166.232 47.6885C182.573 44.1966 199.473 44.2273 215.791 47.7718C224.887 40.2808 236.479 31.7177 244.721 29.5616C245.981 29.024 247.366 28.8404 248.723 29.0308Z" fill="black"/>
            <path d="M252.421 30.6414L258.924 24.4195C258.665 24.1495 258.391 23.8958 258.101 23.6599L252.421 30.6414ZM261.991 69.0925L252.993 69.2614C253.045 72.0096 254.349 74.5836 256.535 76.25L261.991 69.0925ZM263.116 69.9605L257.573 77.0512L263.116 69.9605ZM295.328 109.171L303.499 105.399C303.455 105.304 303.409 105.209 303.362 105.115L295.328 109.171ZM309.537 147.417L300.938 150.071C301.822 152.935 304.074 155.171 306.944 156.035C309.815 156.899 312.927 156.277 315.245 154.376L309.537 147.417ZM350.977 113.431L358.021 107.829C356.521 105.942 354.326 104.736 351.929 104.481C349.532 104.226 347.133 104.943 345.269 106.472L350.977 113.431ZM353.362 116.43L359.031 123.421C362.865 120.311 363.479 114.693 360.406 110.829L353.362 116.43ZM351.883 117.63L346.214 110.64C346.202 110.65 346.189 110.66 346.177 110.67L351.883 117.63ZM311.482 150.746L305.776 143.786C302.989 146.07 301.833 149.798 302.84 153.258C303.846 156.719 306.819 159.246 310.397 159.68L311.482 150.746ZM360.397 156.685L369.336 157.74C369.916 152.815 366.405 148.349 361.482 147.751L360.397 156.685ZM359.945 160.525L358.855 169.459C361.23 169.748 363.623 169.08 365.505 167.602C367.387 166.123 368.602 163.956 368.883 161.579L359.945 160.525ZM311.707 154.64L312.797 145.706C309.792 145.34 306.805 146.508 304.846 148.816C302.887 151.124 302.219 154.261 303.069 157.167L311.707 154.64ZM322.562 197.015L313.784 198.998C314.812 203.551 319.151 206.562 323.776 205.933C328.401 205.303 331.777 201.242 331.552 196.58L322.562 197.015ZM322.352 195.11L319.167 186.693C315.132 188.22 312.748 192.396 313.485 196.647L322.352 195.11ZM324.375 197.24L333.235 195.658C333.18 195.348 333.108 195.042 333.021 194.739L324.375 197.24ZM326.942 211.608L335.81 210.072C335.807 210.056 335.804 210.041 335.802 210.026L326.942 211.608ZM326.893 217.216L318.038 215.603C317.833 216.73 317.845 217.887 318.073 219.01L326.893 217.216ZM334.583 259.085L325.704 260.553C326.375 264.617 329.721 267.707 333.826 268.054C337.931 268.4 341.747 265.916 343.091 262.021L334.583 259.085ZM342.221 234.436L333.496 232.227C333.463 232.355 333.434 232.482 333.407 232.611L342.221 234.436ZM341.288 205.175L350.175 203.751V203.751L341.288 205.175ZM344.636 173.243L338.525 166.636C338.48 166.677 338.436 166.719 338.392 166.761L344.636 173.243ZM358.596 171.922L356.173 180.59L358.596 171.922ZM358.707 171.954L356.284 180.621C356.292 180.624 356.301 180.626 356.309 180.628L358.707 171.954ZM364.88 168.374L357.368 163.416L357.368 163.416L364.88 168.374ZM372.234 162.775L373.396 171.699C373.411 171.697 373.425 171.696 373.44 171.694L372.234 162.775ZM386.849 169.464L379.953 175.248C380.2 175.542 380.465 175.819 380.746 176.079L386.849 169.464ZM391.49 168.938L395.077 177.192H395.077L391.49 168.938ZM401.765 167.814L404.8 159.341C404.785 159.336 404.771 159.331 404.757 159.326L401.765 167.814ZM408.762 179.581L417.729 178.81V178.81L408.762 179.581ZM409.525 182.632L405.465 190.664C405.496 190.68 405.527 190.695 405.558 190.71L409.525 182.632ZM412.498 183.288L413.723 174.372H413.723L412.498 183.288ZM422.962 190.431L414.468 193.408C414.471 193.415 414.473 193.423 414.476 193.43L422.962 190.431ZM409.966 222.123L416.625 228.177C416.716 228.078 416.803 227.977 416.889 227.874L409.966 222.123ZM409.966 222.123L403.306 216.069C403.23 216.153 403.155 216.239 403.081 216.326L409.966 222.123ZM409.964 222.125L403.08 216.328C403.067 216.343 403.054 216.359 403.041 216.374L409.964 222.125ZM402.731 231.526L410.152 236.618C410.214 236.527 410.275 236.435 410.334 236.342L402.731 231.526ZM373.442 357.27L371.129 365.967C373.628 366.632 376.294 366.19 378.444 364.752C380.594 363.314 382.022 361.021 382.364 358.457L373.442 357.27ZM346.159 350.013L348.472 341.315C345.641 340.562 342.62 341.234 340.375 343.117C338.13 345 336.942 347.857 337.191 350.777L346.159 350.013ZM348.41 393.745L357.407 393.97C357.409 393.888 357.41 393.805 357.41 393.723L348.41 393.745ZM313.178 473.985L319.441 480.448L313.178 473.985ZM231.556 506.981L231.557 497.981C231.312 497.98 231.068 497.99 230.824 498.01L231.556 506.981ZM188.196 510.52L187.464 501.55C185.344 501.723 183.354 502.641 181.847 504.141L188.196 510.52ZM148.943 533.077L151.263 541.773L151.264 541.773L148.943 533.077ZM64.2462 510.52L70.5892 504.135L70.5835 504.13L64.2462 510.52ZM60.5021 373.468L52.9257 368.61C52.923 368.614 52.9203 368.618 52.9176 368.622L60.5021 373.468ZM81.0698 262.968L90.0651 262.679C90.0142 261.092 89.5443 259.547 88.7034 258.201L81.0698 262.968ZM78.8005 257.113L69.8087 257.496C69.8252 257.883 69.8666 258.268 69.9327 258.649L78.8005 257.113ZM78.1363 241.545L87.0038 240.006C86.1926 235.331 81.891 232.088 77.1732 232.596C72.4553 233.104 68.9422 237.187 69.1445 241.928L78.1363 241.545ZM78.2177 241.979L69.3953 243.758C70.3238 248.363 74.6385 251.479 79.3023 250.913C83.9661 250.347 87.4099 246.289 87.2095 241.595L78.2177 241.979ZM78.1966 241.485L87.1884 241.101C87.185 241.02 87.1804 240.939 87.1748 240.858L78.1966 241.485ZM79.8021 238.663L80.242 247.653C82.6576 247.535 84.924 246.449 86.5303 244.641C88.1366 242.833 88.9476 240.455 88.7806 238.042L79.8021 238.663ZM79.5289 234.836L88.5048 234.177C88.2621 230.872 86.2233 227.969 83.1977 226.618C80.1721 225.267 76.6491 225.688 74.0269 227.714L79.5289 234.836ZM75.6599 237.825L68.3132 243.024C69.7298 245.026 71.902 246.363 74.3273 246.726C76.7527 247.089 79.2212 246.447 81.1619 244.947L75.6599 237.825ZM73.5161 234.795L68.0126 227.674C64.1963 230.623 63.3834 236.057 66.1694 239.994L73.5161 234.795ZM79.1938 230.407L84.6973 237.529C87.0977 235.673 88.402 232.734 88.1667 229.709L79.1938 230.407ZM77.005 204.921L68.0388 205.7C68.0396 205.71 68.0405 205.719 68.0413 205.729L77.005 204.921ZM77.0049 204.92L85.971 204.14C85.9693 204.12 85.9675 204.1 85.9656 204.08L77.0049 204.92ZM77.0048 204.919L85.9655 204.079L85.9642 204.065L77.0048 204.919ZM77.0047 204.918L68.0358 205.665C68.0387 205.7 68.0419 205.736 68.0452 205.771L77.0047 204.918ZM77.0046 204.917L85.9736 204.17C85.9677 204.099 85.961 204.029 85.9534 203.958L77.0046 204.917ZM77.0046 204.917L68.0409 205.725C68.0455 205.775 68.0504 205.825 68.0558 205.876L77.0046 204.917ZM76.5516 199.881L85.5158 199.078C85.1495 194.987 82.0603 191.663 78.0073 190.999L76.5516 199.881ZM60.4417 197.24L51.5469 195.868C50.7942 200.748 54.1136 205.323 58.986 206.122L60.4417 197.24ZM61.0154 193.521L62.5097 184.646C60.1347 184.246 57.6985 184.814 55.746 186.224C53.7936 187.635 52.4877 189.768 52.1206 192.149L61.0154 193.521ZM62.7969 193.821L61.3026 202.696C61.316 202.698 61.3295 202.7 61.343 202.702L62.7969 193.821ZM76.2078 196.016L74.7539 204.898C77.4972 205.347 80.294 204.503 82.3312 202.612C84.3684 200.72 85.4173 197.994 85.173 195.225L76.2078 196.016ZM73.9691 161.365L64.9691 161.371C64.9691 161.42 64.9695 161.468 64.9703 161.516L73.9691 161.365ZM76.294 138.388L85.1102 140.197C85.6143 137.74 85.0708 135.185 83.6105 133.147L76.294 138.388ZM49.4206 75.6655L40.6733 73.5478C40.6703 73.5605 40.6672 73.5732 40.6642 73.5859L49.4206 75.6655ZM55.4596 70.8962L53.144 62.1991C53.1291 62.2031 53.1141 62.2071 53.0992 62.2112L55.4596 70.8962ZM84.6807 72.4124L83.399 81.3207L84.6807 72.4124ZM99.0005 73.8958L98.5803 64.9056C98.5426 64.9074 98.5049 64.9094 98.4672 64.9116L99.0005 73.8958ZM112.558 70.8804L110.375 62.1491C110.282 62.1724 110.19 62.1971 110.098 62.2233L112.558 70.8804ZM112.558 70.8803L114.741 79.6116C114.834 79.5884 114.927 79.5636 115.019 79.5374L112.558 70.8803ZM119.956 68.8564L122.163 77.5815C123.331 77.2861 124.428 76.7592 125.388 76.0322L119.956 68.8564ZM166.232 47.6885L164.351 38.8872V38.8872L166.232 47.6885ZM215.791 47.7718L213.881 56.5667C216.574 57.1516 219.386 56.4708 221.513 54.7191L215.791 47.7718ZM244.721 29.5616L246.999 38.2686C247.427 38.1566 247.846 38.0132 248.253 37.8395L244.721 29.5616ZM258.101 23.6599C255.764 21.7586 252.952 20.5358 249.973 20.118L247.473 37.9436C247.21 37.9067 246.957 37.7981 246.741 37.6229L258.101 23.6599ZM270.99 68.9235C270.839 60.8633 270.175 52.4387 268.522 44.8833C266.917 37.5461 264.139 29.8701 258.924 24.4195L245.918 36.8633C247.725 38.7519 249.587 42.5517 250.938 48.7304C252.242 54.6908 252.853 61.8222 252.993 69.2614L270.99 68.9235ZM268.659 62.8698C268.257 62.5556 267.853 62.244 267.448 61.9349L256.535 76.25C256.883 76.5149 257.229 76.782 257.573 77.0512L268.659 62.8698ZM303.362 105.115C295.058 88.6658 283.208 74.2425 268.659 62.8698L257.573 77.0512C270.041 86.7968 280.187 99.1496 287.293 113.227L303.362 105.115ZM318.137 144.762C313.615 130.112 308.73 116.729 303.499 105.399L287.156 112.944C291.947 123.319 296.563 135.898 300.938 150.071L318.137 144.762ZM315.245 154.376L356.684 120.39L345.269 106.472L303.83 140.458L315.245 154.376ZM343.933 119.033L346.318 122.032L360.406 110.829L358.021 107.829L343.933 119.033ZM347.693 109.44L346.214 110.64L357.551 124.621L359.031 123.421L347.693 109.44ZM346.177 110.67L305.776 143.786L317.187 157.707L357.588 124.591L346.177 110.67ZM310.397 159.68L359.313 165.62L361.482 147.751L312.567 141.812L310.397 159.68ZM351.459 155.631L351.007 159.471L368.883 161.579L369.336 157.74L351.459 155.631ZM361.034 151.591L312.797 145.706L310.617 163.574L358.855 169.459L361.034 151.591ZM331.341 195.032C327.956 180.047 324.282 165.572 320.345 152.113L303.069 157.167C306.881 170.197 310.464 184.301 313.784 198.998L331.341 195.032ZM313.485 196.647C313.53 196.911 313.56 197.178 313.573 197.45L331.552 196.58C331.503 195.575 331.393 194.572 331.22 193.574L313.485 196.647ZM333.021 194.739C332.28 192.179 330.655 188.926 327.114 187.151C325.395 186.289 323.694 186.035 322.272 186.081C321.58 186.103 320.969 186.195 320.458 186.309C320.201 186.366 319.965 186.429 319.751 186.494C319.643 186.527 319.541 186.56 319.444 186.593C319.395 186.61 319.348 186.627 319.302 186.643C319.279 186.652 319.256 186.66 319.234 186.668C319.222 186.672 319.211 186.676 319.2 186.681C319.195 186.683 319.186 186.686 319.183 186.687C319.175 186.69 319.167 186.693 322.352 195.11C325.538 203.528 325.53 203.531 325.521 203.534C325.519 203.535 325.51 203.538 325.505 203.54C325.494 203.544 325.483 203.549 325.472 203.553C325.45 203.561 325.427 203.569 325.405 203.577C325.36 203.593 325.314 203.609 325.268 203.625C325.176 203.657 325.081 203.687 324.983 203.717C324.788 203.776 324.58 203.832 324.359 203.881C323.92 203.979 323.414 204.053 322.853 204.072C321.692 204.109 320.355 203.898 319.048 203.242C317.741 202.587 316.876 201.695 316.364 200.962C315.884 200.275 315.739 199.771 315.73 199.741L333.021 194.739ZM335.802 210.026L333.235 195.658L315.516 198.823L318.082 213.191L335.802 210.026ZM335.747 218.829C336.27 215.958 336.32 213.017 335.81 210.072L318.074 213.145C318.201 213.879 318.206 214.684 318.038 215.603L335.747 218.829ZM343.463 257.618C341.136 243.536 338.545 229.347 335.712 215.422L318.073 219.01C320.858 232.699 323.409 246.669 325.704 260.553L343.463 257.618ZM333.407 232.611C332.597 236.525 329.911 245.036 326.076 256.15L343.091 262.021C346.833 251.176 349.944 241.521 351.034 236.26L333.407 232.611ZM332.402 206.598C334.051 216.895 335.253 225.284 333.496 232.227L350.945 236.644C353.787 225.417 351.674 213.107 350.175 203.751L332.402 206.598ZM338.392 166.761C332.376 172.557 330.662 180.019 330.444 186.734C330.231 193.26 331.408 200.395 332.402 206.598L350.175 203.751C349.105 197.071 348.289 191.772 348.434 187.318C348.573 183.054 349.565 180.992 350.88 179.725L338.392 166.761ZM361.019 163.255C359.236 162.756 355.735 161.73 351.925 161.675C347.827 161.615 342.83 162.655 338.525 166.636L350.747 179.851C350.844 179.761 350.876 179.755 350.904 179.746C350.972 179.724 351.194 179.666 351.661 179.673C352.78 179.689 354.091 180.008 356.173 180.59L361.019 163.255ZM361.13 163.286L361.019 163.255L356.173 180.59L356.284 180.621L361.13 163.286ZM357.368 163.416C356.93 164.08 356.738 164.362 356.584 164.56C356.446 164.739 356.59 164.511 357.01 164.197C357.505 163.826 358.275 163.415 359.257 163.243C360.204 163.077 360.881 163.217 361.105 163.279L356.309 180.628C360.43 181.768 364.488 181.085 367.803 178.602C370.252 176.768 371.851 174.149 372.391 173.331L357.368 163.416ZM371.072 153.85C362.603 154.953 358.826 161.207 357.368 163.416L372.391 173.331C372.806 172.702 373.057 172.327 373.306 171.998C373.535 171.695 373.658 171.574 373.695 171.541C373.715 171.523 373.653 171.581 373.525 171.643C373.389 171.708 373.322 171.709 373.396 171.699L371.072 153.85ZM393.744 163.68C390.368 159.656 386.657 156.786 382.521 155.158C378.338 153.511 374.396 153.401 371.029 153.856L373.44 171.694C374.511 171.549 375.234 171.633 375.928 171.907C376.669 172.198 378.045 172.973 379.953 175.248L393.744 163.68ZM387.904 160.684C387.358 160.921 387.081 161.039 386.864 161.122C386.644 161.206 386.778 161.137 387.122 161.071C387.477 161.002 388.36 160.874 389.524 161.107C390.809 161.364 392.007 161.978 392.951 162.849L380.746 176.079C384.12 179.191 388.085 179.218 390.539 178.744C392.496 178.365 394.394 177.489 395.077 177.192L387.904 160.684ZM404.757 159.326C396.879 156.549 390.46 159.573 387.904 160.684L395.077 177.192C396.474 176.585 397.113 176.341 397.702 176.229C398.095 176.154 398.369 176.16 398.773 176.302L404.757 159.326ZM417.729 178.81C417.48 175.921 416.994 163.709 404.8 159.341L398.73 176.287C399.073 176.41 399.114 176.492 399.058 176.436C399.022 176.4 399.077 176.434 399.178 176.671C399.291 176.936 399.42 177.36 399.532 178.02C399.649 178.7 399.713 179.399 399.795 180.351L417.729 178.81ZM413.585 174.6C415.827 175.733 416.876 177.477 417.276 178.29C417.679 179.107 417.802 179.734 417.817 179.808C417.837 179.907 417.815 179.815 417.729 178.81L399.795 180.351C399.846 180.952 399.944 182.253 400.181 183.411C400.304 184.013 400.558 185.086 401.132 186.249C401.703 187.408 402.961 189.399 405.465 190.664L413.585 174.6ZM413.723 174.372C413.568 174.35 413.432 174.331 413.302 174.313C413.173 174.295 413.061 174.279 412.96 174.264C412.753 174.232 412.634 174.211 412.57 174.198C412.541 174.193 412.537 174.191 412.553 174.195C412.569 174.199 412.615 174.21 412.685 174.231C412.755 174.252 412.859 174.286 412.991 174.335C413.122 174.385 413.293 174.456 413.492 174.554L405.558 190.71C407.872 191.847 410.677 192.122 411.273 192.204L413.723 174.372ZM431.455 187.455C429.616 182.206 426.251 178.767 422.333 176.771C418.862 175.004 415.282 174.586 413.723 174.372L411.273 192.204C412.189 192.33 412.767 192.414 413.303 192.537C413.806 192.652 414.056 192.756 414.164 192.811C414.239 192.849 414.216 192.847 414.187 192.814C414.158 192.782 414.294 192.911 414.468 193.408L431.455 187.455ZM416.889 227.874C420.688 223.301 425.612 217.433 428.903 211.08C432.279 204.564 434.584 196.307 431.447 187.432L414.476 193.43C415.318 195.813 415.066 198.657 412.92 202.8C410.689 207.107 407.127 211.456 403.043 216.372L416.889 227.874ZM416.625 228.177L416.625 228.177L403.306 216.069L403.306 216.069L416.625 228.177ZM416.848 227.922L416.85 227.92L403.081 216.326L403.08 216.328L416.848 227.922ZM410.334 236.342C411.81 234.012 414.009 231.341 416.887 227.876L403.041 216.374C400.388 219.568 397.354 223.197 395.128 226.71L410.334 236.342ZM373.442 357.27C382.364 358.457 382.363 358.457 382.364 358.457C382.364 358.456 382.364 358.455 382.364 358.454C382.364 358.452 382.365 358.448 382.365 358.442C382.367 358.431 382.369 358.414 382.372 358.391C382.379 358.344 382.388 358.273 382.401 358.178C382.427 357.988 382.465 357.703 382.517 357.329C382.619 356.582 382.772 355.477 382.973 354.06C383.374 351.226 383.966 347.145 384.724 342.174C386.243 332.225 388.426 318.743 391.089 304.575C393.757 290.382 396.881 275.632 400.27 263.103C403.771 250.155 407.233 240.872 410.152 236.618L395.31 226.434C390.439 233.533 386.344 245.645 382.894 258.403C379.33 271.58 376.106 286.846 373.399 301.251C370.687 315.681 368.469 329.377 366.931 339.458C366.161 344.501 365.56 348.647 365.151 351.536C364.946 352.981 364.789 354.112 364.683 354.885C364.63 355.271 364.59 355.568 364.563 355.77C364.549 355.87 364.539 355.947 364.532 356C364.528 356.026 364.526 356.046 364.524 356.06C364.523 356.067 364.522 356.072 364.522 356.076C364.521 356.078 364.521 356.08 364.521 356.081C364.521 356.082 364.521 356.083 373.442 357.27ZM343.845 358.71L371.129 365.967L375.756 348.572L348.472 341.315L343.845 358.71ZM357.41 393.723C357.381 381.63 356.587 366.4 355.126 349.249L337.191 350.777C338.628 367.638 339.383 382.339 339.41 393.767L357.41 393.723ZM319.441 480.448C342.96 457.658 356.592 426.625 357.407 393.97L339.413 393.52C338.716 421.443 327.06 448.001 306.915 467.522L319.441 480.448ZM231.556 515.981C264.384 515.982 295.924 503.237 319.441 480.448L306.915 467.522C286.768 487.045 259.725 497.982 231.557 497.981L231.556 515.981ZM188.928 519.49L232.288 515.951L230.824 498.01L187.464 501.55L188.928 519.49ZM151.264 541.773C167.633 537.403 182.561 528.827 194.545 516.899L181.847 504.141C172.104 513.839 159.955 520.822 146.622 524.382L151.264 541.773ZM57.9033 516.905C69.8028 528.726 82.0563 538.227 97.2927 542.997C112.625 547.798 129.882 547.478 151.263 541.773L146.622 524.381C127.421 529.505 113.804 529.305 102.671 525.819C91.4416 522.304 81.6378 515.111 70.5891 504.135L57.9033 516.905ZM52.9176 368.622C34.1854 397.945 25.7414 425.572 27.0371 450.923C28.3406 476.426 39.4531 498.609 57.909 516.911L70.5835 504.13C54.8587 488.536 46.0578 470.434 45.0136 450.005C43.9617 429.424 50.736 405.473 68.0866 378.313L52.9176 368.622ZM72.0744 263.257C73.3652 303.456 69.8613 342.196 52.9257 368.61L68.0785 378.325C88.2292 346.897 91.3654 303.174 90.0651 262.679L72.0744 263.257ZM69.9327 258.649C70.5018 261.934 71.7128 264.976 73.4362 267.735L88.7034 258.201C88.1367 257.293 87.8163 256.43 87.6683 255.576L69.9327 258.649ZM69.1445 241.928L69.8087 257.496L87.7923 256.729L87.1281 241.161L69.1445 241.928ZM87.0402 240.2C87.0272 240.136 87.0151 240.071 87.0038 240.006L69.2688 243.083C69.3079 243.309 69.3501 243.533 69.3953 243.758L87.0402 240.2ZM69.2048 241.868L69.2259 242.363L87.2095 241.595L87.1884 241.101L69.2048 241.868ZM79.3622 229.674C77.9058 229.746 74.8099 230.225 72.2317 232.946C69.5464 235.779 69.0245 239.331 69.2185 242.111L87.1748 240.858C87.1928 241.116 87.2482 243.268 85.297 245.327C83.4528 247.273 81.2476 247.604 80.242 247.653L79.3622 229.674ZM70.5531 235.495C70.6457 236.755 70.7359 238.019 70.8236 239.285L88.7806 238.042C88.6911 236.749 88.599 235.46 88.5048 234.177L70.5531 235.495ZM81.1619 244.947L85.0309 241.959L74.0269 227.714L70.1579 230.703L81.1619 244.947ZM66.1694 239.994L68.3132 243.024L83.0066 232.626L80.8628 229.597L66.1694 239.994ZM73.6903 223.286L68.0126 227.674L79.0196 241.917L84.6973 237.529L73.6903 223.286ZM68.0413 205.729C68.778 213.902 69.5433 222.395 70.2209 231.105L88.1667 229.709C87.4792 220.871 86.704 212.271 85.9686 204.113L68.0413 205.729ZM68.0387 205.699L68.0388 205.7L85.9711 204.141L85.971 204.14L68.0387 205.699ZM68.0441 205.759L68.0442 205.76L85.9656 204.08L85.9655 204.079L68.0441 205.759ZM68.0452 205.771L68.0453 205.772L85.9642 204.065L85.9641 204.064L68.0452 205.771ZM68.0357 205.665L68.0358 205.665L85.9736 204.17L85.9736 204.17L68.0357 205.665ZM68.0558 205.876L68.0559 205.876L85.9534 203.958L85.9534 203.958L68.0558 205.876ZM67.5875 200.683C67.7366 202.348 67.8882 204.03 68.0409 205.725L85.9683 204.109C85.8154 202.413 85.6643 200.736 85.5158 199.078L67.5875 200.683ZM58.986 206.122L75.096 208.762L78.0073 190.999L61.8974 188.359L58.986 206.122ZM52.1206 192.149L51.5469 195.868L69.3365 198.612L69.9102 194.893L52.1206 192.149ZM64.2912 184.945L62.5097 184.646L59.5211 202.396L61.3026 202.696L64.2912 184.945ZM77.6617 187.134L64.2508 184.939L61.343 202.702L74.7539 204.898L77.6617 187.134ZM64.9703 161.516C65.1431 171.789 66.1003 183.861 67.2427 196.807L85.173 195.225C84.0277 182.247 83.1284 170.765 82.9678 161.213L64.9703 161.516ZM67.4777 136.578C65.8032 144.737 64.9628 153.044 64.9691 161.371L82.9691 161.358C82.9637 154.251 83.6809 147.161 85.1102 140.197L67.4777 136.578ZM40.6642 73.5859C39.192 79.7846 40.0378 86.4363 41.6531 92.502C43.3023 98.6949 45.9826 105.109 49.024 111.225C55.1091 123.462 63.1237 135.457 68.9774 143.629L83.6105 133.147C77.9902 125.301 70.6055 114.199 65.1411 103.21C62.4077 97.7139 60.2757 92.4842 59.047 87.87C57.7843 83.1287 57.6866 79.8104 58.1771 77.7452L40.6642 73.5859ZM53.0992 62.2112C49.0027 63.3246 42.448 66.2175 40.6733 73.5478L58.1679 77.7833C58.038 78.3198 57.8078 78.806 57.5305 79.2023C57.2639 79.5833 57.0122 79.7993 56.8944 79.8887C56.7827 79.9735 56.7773 79.9556 56.9464 79.8794C57.1132 79.8042 57.396 79.6964 57.82 79.5811L53.0992 62.2112ZM85.9623 63.5041C80.9013 62.776 74.9423 61.9153 69.3988 61.4755C64.1328 61.0578 58.0347 60.897 53.144 62.1991L57.7752 79.5932C59.4383 79.1504 62.8297 79.011 67.9753 79.4192C72.8433 79.8054 78.218 80.5753 83.399 81.3207L85.9623 63.5041ZM98.4672 64.9116C97.9035 64.9451 96.5449 64.8866 94.1 64.6066C91.797 64.3428 89.0668 63.9508 85.9623 63.5041L83.399 81.3207C86.4266 81.7563 89.4372 82.1902 92.0516 82.4897C94.524 82.7729 97.2593 83.015 99.5339 82.88L98.4672 64.9116ZM110.098 62.2233C104.403 63.8418 100.82 64.8009 98.5803 64.9056L99.4208 82.886C104.24 82.6607 110.199 80.9076 115.019 79.5375L110.098 62.2233ZM110.376 62.1491L110.375 62.1491L114.741 79.6117L114.741 79.6116L110.376 62.1491ZM117.748 60.1314C115.082 60.806 112.468 61.5497 110.098 62.2233L115.019 79.5374C117.427 78.8529 119.792 78.1815 122.163 77.5815L117.748 60.1314ZM164.351 38.8872C146.261 42.7528 129.248 50.5342 114.524 61.6807L125.388 76.0322C138.007 66.4798 152.594 59.806 168.113 56.4898L164.351 38.8872ZM217.702 38.9769C200.135 35.1612 181.943 35.1281 164.351 38.8872L168.113 56.4898C183.204 53.265 198.811 53.2934 213.881 56.5667L217.702 38.9769ZM242.444 20.8546C236.841 22.3202 230.873 25.6831 225.615 29.1571C220.181 32.7476 214.738 36.9801 210.07 40.8245L221.513 54.7191C225.941 51.0725 230.842 47.2779 235.538 44.1751C240.41 40.9558 244.359 38.9591 246.999 38.2686L242.444 20.8546ZM249.973 20.118C246.995 19.7003 243.957 20.1026 241.189 21.2836L248.253 37.8395C248.005 37.9453 247.736 37.9804 247.473 37.9436L249.973 20.118Z" fill="white" mask="url(#path-1-outside-1_716_72)"/>
            <path d="M342.22 234.436C347.535 213.438 331.713 185.692 344.636 173.243C349.014 169.194 354.842 170.874 358.707 171.953C365.108 173.723 364.172 163.825 372.234 162.775C376.673 162.175 381.564 163.165 386.848 169.464C389.385 171.803 394.276 165.174 401.765 167.814C410.642 170.994 407.804 181.762 409.525 182.632C412.212 183.952 420.123 182.332 422.961 190.431C428.336 205.639 409.857 220.277 402.731 231.526C387.15 254.233 373.442 357.27 373.442 357.27L304.99 339.062C304.99 339.062 338.506 252.373 342.22 234.436Z" fill="url(#paint0_linear_716_72)"/>
            <path d="M380.627 200.96C374.317 199.28 373.713 203.509 367.553 205.819C361.393 208.129 361.514 212.658 364.292 215.298C368.459 219.047 373.622 216.258 376.37 217.008C379.118 217.758 382.922 223.937 388.689 221.237C394.457 218.538 390.894 213.168 388.689 210.349C386.364 207.019 386.697 202.58 380.627 200.96Z" fill="black"/>
            <path d="M350.343 179.033C345.361 180.742 351.158 193.521 355.174 192.141C359.19 190.761 358.646 176.303 350.343 179.033Z" fill="black"/>
            <path d="M374.045 173.033C367.765 172.313 368.006 186.321 372.928 187.071C377.85 187.821 381.171 173.903 374.045 173.033Z" fill="black"/>
            <path d="M398.353 179.662C391.831 177.053 387.483 190.011 391.65 191.901C397.296 194.48 404.513 182.032 398.353 179.662Z" fill="black"/>
            <path d="M417.556 192.921C413.45 188.301 404.723 198.35 406.958 202.07C409.192 205.789 421.15 196.79 417.556 192.921Z" fill="black"/>
            <path d="M378.877 239.745C381.226 239.742 383.566 239.47 385.852 238.935L385.279 236.475C380.769 237.522 376.069 237.439 371.6 236.235C366.898 234.945 362.545 232.629 358.858 229.456L357.228 231.376C361.197 234.791 365.879 237.29 370.936 238.695C373.526 239.384 376.196 239.737 378.877 239.745Z" fill="white"/>
            <path d="M252.421 30.6414C251.36 29.7784 250.081 29.2212 248.724 29.0308C247.366 28.8404 245.982 29.024 244.722 29.5616C235.663 31.9313 222.559 42.04 213.168 49.959L261.903 80.0451C262.506 61.5075 261.117 39.7303 252.421 30.6414Z" fill="#FBA702"/>
            <path d="M229.957 52.2686C232.443 49.4144 235.356 46.956 238.592 44.9795C242.941 49.3589 243.273 54.7982 239.589 61.2974C237.005 59.8388 234.285 58.6333 231.467 57.6979C230.939 57.5164 230.465 57.2104 230.083 56.8061C229.701 56.4019 229.424 55.9115 229.276 55.3773C229.127 54.8431 229.111 54.281 229.23 53.7395C229.349 53.1979 229.598 52.6931 229.957 52.2686Z" fill="black"/>
            <path d="M246.02 44.0497C244.075 43.7863 242.099 43.8881 240.192 44.3497C236.36 45.1902 232.857 47.118 230.107 49.8989C228.708 51.2952 227.609 52.9585 226.876 54.7883C228.611 54.0391 230.305 53.198 231.949 52.2687L236.599 49.719L241.249 47.1093C242.895 46.1787 244.488 45.1573 246.02 44.0497Z" fill="black"/>
            <path d="M60.5021 373.468C96.7359 316.955 74.8447 213.438 73.9691 161.365C73.9632 153.647 74.7421 145.949 76.294 138.388C64.8199 122.37 45.4953 92.1934 49.4206 75.6655C49.9943 73.2958 52.259 71.7661 55.4596 70.8962C65.9372 68.1065 91.4216 74.3457 99.0005 73.8958C104.134 73.6558 111.894 70.8962 119.956 68.8564C133.627 58.507 149.428 51.2794 166.232 47.6885C183.036 44.0977 200.43 44.2318 217.176 48.0814C233.922 51.931 249.608 59.4014 263.116 69.9605C276.624 80.5196 287.622 93.9077 295.328 109.171C326.972 177.713 348.259 331.143 348.41 393.745C347.654 424.034 335.01 452.829 313.178 473.985C291.346 495.141 262.055 506.982 231.556 506.981L188.196 510.52C177.333 521.333 163.794 529.113 148.943 533.077C108.361 543.906 87.1943 533.317 64.2462 510.52C30.0656 476.624 24.4192 429.95 60.5021 373.468Z" fill="url(#paint1_linear_716_72)"/>
            <path d="M60.5021 373.468C96.7359 316.955 74.8447 213.438 73.9691 161.365C73.9632 153.647 74.7421 145.949 76.294 138.388C64.8199 122.37 45.4953 92.1934 49.4206 75.6655C49.9943 73.2958 52.259 71.7661 55.4596 70.8962C65.9372 68.1065 91.4216 74.3457 99.0005 73.8958C104.134 73.6558 111.894 70.8962 119.956 68.8564C133.627 58.507 149.428 51.2794 166.232 47.6885C183.036 44.0977 200.43 44.2318 217.176 48.0814C233.922 51.931 249.608 59.4014 263.116 69.9605C276.624 80.5196 287.622 93.9077 295.328 109.171C326.972 177.713 348.259 331.143 348.41 393.745C347.654 424.034 335.01 452.829 313.178 473.985C291.346 495.141 262.055 506.982 231.556 506.981L188.196 510.52C177.333 521.333 163.794 529.113 148.943 533.077C108.361 543.906 87.1943 533.317 64.2462 510.52C30.0656 476.624 24.4192 429.95 60.5021 373.468Z" fill="url(#paint2_linear_716_72)"/>
            <path d="M105.886 92.9434C99.8409 90.6826 93.4683 89.4063 87.0139 89.1638C84.538 99.5825 88.7853 108.201 99.7561 115.021C102.226 110.603 105.107 106.425 108.362 102.542C108.97 101.793 109.395 100.914 109.601 99.9734C109.807 99.033 109.789 98.0578 109.548 97.1255C109.308 96.1932 108.851 95.3296 108.216 94.6035C107.58 93.8774 106.782 93.309 105.886 92.9434Z" fill="black"/>
            <path d="M99.877 115.47V115.17C102.344 110.777 105.215 106.62 108.452 102.752C109.109 101.955 109.564 101.014 109.779 100.007C109.995 98.9996 109.964 97.9558 109.69 96.9627C109.445 95.9907 108.969 95.0912 108.302 94.3397C107.635 93.5881 106.796 93.0064 105.856 92.6433C99.777 90.3867 93.3768 89.1009 86.8932 88.8337H86.6215V89.0737C84.1154 99.6024 88.4331 108.421 99.4844 115.29L99.877 115.47ZM87.2857 89.4637C93.6054 89.7652 99.8394 91.0402 105.765 93.2432C106.614 93.5582 107.373 94.0759 107.973 94.7507C108.573 95.4255 108.997 96.2367 109.207 97.1127C109.448 98.0115 109.475 98.9536 109.286 99.8647C109.098 100.776 108.699 101.631 108.12 102.362C104.924 106.167 102.084 110.253 99.6355 114.57C89.1579 107.941 84.9909 99.4824 87.2857 89.4637Z" fill="black"/>
            <path d="M65.7871 91.8035C72.3838 90.6604 79.0889 90.2579 85.7761 90.6036C89.0555 90.8034 92.3153 91.2445 95.529 91.9235L97.9145 92.4634L100.3 93.0933L101.447 93.4533C101.817 93.5503 102.18 93.6705 102.534 93.8132C103.125 94.0339 103.675 94.3479 104.165 94.7431C105.159 95.6056 105.877 96.7383 106.232 98.0015C106.586 99.2647 106.56 100.603 106.158 101.852C105.981 102.468 105.695 103.047 105.312 103.562L103.803 105.662C102.806 107.071 101.9 108.661 101.024 110.011C97.4969 115.866 95.072 122.311 93.8683 129.029C96.4663 122.894 99.7156 117.051 103.561 111.601C104.497 110.251 105.493 108.931 106.58 107.641C107.064 106.982 107.607 106.352 108.12 105.692C108.762 104.897 109.271 104.006 109.63 103.052C110.327 101.098 110.411 98.9801 109.872 96.9775C109.333 94.9748 108.196 93.1814 106.611 91.8334C105.787 91.1744 104.858 90.6573 103.863 90.3037C103.429 90.1359 102.986 89.9956 102.534 89.8837L101.296 89.5238C99.6054 89.0738 97.9145 88.6839 96.1934 88.3839C92.7713 87.8211 89.3046 87.5701 85.8365 87.634C78.9516 87.7822 72.1538 89.1958 65.7871 91.8035Z" fill="black"/>
            <path d="M322.352 195.11C326.459 218.807 274.705 248.024 206.766 260.022C138.828 272.021 83.9941 262.362 79.9479 238.665C79.9479 238.665 77.9852 238.455 78.1966 241.484L78.861 257.052C82.9675 280.749 140.489 289.238 209.484 276.88C278.479 264.522 331.048 235.305 326.942 211.608L324.375 197.24C323.621 194.63 322.352 195.11 322.352 195.11Z" fill="#8E8E8E"/>
            <path d="M324.315 197.27C328.422 220.967 275.822 250.183 206.827 262.542C137.832 274.9 82.2432 265.211 78.1367 241.544L78.8009 257.112C82.9074 280.809 140.429 289.298 209.424 276.94C278.419 264.581 330.989 235.365 326.882 211.668L324.315 197.27Z" fill="#333333"/>
            <path d="M294.331 225.347H294.603H294.875H295.116L295.358 225.497L281.921 234.675C281.711 234.811 281.518 234.972 281.347 235.155L280.864 235.785L280.502 236.565C280.403 236.85 280.323 237.14 280.26 237.435C280.26 237.735 280.26 238.065 280.26 238.365C280.26 238.665 280.26 238.995 280.26 239.325C280.26 239.655 280.26 239.925 280.26 240.255C280.26 240.585 280.442 240.855 280.562 241.155L285.635 253.963C285.803 254.384 286.016 254.786 286.269 255.163C286.501 255.487 286.775 255.78 287.084 256.033C287.371 256.261 287.685 256.453 288.02 256.603C288.328 256.722 288.656 256.783 288.987 256.783H289.379C289.498 256.81 289.622 256.81 289.741 256.783H290.104L290.436 256.573L303.541 247.784C303.483 247.968 303.413 248.149 303.329 248.324L303.057 248.804L302.695 249.223C302.579 249.349 302.447 249.46 302.303 249.553L288.232 259.002C288.141 259.07 288.039 259.121 287.93 259.152H287.658H287.326H287.024C286.691 259.152 286.361 259.08 286.058 258.942C285.729 258.785 285.425 258.583 285.152 258.342C284.833 258.057 284.549 257.735 284.306 257.382C284.047 256.988 283.835 256.565 283.672 256.123L277.633 241.125C277.384 240.52 277.222 239.884 277.15 239.235C277.059 238.628 277.059 238.012 277.15 237.405C277.224 236.862 277.388 236.335 277.633 235.845C277.845 235.41 278.168 235.038 278.57 234.765L294.693 225.017" fill="#EAEAEA"/>
            <path d="M293.575 228.196L294.089 228.586C294.255 228.742 294.407 228.913 294.542 229.096C294.7 229.294 294.841 229.505 294.964 229.726C295.115 229.95 295.237 230.192 295.327 230.446L297.591 236.145L296.233 237.075L297.44 240.075L298.799 239.145L300.913 244.424C301.011 244.689 301.092 244.959 301.154 245.234C301.169 245.504 301.169 245.774 301.154 246.044C301.169 246.314 301.169 246.584 301.154 246.854C301.154 247.124 301.154 247.394 301.154 247.634L289.288 255.613L289.016 255.763H288.744H288.472H288.291C288.033 255.759 287.777 255.708 287.536 255.613C287.299 255.511 287.076 255.38 286.872 255.223C286.639 255.034 286.435 254.811 286.268 254.563C286.072 254.283 285.91 253.981 285.785 253.663L280.682 240.825C280.682 240.615 280.682 240.405 280.471 240.195C280.458 239.965 280.458 239.735 280.471 239.505C280.456 239.275 280.456 239.045 280.471 238.815V238.125L280.652 237.465L280.924 236.895C281.017 236.716 281.14 236.554 281.286 236.415C281.394 236.273 281.527 236.151 281.679 236.055L293.545 227.986M296.263 226.546C296.502 226.503 296.748 226.503 296.987 226.546C297.241 226.646 297.476 226.788 297.682 226.966C297.906 227.154 298.108 227.365 298.286 227.596C298.482 227.876 298.644 228.178 298.769 228.496L303.902 241.395C303.999 241.605 304.071 241.827 304.113 242.054C304.173 242.512 304.173 242.976 304.113 243.434V244.154L303.932 244.784C303.854 244.98 303.763 245.17 303.661 245.354C303.567 245.516 303.456 245.667 303.328 245.804C303.202 245.949 303.061 246.08 302.906 246.194C303.051 245.89 303.153 245.567 303.208 245.234C303.237 244.885 303.237 244.534 303.208 244.184C303.237 243.825 303.237 243.464 303.208 243.104C303.135 242.737 303.034 242.376 302.906 242.024L297.742 229.126C297.618 228.799 297.456 228.487 297.259 228.196C297.081 227.93 296.868 227.687 296.625 227.476C296.422 227.271 296.188 227.099 295.931 226.966C295.694 226.846 295.439 226.765 295.176 226.726H295.417H295.659H295.931H296.202" fill="white"/>
            <path d="M302.997 246.524C303.152 246.41 303.294 246.279 303.42 246.134C303.547 245.997 303.658 245.846 303.752 245.684C303.855 245.5 303.945 245.31 304.024 245.114L304.205 244.484V243.764C304.264 243.306 304.264 242.842 304.205 242.384C304.162 242.157 304.091 241.935 303.993 241.724L298.86 228.826C298.736 228.508 298.574 228.206 298.377 227.926C298.199 227.695 297.997 227.484 297.773 227.296C297.568 227.118 297.333 226.976 297.079 226.876C296.839 226.833 296.594 226.833 296.354 226.876H296.082H295.811H295.569H295.327H294.633H294.301H293.999L293.667 227.056L293.002 227.506H293.153H293.304H293.485L281.619 235.575C281.467 235.671 281.334 235.793 281.226 235.935C281.08 236.074 280.957 236.236 280.864 236.415L280.592 236.985L280.411 237.645V238.335C280.397 238.565 280.397 238.795 280.411 239.025C280.398 239.255 280.398 239.485 280.411 239.715C280.411 239.925 280.562 240.135 280.623 240.345L285.726 253.183C285.85 253.501 286.012 253.803 286.209 254.083C286.376 254.332 286.579 254.554 286.812 254.743C287.016 254.9 287.239 255.032 287.477 255.133C287.717 255.228 287.973 255.279 288.232 255.283H288.503H288.775H289.047L289.319 255.133L301.185 247.154C301.189 247.224 301.189 247.294 301.185 247.364C301.202 247.433 301.202 247.505 301.185 247.574C301.203 247.643 301.203 247.715 301.185 247.784C301.185 247.784 301.185 247.784 301.185 247.994L301.88 247.514L302.242 247.244L302.574 246.884L302.846 246.464C302.929 246.32 303 246.169 303.057 246.014M296.264 225.017C296.605 225.03 296.942 225.101 297.26 225.227C297.6 225.354 297.916 225.536 298.196 225.767C298.505 226.019 298.779 226.312 299.011 226.636C299.264 227.013 299.477 227.415 299.645 227.836L304.809 240.735C304.809 241.035 305.02 241.335 305.08 241.634C305.141 241.934 305.08 242.264 305.231 242.564C305.382 242.864 305.231 243.224 305.231 243.524C305.231 243.824 305.231 244.154 305.231 244.454C305.231 244.754 305.231 245.054 304.99 245.354C304.884 245.616 304.752 245.867 304.597 246.104C304.471 246.347 304.308 246.57 304.114 246.764C303.951 246.955 303.757 247.117 303.54 247.244L303.118 247.544L290.013 256.333L289.681 256.543H289.319C289.199 256.57 289.075 256.57 288.956 256.543H288.292C287.961 256.544 287.634 256.482 287.326 256.363C286.991 256.213 286.676 256.021 286.39 255.793C286.08 255.54 285.806 255.247 285.574 254.923C285.321 254.546 285.109 254.144 284.94 253.723L279.868 240.915C279.868 240.615 279.656 240.315 279.566 240.015C279.475 239.715 279.566 239.385 279.566 239.085C279.566 238.785 279.566 238.455 279.566 238.125C279.566 237.795 279.566 237.495 279.566 237.195C279.628 236.9 279.709 236.61 279.807 236.325L280.17 235.545L280.653 234.915C280.823 234.732 281.016 234.571 281.226 234.435L294.663 225.257H294.905H295.146H295.629" fill="white"/>
            <path d="M289.137 245.894L287.93 242.864L293.606 238.995L294.784 241.994L289.137 245.894Z" fill="#231F20"/>
            <path d="M287.054 247.244L285.846 244.214L287.204 243.284L288.412 246.314L287.054 247.244Z" fill="#231F20"/>
            <path d="M297.442 240.105L296.264 237.135L293.637 238.935L292.46 235.965L289.803 237.765L288.625 234.765L291.282 232.936L292.46 235.935L295.087 234.105L296.264 237.075L298.891 235.275L300.069 238.275L297.442 240.105Z" fill="#231F20"/>
            <path d="M294.573 249.794L293.365 246.764L296.022 244.934L294.845 241.965L297.472 240.135L298.68 243.164L296.022 244.964L297.2 247.964L294.573 249.794Z" fill="#231F20"/>
            <path d="M295.268 227.026C295.531 227.065 295.786 227.146 296.022 227.266C296.28 227.399 296.514 227.571 296.717 227.776C296.959 227.987 297.173 228.229 297.351 228.496C297.548 228.787 297.71 229.099 297.834 229.426L302.997 242.324C303.126 242.676 303.227 243.037 303.299 243.404C303.329 243.764 303.329 244.125 303.299 244.484C303.329 244.833 303.329 245.185 303.299 245.534C303.245 245.867 303.143 246.19 302.997 246.494L301.367 247.604C301.367 247.364 301.367 247.094 301.367 246.824C301.382 246.554 301.382 246.284 301.367 246.014C301.381 245.744 301.381 245.474 301.367 245.204C301.305 244.929 301.224 244.659 301.125 244.394L299.012 239.115L300.31 238.215L299.102 235.215L297.804 236.115L295.539 230.416C295.449 230.162 295.328 229.92 295.177 229.696C295.054 229.475 294.912 229.264 294.754 229.066C294.62 228.883 294.468 228.712 294.301 228.556L293.788 228.166L295.388 227.086" fill="#CCCCCC"/>
            <path d="M302.997 246.524C302.939 246.679 302.868 246.83 302.786 246.974L302.514 247.394L302.182 247.754L301.819 248.024L301.125 248.504C301.125 248.504 301.125 248.504 301.125 248.294C301.143 248.225 301.143 248.153 301.125 248.084C301.142 248.015 301.142 247.943 301.125 247.874C301.129 247.804 301.129 247.734 301.125 247.664L302.755 246.554M294.663 227.056H294.935L293.335 228.136H293.153H293.002H292.852L293.516 227.686L293.848 227.506H294.15H294.482H294.814" fill="#CCCCCC"/>
            <path d="M285.756 248.174L284.548 245.114L285.846 244.214L287.054 247.244L285.756 248.174Z" fill="#1C191A"/>
            <path d="M213.288 181.582L216.126 192.531L215.764 192.801L215.432 193.041L215.069 193.311L214.707 193.55L214.254 193.85L213.801 194.12L213.318 194.39L212.865 194.66L209.846 182.662H210.449H211.265L212.02 182.452C212.268 182.37 212.511 182.27 212.744 182.152C212.987 182.02 213.219 181.869 213.439 181.702" fill="black"/>
            <path d="M226 179.032L229.291 180.742L228.476 182.452C227.746 183.948 226.929 185.4 226.03 186.801C225.198 188.139 224.28 189.421 223.282 190.641C222.345 191.792 221.337 192.884 220.263 193.911C219.184 194.894 218.034 195.796 216.821 196.61C215.621 197.418 214.359 198.13 213.046 198.74C211.714 199.333 210.342 199.834 208.94 200.24C207.502 200.638 206.04 200.938 204.562 201.14C203.008 201.323 201.445 201.413 199.881 201.41H198.281H197.466H196.651H194.809L195.08 197.63L196.922 197.78H197.677H199.881C201.091 197.783 202.301 197.723 203.505 197.6C204.604 197.485 205.693 197.295 206.766 197.03C207.79 196.769 208.798 196.448 209.785 196.07C210.82 195.685 211.828 195.234 212.805 194.72L213.258 194.451L213.741 194.181L214.194 193.911L214.647 193.611L215.009 193.371L215.371 193.101L215.704 192.861L216.066 192.591C216.971 191.888 217.829 191.127 218.632 190.311C219.464 189.452 220.25 188.551 220.988 187.611C221.775 186.612 222.491 185.56 223.131 184.462C223.852 183.309 224.507 182.117 225.094 180.892L225.939 179.212" fill="black"/>
            <path d="M214.586 163.764C215.461 163.757 216.319 163.996 217.062 164.454C217.81 164.917 218.433 165.556 218.874 166.314C219.31 167.088 219.568 167.949 219.629 168.834C219.665 169.793 219.446 170.745 218.995 171.593L214.646 179.932L214.375 180.412C214.272 180.558 214.161 180.698 214.043 180.832L213.68 181.222C213.557 181.35 213.426 181.47 213.288 181.582C213.068 181.749 212.836 181.9 212.593 182.032C212.36 182.15 212.117 182.25 211.869 182.332L211.114 182.542H210.298H209.785H209.272H208.789L208.275 182.332L207.792 182.062L200.002 177.083C199.11 176.505 198.407 175.682 197.979 174.713C197.573 173.768 197.437 172.73 197.586 171.713C197.703 170.738 198.09 169.814 198.704 169.044C199.327 168.228 200.211 167.646 201.21 167.394H201.783C202.794 167.398 203.803 167.328 204.803 167.184C205.822 167.037 206.83 166.827 207.822 166.554C208.794 166.275 209.742 165.924 210.661 165.504C211.604 165.078 212.522 164.597 213.409 164.064H213.741H214.073H214.707" fill="black"/>
            <path d="M164.493 125.249C163.056 123.34 161.427 121.582 159.632 120C157.928 118.495 156.065 117.177 154.076 116.07C152.175 115.001 150.146 114.175 148.037 113.611C145.974 113.034 143.839 112.751 141.696 112.771C141.183 112.741 140.669 112.741 140.156 112.771H138.646L137.106 113.041L135.597 113.401C131.929 114.446 128.571 116.36 125.813 118.98C122.964 121.686 120.685 124.928 119.11 128.519C117.407 132.397 116.386 136.536 116.091 140.757C115.763 145.313 116.181 149.892 117.329 154.315L117.6 155.305L117.872 156.265C117.872 156.595 118.084 156.925 118.204 157.225C118.325 157.525 118.416 157.855 118.506 158.185C119.71 161.511 121.344 164.667 123.368 167.574C125.257 170.287 127.512 172.73 130.071 174.833C132.487 176.774 135.185 178.342 138.073 179.482C140.854 180.563 143.813 181.123 146.799 181.132H148.309H149.849L151.388 180.862C151.898 180.771 152.402 180.65 152.898 180.502C155.864 179.685 158.636 178.288 161.051 176.393C163.447 174.477 165.49 172.163 167.09 169.553C168.861 166.767 170.204 163.734 171.076 160.555C171.999 157.181 172.476 153.702 172.495 150.206C172.495 149.336 172.495 148.436 172.495 147.536C172.495 146.636 172.495 145.767 172.253 144.867C172.012 143.967 171.981 143.067 171.8 142.167C171.619 141.267 171.438 140.367 171.196 139.467C170.861 138.125 170.448 136.803 169.958 135.508C169.503 134.241 168.979 132.999 168.388 131.788C167.814 130.588 167.211 129.449 166.546 128.339C165.882 127.229 165.157 126.179 164.402 125.189M141.605 112.081C144.924 112.087 148.209 112.75 151.268 114.031C154.498 115.361 157.471 117.239 160.055 119.58C162.835 122.085 165.227 124.986 167.15 128.189C169.225 131.66 170.791 135.407 171.8 139.317C172.366 141.566 172.77 143.851 173.008 146.156C173.189 148.413 173.189 150.679 173.008 152.936C172.729 157.314 171.708 161.613 169.989 165.654C169.158 167.564 168.147 169.392 166.969 171.113C165.813 172.738 164.487 174.236 163.014 175.583C161.638 176.91 160.108 178.068 158.454 179.032C156.797 179.961 155.033 180.686 153.2 181.192L151.63 181.582L150.06 181.822L148.46 182.002H146.889C145.523 182.001 144.159 181.881 142.813 181.642C141.448 181.415 140.104 181.074 138.797 180.622C137.454 180.134 136.143 179.563 134.872 178.912C133.549 178.202 132.277 177.4 131.067 176.513C129.351 175.25 127.754 173.834 126.297 172.283C124.793 170.649 123.429 168.893 122.22 167.034C121.051 165.119 120.041 163.113 119.201 161.035C118.281 158.928 117.534 156.751 116.966 154.525C115.802 150.105 115.363 145.527 115.668 140.967C115.816 138.764 116.149 136.576 116.664 134.428C117.179 132.371 117.876 130.363 118.748 128.429C119.567 126.513 120.578 124.684 121.767 122.969C122.913 121.346 124.229 119.848 125.693 118.5C127.099 117.209 128.649 116.082 130.312 115.14C131.968 114.203 133.733 113.467 135.566 112.951C136.073 112.802 136.587 112.682 137.106 112.591L138.677 112.291L140.247 112.141H141.817" fill="#FFCB04"/>
            <path d="M164.494 125.249C165.249 126.239 165.943 127.319 166.638 128.399C167.332 129.479 167.906 130.649 168.48 131.848C169.07 133.059 169.594 134.301 170.05 135.568C170.54 136.863 170.953 138.185 171.288 139.527C171.529 140.427 171.741 141.327 171.892 142.227C172.043 143.127 172.224 144.027 172.344 144.927C172.465 145.827 172.526 146.726 172.586 147.596C172.646 148.466 172.586 149.396 172.586 150.266C172.567 153.762 172.09 157.241 171.167 160.615C170.296 163.794 168.952 166.827 167.181 169.614C165.582 172.223 163.539 174.537 161.142 176.453C158.727 178.348 155.955 179.745 152.99 180.562C152.494 180.71 151.99 180.831 151.48 180.922L149.94 181.192H148.4H146.89C143.904 181.183 140.945 180.623 138.164 179.542C135.276 178.402 132.578 176.834 130.162 174.893C127.604 172.79 125.348 170.347 123.459 167.634C121.436 164.727 119.802 161.571 118.598 158.245C120.033 160.147 121.651 161.905 123.429 163.494C125.122 164.999 126.975 166.316 128.954 167.424C130.858 168.495 132.886 169.331 134.993 169.914C137.047 170.488 139.171 170.781 141.304 170.783C141.807 170.814 142.311 170.814 142.814 170.783C143.33 170.763 143.844 170.713 144.354 170.633L145.894 170.393L147.404 170.033C151.081 168.984 154.455 167.082 157.247 164.484C160.104 161.767 162.393 158.515 163.981 154.915C165.691 151.029 166.712 146.879 167 142.647C167.333 138.069 166.905 133.468 165.732 129.029L165.46 128.039L165.188 127.049C165.07 126.735 164.969 126.414 164.886 126.089C164.886 125.789 164.645 125.459 164.554 125.159" fill="white"/>
            <path d="M152.416 145.617C152.927 145.228 153.384 144.775 153.774 144.267C154.17 143.762 154.476 143.194 154.68 142.587C154.918 141.984 155.05 141.345 155.073 140.697C155.101 140.022 155.04 139.347 154.892 138.687C154.699 138.007 154.404 137.36 154.016 136.768C153.634 136.199 153.166 135.693 152.627 135.268C152.101 134.853 151.509 134.529 150.876 134.308C150.244 134.091 149.581 133.979 148.913 133.978H148.128H147.705H147.313C146.971 134.071 146.638 134.192 146.316 134.338C146.007 134.489 145.714 134.67 145.441 134.878C145.152 135.065 144.889 135.286 144.655 135.538C144.409 135.776 144.187 136.037 143.991 136.318L143.357 136.168H142.723H140.73H140.006H139.281L138.556 136.348C135.675 137.196 133.246 139.135 131.792 141.747C131.062 143.034 130.59 144.45 130.404 145.916C130.196 147.449 130.288 149.008 130.675 150.506C131.001 151.748 131.521 152.932 132.215 154.015C132.896 155.046 133.743 155.958 134.721 156.715C135.627 157.446 136.647 158.023 137.741 158.425C138.892 158.844 140.108 159.058 141.334 159.055H142.029H142.753H143.478L144.203 158.905C145.586 158.498 146.885 157.847 148.037 156.985C149.135 156.157 150.076 155.141 150.815 153.985C151.525 152.766 152.025 151.438 152.295 150.056C152.566 148.619 152.566 147.144 152.295 145.706M141.455 112.711C143.598 112.691 145.733 112.974 147.796 113.551C149.905 114.115 151.934 114.941 153.835 116.01C155.824 117.117 157.687 118.435 159.391 119.94C161.186 121.521 162.815 123.28 164.252 125.189C164.252 125.489 164.463 125.819 164.584 126.119C164.667 126.444 164.767 126.765 164.886 127.079L165.158 128.069L165.43 129.059C166.602 133.498 167.031 138.099 166.698 142.677C166.41 146.909 165.388 151.059 163.678 154.945C162.09 158.545 159.802 161.796 156.945 164.514C154.152 167.112 150.778 169.014 147.101 170.063L145.592 170.423L144.052 170.663C143.542 170.743 143.027 170.793 142.512 170.813C142.009 170.844 141.505 170.844 141.002 170.813C138.868 170.81 136.745 170.518 134.691 169.943C132.584 169.361 130.556 168.525 128.652 167.454C126.673 166.346 124.82 165.029 123.127 163.524C121.348 161.935 119.73 160.176 118.295 158.275C118.295 157.945 118.084 157.645 117.993 157.315C117.903 156.985 117.782 156.685 117.661 156.355L117.39 155.395L117.118 154.405C115.97 149.982 115.552 145.403 115.88 140.847C116.175 136.626 117.196 132.487 118.899 128.609C120.474 125.018 122.753 121.776 125.603 119.07C128.36 116.45 131.718 114.536 135.386 113.491L136.895 113.131L138.435 112.861H139.945C140.458 112.831 140.972 112.831 141.485 112.861" fill="white"/>
            <path d="M141.575 136.258H142.843H143.477L144.111 136.408C143.834 136.78 143.601 137.182 143.417 137.608C143.033 138.487 142.848 139.439 142.873 140.397C142.885 140.894 142.955 141.387 143.085 141.867C143.261 142.557 143.546 143.216 143.93 143.817C144.312 144.385 144.781 144.892 145.319 145.317C145.847 145.72 146.439 146.035 147.07 146.247C147.696 146.489 148.362 146.611 149.033 146.606H149.818H150.241H150.633H151.147L151.63 146.396L152.083 146.127L152.536 145.857C152.807 147.294 152.807 148.769 152.536 150.206C152.266 151.588 151.766 152.917 151.056 154.136C150.317 155.291 149.376 156.307 148.278 157.135C147.126 157.997 145.827 158.648 144.443 159.055L143.719 159.205H142.994H142.27H141.575C140.349 159.208 139.133 158.994 137.982 158.575C136.888 158.173 135.867 157.596 134.962 156.865C133.984 156.108 133.137 155.196 132.456 154.166C131.762 153.082 131.242 151.898 130.916 150.656C130.529 149.158 130.436 147.599 130.644 146.067C130.831 144.6 131.303 143.184 132.033 141.897C133.487 139.285 135.916 137.346 138.797 136.498L139.522 136.318H140.246H140.971H141.696" fill="black"/>
            <path d="M149.033 134.038C149.701 134.04 150.365 134.151 150.996 134.368C151.629 134.589 152.221 134.914 152.747 135.328C153.286 135.753 153.754 136.259 154.136 136.828C154.524 137.42 154.819 138.067 155.012 138.748C155.16 139.407 155.221 140.082 155.193 140.757C155.17 141.405 155.038 142.044 154.8 142.647C154.596 143.254 154.29 143.822 153.894 144.327C153.504 144.835 153.047 145.289 152.536 145.677L152.083 145.947L151.63 146.217L151.147 146.427H150.633H150.241H149.818H149.033C148.362 146.432 147.696 146.309 147.07 146.067C146.439 145.855 145.847 145.541 145.319 145.137C144.781 144.712 144.312 144.206 143.93 143.637C143.546 143.036 143.261 142.378 143.085 141.687C142.955 141.207 142.884 140.714 142.873 140.217C142.848 139.259 143.033 138.307 143.417 137.428C143.601 137.003 143.834 136.6 144.111 136.228C144.307 135.947 144.53 135.686 144.776 135.448C145.009 135.197 145.273 134.975 145.561 134.788C145.834 134.58 146.128 134.399 146.436 134.248C146.758 134.102 147.091 133.981 147.433 133.888H147.825H148.248H149.033" fill="white"/>
            <path d="M273.738 94.6832C272.28 92.7631 270.631 90.9943 268.816 89.4038C267.078 87.8781 265.174 86.55 263.139 85.4444C261.237 84.3786 259.208 83.5523 257.1 82.9847C254.996 82.4074 252.821 82.1248 250.639 82.1448H249.099C248.572 82.1751 248.048 82.2352 247.528 82.3247L245.989 82.5947C245.459 82.6861 244.935 82.8063 244.418 82.9547C240.69 84.03 237.274 85.9736 234.454 88.624C231.548 91.3544 229.227 94.6396 227.63 98.2827C225.924 102.191 224.903 106.361 224.611 110.611C224.277 115.219 224.706 119.849 225.879 124.319L226.15 125.309C226.15 125.639 226.332 125.969 226.453 126.299C226.573 126.629 226.634 126.929 226.754 127.259C226.875 127.589 226.966 127.889 227.087 128.189C228.309 131.561 229.974 134.759 232.039 137.698C233.961 140.431 236.257 142.884 238.863 144.987C241.319 146.957 244.07 148.536 247.015 149.666C249.849 150.747 252.857 151.306 255.893 151.316H257.463H259.003C259.546 151.316 260.059 151.166 260.573 151.046L262.143 150.686C265.149 149.848 267.96 148.432 270.416 146.517C272.915 144.587 275.061 142.242 276.757 139.587C278.535 136.797 279.897 133.766 280.803 130.589C281.753 127.179 282.241 123.658 282.253 120.12C282.253 119.25 282.253 118.35 282.253 117.45C282.253 116.55 282.253 115.651 281.981 114.751C281.709 113.851 281.739 112.951 281.558 112.021C281.377 111.091 281.166 110.221 280.924 109.291C280.682 108.361 280.139 106.592 279.686 105.302C279.233 104.012 278.659 102.782 278.086 101.552C277.512 100.322 276.848 99.2126 276.183 98.1028C275.519 96.9929 274.764 95.913 273.979 94.8931M250.79 81.7248C252.176 81.7141 253.56 81.8246 254.926 82.0548C256.321 82.2673 257.695 82.5985 259.033 83.0447C260.407 83.5271 261.749 84.0983 263.049 84.7545C264.401 85.4537 265.702 86.2455 266.944 87.1241C268.698 88.3969 270.335 89.8224 271.835 91.3836C273.352 92.9931 274.725 94.7292 275.942 96.5729C277.197 98.4778 278.288 100.485 279.203 102.572C280.158 104.716 280.935 106.933 281.528 109.201C282.133 111.463 282.547 113.771 282.766 116.1C282.947 118.377 282.947 120.663 282.766 122.94C282.623 125.175 282.279 127.394 281.739 129.569C281.217 131.699 280.499 133.777 279.595 135.778C278.727 137.728 277.665 139.587 276.425 141.327C275.256 142.969 273.91 144.478 272.409 145.827C270.969 147.138 269.377 148.276 267.668 149.216C265.97 150.155 264.166 150.89 262.294 151.406L260.693 151.796L259.093 152.066L257.493 152.216H255.862C254.476 152.215 253.091 152.095 251.726 151.856C250.331 151.63 248.957 151.288 247.619 150.836C246.251 150.35 244.919 149.769 243.633 149.096C242.285 148.408 240.992 147.616 239.768 146.727C238.01 145.459 236.381 144.023 234.907 142.437C233.384 140.844 232.01 139.117 230.801 137.278C229.567 135.365 228.487 133.359 227.57 131.279C226.625 129.145 225.858 126.938 225.275 124.679C224.073 120.143 223.644 115.438 224.007 110.761C224.272 106.429 225.293 102.176 227.026 98.1927C228.655 94.468 231.028 91.1106 234.001 88.324C236.882 85.6254 240.371 83.6506 244.177 82.5647L245.777 82.1748C246.835 81.9661 247.903 81.8159 248.978 81.7248H250.578" fill="#FFCB04"/>
            <path d="M273.737 94.6833C274.522 95.7032 275.247 96.7831 275.941 97.8929C276.636 99.0028 277.24 100.143 277.844 101.343C278.448 102.542 278.961 103.802 279.444 105.092C279.927 106.382 280.32 107.732 280.682 109.081C281.044 110.431 281.135 110.911 281.316 111.811C281.497 112.711 281.648 113.641 281.739 114.541C281.83 115.441 281.95 116.341 282.011 117.24C282.071 118.14 282.011 119.04 282.011 119.91C281.999 123.448 281.511 126.969 280.561 130.379C279.656 133.556 278.293 136.587 276.515 139.378C274.819 142.033 272.674 144.377 270.174 146.307C267.718 148.222 264.907 149.638 261.901 150.476L260.331 150.836C259.817 150.836 259.304 151.016 258.761 151.106H257.221H255.651C252.615 151.096 249.607 150.537 246.773 149.456C243.828 148.326 241.077 146.747 238.621 144.777C236.015 142.675 233.719 140.221 231.797 137.488C229.732 134.549 228.067 131.351 226.845 127.979C228.293 129.907 229.931 131.685 231.736 133.288C233.477 134.797 235.369 136.124 237.383 137.248C239.292 138.308 241.318 139.143 243.422 139.738C245.527 140.31 247.7 140.602 249.883 140.607H251.423H252.993L254.564 140.338L256.104 139.978C259.854 138.928 263.293 136.994 266.128 134.338C269.113 131.646 271.516 128.381 273.194 124.739C274.913 120.814 275.935 116.623 276.213 112.351C276.546 107.724 276.118 103.073 274.945 98.5828L274.673 97.593C274.673 97.263 274.462 96.9331 274.371 96.6031C274.281 96.2731 274.16 95.9732 274.039 95.6432C273.919 95.3132 273.828 95.0133 273.707 94.6833" fill="white"/>
            <path d="M261.569 115.291C262.097 114.911 262.564 114.457 262.958 113.941C263.361 113.425 263.677 112.848 263.894 112.231C264.117 111.613 264.249 110.967 264.286 110.311C264.321 109.635 264.249 108.957 264.075 108.302C263.903 107.605 263.606 106.944 263.199 106.352C262.829 105.766 262.359 105.249 261.81 104.822C261.267 104.425 260.666 104.111 260.029 103.892C259.381 103.654 258.696 103.532 258.006 103.532H257.191H256.768H256.375C256.022 103.631 255.678 103.761 255.349 103.922L254.443 104.462C254.16 104.657 253.898 104.878 253.658 105.122C253.411 105.368 253.179 105.628 252.963 105.902H252.329H251.695H251.061H249.672H248.947H248.192L247.468 106.082C245.986 106.494 244.608 107.209 243.422 108.182C242.254 109.104 241.279 110.246 240.553 111.541C239.04 114.235 238.629 117.403 239.406 120.39C239.752 121.645 240.292 122.839 241.006 123.93C241.688 124.977 242.546 125.9 243.542 126.659C244.512 127.4 245.592 127.987 246.743 128.399C247.92 128.795 249.154 128.997 250.397 128.999H251.121C251.363 129.013 251.605 129.013 251.846 128.999H252.601C252.849 128.968 253.092 128.907 253.326 128.819C254.742 128.433 256.066 127.77 257.221 126.869C258.351 125.998 259.312 124.931 260.059 123.72C260.787 122.485 261.297 121.135 261.569 119.73C261.839 118.283 261.839 116.798 261.569 115.351M250.517 82.2049C252.7 82.1849 254.875 82.4675 256.979 83.0448C259.087 83.6124 261.116 84.4386 263.018 85.5045C265.053 86.6101 266.957 87.9382 268.695 89.4639C270.51 91.0544 272.159 92.8231 273.617 94.7432C273.617 95.0732 273.858 95.3732 273.949 95.7031C274.039 96.0331 274.19 96.333 274.281 96.663C274.371 96.993 274.492 97.3229 274.583 97.6529L274.854 98.6428C276.028 103.133 276.456 107.784 276.123 112.411C275.844 116.683 274.823 120.874 273.103 124.799C271.495 128.444 269.164 131.729 266.249 134.458C263.425 137.084 260.008 138.997 256.285 140.037L254.745 140.397L253.175 140.667H251.604H250.065C247.881 140.662 245.709 140.37 243.603 139.798C241.499 139.203 239.473 138.368 237.564 137.308C235.55 136.184 233.658 134.857 231.917 133.348C230.112 131.745 228.474 129.967 227.026 128.039C227.026 127.739 226.814 127.409 226.694 127.109C226.573 126.809 226.482 126.449 226.392 126.149C226.301 125.849 226.18 125.489 226.09 125.159L225.818 124.17C224.645 119.699 224.217 115.069 224.55 110.461C224.842 106.211 225.864 102.042 227.569 98.1328C229.166 94.4897 231.488 91.2045 234.393 88.4741C237.214 85.8237 240.63 83.8801 244.358 82.8048C244.874 82.6564 245.398 82.5362 245.928 82.4448L247.468 82.1749C247.987 82.0853 248.512 82.0252 249.038 81.9949H250.578" fill="white"/>
            <path d="M250.397 105.872H251.061H251.695H252.329H252.963C252.692 106.258 252.459 106.67 252.269 107.102C252.083 107.547 251.941 108.009 251.846 108.481C251.788 108.96 251.788 109.443 251.846 109.921C251.857 110.428 251.928 110.931 252.058 111.421C252.237 112.115 252.533 112.775 252.933 113.371C253.323 113.933 253.791 114.437 254.322 114.871C254.864 115.277 255.465 115.601 256.104 115.83C256.757 116.044 257.439 116.156 258.127 116.16H258.942H259.365H259.757L260.27 116.01L260.784 115.8L261.237 115.531L261.69 115.261C261.96 116.708 261.96 118.193 261.69 119.64C261.418 121.045 260.908 122.395 260.18 123.63C259.433 124.841 258.472 125.908 257.342 126.779C256.187 127.68 254.863 128.343 253.447 128.729C253.213 128.817 252.97 128.877 252.722 128.909H251.967C251.726 128.923 251.484 128.923 251.242 128.909H250.518C249.275 128.907 248.041 128.705 246.864 128.309C245.713 127.897 244.633 127.31 243.663 126.569C242.667 125.81 241.809 124.887 241.127 123.839C240.413 122.749 239.873 121.555 239.527 120.3C238.75 117.313 239.161 114.145 240.674 111.451C241.4 110.156 242.374 109.014 243.543 108.092C244.729 107.119 246.107 106.403 247.589 105.992L248.313 105.812H249.068H249.793H250.518" fill="black"/>
            <path d="M258.097 103.532C258.787 103.532 259.472 103.654 260.12 103.892C260.757 104.111 261.358 104.425 261.901 104.822C262.45 105.248 262.919 105.766 263.29 106.352C263.697 106.944 263.994 107.605 264.166 108.301C264.34 108.956 264.412 109.634 264.377 110.311C264.34 110.966 264.208 111.613 263.985 112.231C263.768 112.848 263.452 113.425 263.049 113.941C262.655 114.456 262.187 114.911 261.66 115.29L261.207 115.56L260.754 115.83L260.241 116.04L259.727 116.19H259.335H258.912H258.097C257.409 116.186 256.727 116.074 256.074 115.86C255.435 115.631 254.834 115.307 254.292 114.901C253.761 114.467 253.294 113.963 252.903 113.401C252.503 112.804 252.207 112.145 252.027 111.451C251.898 110.961 251.827 110.458 251.816 109.951C251.758 109.473 251.758 108.99 251.816 108.511C251.911 108.039 252.053 107.577 252.239 107.132C252.429 106.7 252.662 106.288 252.933 105.902C253.149 105.628 253.381 105.367 253.628 105.122C253.868 104.877 254.131 104.656 254.413 104.462L255.319 103.922C255.648 103.761 255.992 103.631 256.345 103.532H256.738H257.161H258.097Z" fill="white"/>
            <path d="M61.0151 193.521L62.7966 193.82L116.121 202.549L116.936 205.939L75.6596 237.825L73.5158 234.795L111.32 205.579L60.4414 197.24L61.0151 193.521Z" fill="black"/>
            <path d="M350.977 113.431L353.362 116.43L351.883 117.63L311.482 150.746L360.398 156.685L359.945 160.525L306.59 154.015L305.624 150.626L350.977 113.431Z" fill="black"/>
        </g>
    </g>
    <defs>
        <linearGradient id="paint0_linear_716_72" x1="412.031" y1="173.513" x2="314.089" y2="344.271" gradientUnits="userSpaceOnUse">
            <stop offset="0.2" stop-color="#FFCB04"/>
            <stop offset="0.8" stop-color="#FBA902"/>
            <stop offset="1" stop-color="#CE922A"/>
        </linearGradient>
        <linearGradient id="paint1_linear_716_72" x1="35.9235" y1="291.338" x2="348.501" y2="291.338" gradientUnits="userSpaceOnUse">
            <stop offset="0.8" stop-color="#FFCB04"/>
            <stop offset="1" stop-color="#FFB400"/>
        </linearGradient>
        <linearGradient id="paint2_linear_716_72" x1="325.673" y1="131.009" x2="6.04102" y2="452.758" gradientUnits="userSpaceOnUse">
            <stop offset="0.2" stop-color="#FFCB04" stop-opacity="0"/>
            <stop offset="0.5" stop-color="#FBA902" stop-opacity="0.8"/>
            <stop offset="0.7" stop-color="#CE922A"/>
        </linearGradient>
        <clipPath id="clip0_716_72">
            <rect width="454" height="337" fill="white" transform="matrix(-1 0 0 1 454 0)"/>
        </clipPath>
        <clipPath id="clip1_716_72">
            <rect width="428.778" height="537.457" fill="white" transform="translate(18.4316)"/>
        </clipPath>
    </defs>
</svg>
