<svg width="116" height="144" viewBox="0 0 116 144" fill="none" xmlns="http://www.w3.org/2000/svg">
    <path d="M114.709 57.7419C114.709 42.693 108.719 28.2605 98.057 17.6194C87.3947 6.97818 72.9333 1 57.8545 1C42.7758 1 28.3148 6.97818 17.6526 17.6194C6.99028 28.2605 1.00003 42.693 1.00003 57.7419C0.987126 71.3899 5.93681 84.5789 14.9297 94.8606L57.5705 142.949L100.211 94.8606C109.41 84.6616 114.565 71.4637 114.709 57.7419Z" fill="#FFC200" stroke="black" stroke-miterlimit="10"/>
    <path d="M57.948 84.0324C72.4967 84.0324 84.2906 72.2617 84.2906 57.7419C84.2906 43.2221 72.4967 31.4515 57.948 31.4515C43.3994 31.4515 31.6055 43.2221 31.6055 57.7419C31.6055 72.2617 43.3994 84.0324 57.948 84.0324Z" fill="#FFC200" stroke="black" stroke-miterlimit="10"/>
</svg>
