<svg width="492" height="203" viewBox="0 0 492 203" fill="none" xmlns="http://www.w3.org/2000/svg">
    <path d="M274.28 113.431V202.966H293.973V113.431H274.28Z" fill="white"/>
    <path d="M0.0625 113.421L0.0625 202.956H19.7556L19.7556 113.421H0.0625Z" fill="white"/>
    <path d="M118.191 113.421V172.876L66.6234 113.421H46.9303V202.956H66.6234V143.49L118.191 202.956H137.884V113.421H118.191Z" fill="white"/>
    <path d="M246.643 133.116V113.421H181.217C175.424 113.421 169.869 115.722 165.772 119.819C161.676 123.915 159.375 129.471 159.375 135.265V146.192C159.378 151.983 161.68 157.537 165.776 161.631C169.872 165.726 175.426 168.026 181.217 168.026H223.013C225.032 168.026 226.968 168.828 228.396 170.255C229.824 171.683 230.626 173.619 230.626 175.638C230.626 177.657 229.824 179.594 228.396 181.021C226.968 182.449 225.032 183.251 223.013 183.251H163.04V202.946H228.477C231.347 202.946 234.188 202.38 236.84 201.281C239.491 200.182 241.9 198.571 243.928 196.541C245.957 194.51 247.565 192.1 248.662 189.447C249.758 186.795 250.321 183.952 250.319 181.082V170.195C250.32 167.326 249.756 164.484 248.659 161.833C247.562 159.181 245.953 156.772 243.925 154.743C241.896 152.713 239.488 151.103 236.837 150.005C234.187 148.906 231.346 148.341 228.477 148.341H186.68C184.661 148.341 182.725 147.539 181.298 146.111C179.87 144.684 179.068 142.747 179.068 140.728C179.068 138.709 179.87 136.773 181.298 135.345C182.725 133.918 184.661 133.116 186.68 133.116H246.643Z" fill="white"/>
    <path d="M491.266 20.351V0.656372H417.605V90.1912H491.266V70.4965H437.298V55.2711H482.72V35.5765H437.298V20.351H491.266Z" fill="white"/>
    <path d="M315.464 0.656354V90.2012H368.015C375.473 90.2012 382.625 87.2385 387.898 81.9648C393.172 76.6911 396.134 69.5385 396.134 62.0803V28.7672C396.134 21.309 393.172 14.1564 387.898 8.88272C382.625 3.60903 375.473 0.646301 368.015 0.646301L315.464 0.656354ZM335.197 70.5065V20.3912H365.434C368.364 20.3912 371.174 21.5551 373.246 23.6269C375.317 25.6987 376.481 28.5087 376.481 31.4386V59.5595C376.481 62.4895 375.317 65.2994 373.246 67.3712C371.174 69.443 368.364 70.607 365.434 70.607L335.197 70.5065Z" fill="white"/>
    <path d="M491.266 133.116V113.421H417.605V202.956H491.266V183.261H437.298V168.036H482.72V148.341H437.298V133.116H491.266Z" fill="white"/>
    <path d="M315.464 113.421V202.966H368.015C375.473 202.966 382.625 200.003 387.898 194.729C393.172 189.456 396.134 182.303 396.134 174.845V141.532C396.134 134.074 393.172 126.921 387.898 121.647C382.625 116.374 375.473 113.411 368.015 113.411L315.464 113.421ZM335.197 183.271V133.116H365.434C368.364 133.116 371.174 134.28 373.246 136.351C375.317 138.423 376.481 141.233 376.481 144.163V172.284C376.481 175.214 375.317 178.024 373.246 180.096C371.174 182.168 368.364 183.331 365.434 183.331L335.197 183.271Z" fill="white"/>
    <path d="M82.7716 0.656372H21.2318C9.54034 0.656372 0.0625 10.1349 0.0625 21.8274V69.0202C0.0625 80.7126 9.54034 90.1912 21.2318 90.1912H82.7716C94.4631 90.1912 103.941 80.7126 103.941 69.0202V21.8274C103.941 10.1349 94.4631 0.656372 82.7716 0.656372Z" fill="#FFC200"/>
    <path d="M23.2202 39.7845H7.32315V51.073H23.2202V39.7845Z" fill="black"/>
    <path d="M62.7973 13.7325H46.9002V25.0211H62.7973V13.7325Z" fill="black"/>
    <path d="M62.7973 65.8265H46.9002V77.115H62.7973V65.8265Z" fill="black"/>
    <path d="M79.558 26.0656H63.6609V37.3541H79.558V26.0656Z" fill="black"/>
    <path d="M79.558 53.152H63.6609V64.4405H79.558V53.152Z" fill="black"/>
    <path d="M96.6702 39.7845H80.7731V51.073H96.6702V39.7845Z" fill="black"/>
    <path d="M62.7973 39.7845H28.7536V51.073H62.7973V39.7845Z" fill="black"/>
    <path d="M265.904 0.656372H233.97C226.512 0.656372 219.36 3.61909 214.087 8.89278C208.814 14.1665 205.851 21.3191 205.851 28.7772V62.1005C205.851 69.5586 208.814 76.7112 214.087 81.9849C219.36 87.2586 226.512 90.2213 233.97 90.2213H265.904C273.362 90.2213 280.514 87.2586 285.787 81.9849C291.061 76.7112 294.023 69.5586 294.023 62.1005V28.7672C294.02 21.3108 291.057 14.1607 285.784 8.88922C280.511 3.61771 273.36 0.656372 265.904 0.656372ZM274.32 59.0775C274.317 62.1078 273.112 65.0134 270.97 67.1562C268.827 69.299 265.922 70.5039 262.892 70.5066H236.982C233.951 70.5066 231.045 69.3024 228.901 67.1591C226.758 65.0157 225.554 62.1087 225.554 59.0775V31.7801C225.565 28.7611 226.769 25.8689 228.905 23.7351C231.041 21.6013 233.934 20.3991 236.952 20.3912H262.892C265.922 20.3938 268.827 21.5988 270.97 23.7416C273.112 25.8844 274.317 28.7899 274.32 31.8203V59.0775Z" fill="white"/>
    <path d="M148.188 20.3912H187.574V0.656372H146.3C138.842 0.656372 131.69 3.61909 126.417 8.89278C121.144 14.1665 118.181 21.3191 118.181 28.7772V62.1005C118.181 69.5586 121.144 76.7112 126.417 81.9849C131.69 87.2586 138.842 90.2213 146.3 90.2213H187.574V70.5066H148.208C145.475 70.5066 142.854 69.421 140.922 67.4885C138.99 65.5561 137.904 62.9352 137.904 60.2023V30.6553C137.915 27.9329 139.002 25.3253 140.929 23.4021C142.856 21.4789 145.465 20.3965 148.188 20.3912Z" fill="white"/>
</svg>
