<svg width="495" height="275" viewBox="0 0 495 275" fill="none" xmlns="http://www.w3.org/2000/svg">
    <path d="M277.218 112.785V202.32H296.911V112.785H277.218Z" fill="white"/>
    <path d="M3 112.775L3 202.31H22.6931L22.6931 112.775H3Z" fill="white"/>
    <path d="M121.129 112.775V172.23L69.5613 112.775H49.8682V202.309H69.5613V142.844L121.129 202.309H140.822V112.775H121.129Z" fill="white"/>
    <path d="M249.581 132.469V112.775H184.155C178.362 112.775 172.806 115.076 168.71 119.173C164.614 123.269 162.312 128.825 162.312 134.619V145.546C162.315 151.337 164.618 156.891 168.713 160.985C172.809 165.079 178.364 167.379 184.155 167.379H225.951C227.97 167.379 229.906 168.181 231.334 169.609C232.761 171.037 233.563 172.973 233.563 174.992C233.563 177.011 232.761 178.947 231.334 180.375C229.906 181.803 227.97 182.605 225.951 182.605H165.978V202.299H231.414C234.284 202.299 237.126 201.734 239.777 200.635C242.429 199.536 244.838 197.925 246.866 195.894C248.895 193.864 250.503 191.453 251.6 188.801C252.696 186.148 253.259 183.306 253.256 180.435V169.549C253.258 166.679 252.694 163.838 251.597 161.186C250.5 158.535 248.891 156.126 246.862 154.096C244.834 152.067 242.426 150.457 239.775 149.358C237.124 148.26 234.283 147.695 231.414 147.695H189.618C187.599 147.695 185.663 146.893 184.235 145.465C182.808 144.037 182.006 142.101 182.006 140.082C182.006 138.063 182.808 136.127 184.235 134.699C185.663 133.271 187.599 132.469 189.618 132.469H249.581Z" fill="white"/>
    <path d="M494.203 19.7047V0.0100403H420.542V89.5448H494.203V69.8502H440.235V54.6248H485.657V34.9301H440.235V19.7047H494.203Z" fill="white"/>
    <path d="M318.401 0.010053V89.5549H370.953C378.411 89.5549 385.563 86.5922 390.836 81.3185C396.109 76.0448 399.072 68.8922 399.072 61.434V28.1209C399.072 20.6627 396.109 13.5101 390.836 8.23642C385.563 2.96273 378.411 0 370.953 0L318.401 0.010053ZM338.135 69.8602V19.7449H368.372C371.302 19.7449 374.112 20.9088 376.183 22.9806C378.255 25.0524 379.419 27.8624 379.419 30.7923V58.9132C379.419 61.8432 378.255 64.6531 376.183 66.7249C374.112 68.7967 371.302 69.9607 368.372 69.9607L338.135 69.8602Z" fill="white"/>
    <path d="M494.203 132.469V112.775H420.542V202.309H494.203V182.615H440.235V167.389H485.657V147.695H440.235V132.469H494.203Z" fill="white"/>
    <path d="M318.401 112.775V202.32H370.953C378.411 202.32 385.563 199.357 390.836 194.083C396.109 188.809 399.072 181.657 399.072 174.199V140.885C399.072 133.427 396.109 126.275 390.836 121.001C385.563 115.727 378.411 112.765 370.953 112.765L318.401 112.775ZM338.135 182.625V132.469H368.372C371.302 132.469 374.112 133.633 376.183 135.705C378.255 137.777 379.419 140.587 379.419 143.517V171.638C379.419 174.568 378.255 177.378 376.183 179.449C374.112 181.521 371.302 182.685 368.372 182.685L338.135 182.625Z" fill="white"/>
    <path d="M85.7091 0.0100403H24.1693C12.4778 0.0100403 3 9.48862 3 21.181V68.3739C3 80.0663 12.4778 89.5448 24.1693 89.5448H85.7091C97.4006 89.5448 106.878 80.0663 106.878 68.3739V21.181C106.878 9.48862 97.4006 0.0100403 85.7091 0.0100403Z" fill="#FFC200"/>
    <path d="M26.1578 39.1382H10.2607V50.4267H26.1578V39.1382Z" fill="black"/>
    <path d="M65.735 13.0862H49.8379V24.3748H65.735V13.0862Z" fill="black"/>
    <path d="M65.735 65.1802H49.8379V76.4687H65.735V65.1802Z" fill="black"/>
    <path d="M82.4957 25.4193H66.5986V36.7078H82.4957V25.4193Z" fill="black"/>
    <path d="M82.4957 52.5057H66.5986V63.7942H82.4957V52.5057Z" fill="black"/>
    <path d="M99.608 39.1382H83.7109V50.4267H99.608V39.1382Z" fill="black"/>
    <path d="M65.7351 39.1382H31.6914V50.4267H65.7351V39.1382Z" fill="black"/>
    <path d="M268.842 0.0100403H236.908C229.45 0.0100403 222.298 2.97276 217.025 8.24645C211.752 13.5201 208.789 20.6728 208.789 28.1309V61.4541C208.789 68.9122 211.752 76.0649 217.025 81.3386C222.298 86.6123 229.45 89.575 236.908 89.575H268.842C276.3 89.575 283.452 86.6123 288.725 81.3386C293.999 76.0649 296.961 68.9122 296.961 61.4541V28.1209C296.958 20.6645 293.995 13.5144 288.722 8.24289C283.449 2.97138 276.298 0.0100398 268.842 0.0100403ZM277.258 58.4311C277.255 61.4615 276.05 64.367 273.908 66.5098C271.765 68.6526 268.86 69.8576 265.83 69.8603H239.92C236.889 69.8603 233.983 68.6561 231.839 66.5127C229.696 64.3694 228.492 61.4623 228.492 58.4311V31.1338C228.503 28.1148 229.707 25.2226 231.843 23.0888C233.978 20.9549 236.871 19.7528 239.89 19.7449H265.83C268.86 19.7475 271.765 20.9525 273.908 23.0953C276.05 25.2381 277.255 28.1436 277.258 31.174V58.4311Z" fill="white"/>
    <path d="M151.125 19.7449H190.511V0.0100403H149.237C141.779 0.0100403 134.627 2.97276 129.354 8.24645C124.081 13.5201 121.118 20.6728 121.118 28.1309V61.4541C121.118 68.9122 124.081 76.0649 129.354 81.3386C134.627 86.6123 141.779 89.575 149.237 89.575H190.511V69.8603H151.145C148.412 69.8603 145.792 68.7746 143.859 66.8422C141.927 64.9098 140.841 62.2889 140.841 59.556V30.009C140.852 27.2866 141.939 24.6789 143.866 22.7558C145.793 20.8326 148.403 19.7501 151.125 19.7449Z" fill="white"/>
    <path d="M4.606 228.7H10.976V263H4.606V228.7ZM53.1815 228.7V263H47.9385L29.0245 239.774V263H22.7035V228.7H27.9465L46.8605 251.926V228.7H53.1815ZM95.6124 250.897V263H89.2424V250.995L75.7674 228.7H82.5784L92.6234 245.409L102.766 228.7H109.038L95.6124 250.897ZM130.2 263.49C126.704 263.49 123.552 262.739 120.743 261.236C117.933 259.701 115.728 257.594 114.128 254.915C112.527 252.204 111.727 249.182 111.727 245.85C111.727 242.518 112.527 239.513 114.128 236.834C115.728 234.123 117.933 232.016 120.743 230.513C123.552 228.978 126.704 228.21 130.2 228.21C133.695 228.21 136.847 228.978 139.657 230.513C142.466 232.016 144.671 234.106 146.272 236.785C147.872 239.464 148.673 242.485 148.673 245.85C148.673 249.215 147.872 252.236 146.272 254.915C144.671 257.594 142.466 259.701 139.657 261.236C136.847 262.739 133.695 263.49 130.2 263.49ZM130.2 257.904C132.486 257.904 134.544 257.398 136.374 256.385C138.203 255.34 139.64 253.902 140.686 252.073C141.731 250.211 142.254 248.137 142.254 245.85C142.254 243.563 141.731 241.505 140.686 239.676C139.64 237.814 138.203 236.377 136.374 235.364C134.544 234.319 132.486 233.796 130.2 233.796C127.913 233.796 125.855 234.319 124.026 235.364C122.196 236.377 120.759 237.814 119.714 239.676C118.668 241.505 118.146 243.563 118.146 245.85C118.146 248.137 118.668 250.211 119.714 252.073C120.759 253.902 122.196 255.34 124.026 256.385C125.855 257.398 127.913 257.904 130.2 257.904ZM172.624 263.49C167.887 263.49 164.196 262.167 161.55 259.521C158.904 256.842 157.581 253.02 157.581 248.055V228.7H163.951V247.81C163.951 254.539 166.858 257.904 172.673 257.904C178.455 257.904 181.346 254.539 181.346 247.81V228.7H187.618V248.055C187.618 253.02 186.295 256.842 183.649 259.521C181.035 262.167 177.36 263.49 172.624 263.49Z" fill="#FFC200"/>
    <path d="M265.108 228.7L253.74 263H246.978L238.501 237.618L229.877 263H223.066L211.698 228.7H218.313L226.839 254.768L235.708 228.7H241.588L250.261 254.915L259.032 228.7H265.108ZM298.472 257.659V263H272.747V228.7H297.786V234.041H279.117V242.959H295.679V248.202H279.117V257.659H298.472ZM330.973 234.09H319.605V228.7H348.711V234.09H337.343V263H330.973V234.09ZM378.384 263L371.377 252.955C371.083 252.988 370.642 253.004 370.054 253.004H362.312V263H355.942V228.7H370.054C373.026 228.7 375.607 229.19 377.796 230.17C380.017 231.15 381.716 232.555 382.892 234.384C384.068 236.213 384.656 238.386 384.656 240.901C384.656 243.482 384.019 245.703 382.745 247.565C381.503 249.427 379.707 250.815 377.355 251.73L385.244 263H378.384ZM378.237 240.901C378.237 238.712 377.518 237.03 376.081 235.854C374.643 234.678 372.536 234.09 369.76 234.09H362.312V247.761H369.76C372.536 247.761 374.643 247.173 376.081 245.997C377.518 244.788 378.237 243.09 378.237 240.901ZM408.982 263.49C404.245 263.49 400.554 262.167 397.908 259.521C395.262 256.842 393.939 253.02 393.939 248.055V228.7H400.309V247.81C400.309 254.539 403.216 257.904 409.031 257.904C414.813 257.904 417.704 254.539 417.704 247.81V228.7H423.976V248.055C423.976 253.02 422.653 256.842 420.007 259.521C417.393 262.167 413.718 263.49 408.982 263.49ZM445.98 263.49C443.334 263.49 440.769 263.114 438.287 262.363C435.837 261.612 433.893 260.615 432.456 259.374L434.661 254.425C436.065 255.536 437.78 256.45 439.806 257.169C441.864 257.855 443.922 258.198 445.98 258.198C448.528 258.198 450.422 257.79 451.664 256.973C452.938 256.156 453.575 255.078 453.575 253.739C453.575 252.759 453.215 251.959 452.497 251.338C451.811 250.685 450.929 250.178 449.851 249.819C448.773 249.46 447.303 249.051 445.441 248.594C442.827 247.973 440.704 247.353 439.071 246.732C437.47 246.111 436.082 245.148 434.906 243.841C433.762 242.502 433.191 240.705 433.191 238.451C433.191 236.556 433.697 234.841 434.71 233.306C435.755 231.738 437.307 230.497 439.365 229.582C441.455 228.667 444.003 228.21 447.009 228.21C449.099 228.21 451.157 228.471 453.183 228.994C455.208 229.517 456.956 230.268 458.426 231.248L456.417 236.197C454.914 235.315 453.346 234.645 451.713 234.188C450.079 233.731 448.495 233.502 446.96 233.502C444.444 233.502 442.566 233.927 441.325 234.776C440.116 235.625 439.512 236.752 439.512 238.157C439.512 239.137 439.855 239.937 440.541 240.558C441.259 241.179 442.158 241.669 443.236 242.028C444.314 242.387 445.784 242.796 447.646 243.253C450.194 243.841 452.284 244.462 453.918 245.115C455.551 245.736 456.939 246.699 458.083 248.006C459.259 249.313 459.847 251.077 459.847 253.298C459.847 255.193 459.324 256.908 458.279 258.443C457.266 259.978 455.714 261.203 453.624 262.118C451.533 263.033 448.985 263.49 445.98 263.49ZM475.093 234.09H463.725V228.7H492.831V234.09H481.463V263H475.093V234.09Z" fill="white"/>
</svg>
