<svg width="305" height="126" viewBox="0 0 305 126" fill="none" xmlns="http://www.w3.org/2000/svg">
    <path d="M170.154 69.9842V125.542H182.374V69.9842H170.154Z" fill="black"/>
    <path d="M0 69.978L0 125.535H12.2198L12.2198 69.978H0Z" fill="black"/>
    <path d="M73.3001 69.9779V106.871L41.3018 69.9779H29.082V125.535H41.3018V88.6362L73.3001 125.535H85.5199V69.9779H73.3001Z" fill="black"/>
    <path d="M153.006 82.1986V69.9779H112.409C108.814 69.9779 105.367 71.4059 102.825 73.9479C100.283 76.4898 98.8555 79.9374 98.8555 83.5323V90.3126C98.8571 93.9063 100.286 97.3523 102.827 99.8929C105.369 102.434 108.815 103.861 112.409 103.861H138.344C139.597 103.861 140.798 104.358 141.684 105.244C142.57 106.13 143.067 107.332 143.067 108.584C143.067 109.837 142.57 111.039 141.684 111.925C140.798 112.811 139.597 113.308 138.344 113.308H101.13V125.529H141.734C143.515 125.529 145.278 125.178 146.923 124.496C148.568 123.814 150.063 122.815 151.322 121.555C152.581 120.295 153.579 118.799 154.259 117.153C154.939 115.507 155.289 113.743 155.287 111.962V105.207C155.288 103.426 154.938 101.663 154.257 100.018C153.576 98.3726 152.578 96.8777 151.32 95.6184C150.061 94.3591 148.567 93.3601 146.922 92.6786C145.277 91.997 143.514 91.6462 141.734 91.6462H115.799C114.546 91.6462 113.345 91.1485 112.459 90.2626C111.573 89.3768 111.075 88.1752 111.075 86.9224C111.075 85.6696 111.573 84.4681 112.459 83.5822C113.345 82.6963 114.546 82.1986 115.799 82.1986H153.006Z" fill="black"/>
    <path d="M304.797 12.227V0.00622559H259.09V55.5635H304.797V43.3428H271.31V33.8953H299.494V21.6745H271.31V12.227H304.797Z" fill="black"/>
    <path d="M195.709 0.00623798V55.5698H228.318C232.945 55.5698 237.383 53.7314 240.655 50.459C243.928 47.1866 245.766 42.7483 245.766 38.1205V17.4493C245.766 12.8215 243.928 8.38316 240.655 5.11079C237.383 1.83841 232.945 0 228.318 0L195.709 0.00623798ZM207.954 43.349V12.2519H226.716C228.534 12.2519 230.278 12.9741 231.563 14.2597C232.849 15.5453 233.571 17.2889 233.571 19.107V36.5563C233.571 38.3744 232.849 40.118 231.563 41.4035C230.278 42.6891 228.534 43.4114 226.716 43.4114L207.954 43.349Z" fill="black"/>
    <path d="M304.797 82.1986V69.9779H259.09V125.535H304.797V113.314H271.31V103.867H299.494V91.6462H271.31V82.1986H304.797Z" fill="black"/>
    <path d="M195.709 69.9779V125.541H228.318C232.945 125.541 237.383 123.703 240.655 120.431C243.928 117.158 245.766 112.72 245.766 108.092V87.421C245.766 82.7931 243.928 78.3548 240.655 75.0825C237.383 71.8101 232.945 69.9717 228.318 69.9717L195.709 69.9779ZM207.954 113.321V82.1986H226.716C228.534 82.1986 230.278 82.9209 231.563 84.2065C232.849 85.492 233.571 87.2356 233.571 89.0537V106.503C233.571 108.321 232.849 110.065 231.563 111.35C230.278 112.636 228.534 113.358 226.716 113.358L207.954 113.321Z" fill="black"/>
    <path d="M51.3219 0.00622559H13.1358C5.8811 0.00622559 0 5.88778 0 13.1431V42.4267C0 49.682 5.8811 55.5635 13.1358 55.5635H51.3219C58.5766 55.5635 64.4577 49.682 64.4577 42.4267V13.1431C64.4577 5.88778 58.5766 0.00622559 51.3219 0.00622559Z" fill="#FFC200"/>
    <path d="M14.3682 24.2856H4.50391V31.2903H14.3682V24.2856Z" fill="black"/>
    <path d="M38.9268 8.12024H29.0625V15.1249H38.9268V8.12024Z" fill="black"/>
    <path d="M38.9268 40.4451H29.0625V47.4497H38.9268V40.4451Z" fill="black"/>
    <path d="M49.3272 15.7728H39.4629V22.7775H49.3272V15.7728Z" fill="black"/>
    <path d="M49.3272 32.5803H39.4629V39.585H49.3272V32.5803Z" fill="black"/>
    <path d="M59.9464 24.2856H50.082V31.2903H59.9464V24.2856Z" fill="black"/>
    <path d="M38.9272 24.2856H17.8027V31.2903H38.9272V24.2856Z" fill="black"/>
    <path d="M164.959 0.00622559H145.143C140.516 0.00622559 136.078 1.84463 132.806 5.117C129.534 8.38938 127.695 12.8277 127.695 17.4555V38.1329C127.695 42.7608 129.534 47.1991 132.806 50.4715C136.078 53.7438 140.516 55.5823 145.143 55.5823H164.959C169.587 55.5823 174.025 53.7438 177.297 50.4715C180.569 47.1991 182.407 42.7608 182.407 38.1329V17.4493C182.405 12.8225 180.566 8.38583 177.294 5.1148C174.023 1.84377 169.585 0.00622529 164.959 0.00622559ZM170.181 36.2571C170.179 38.1375 169.432 39.9404 168.102 41.2701C166.773 42.5997 164.97 43.3474 163.09 43.349H147.013C145.132 43.349 143.328 42.6019 141.998 41.2719C140.668 39.9419 139.921 38.138 139.921 36.2571V19.3189C139.928 17.4455 140.675 15.6509 142 14.3268C143.326 13.0028 145.121 12.2568 146.994 12.2519H163.09C164.97 12.2535 166.773 13.0013 168.102 14.3309C169.432 15.6605 170.179 17.4634 170.181 19.3438V36.2571Z" fill="black"/>
    <path d="M91.9144 12.2519H116.354V0.00622559H90.7429C86.1154 0.00622559 81.6774 1.84463 78.4053 5.117C75.1332 8.38938 73.2949 12.8277 73.2949 17.4555V38.1329C73.2949 42.7608 75.1332 47.1991 78.4053 50.4715C81.6774 53.7438 86.1154 55.5823 90.7429 55.5823H116.354V43.349H91.9268C90.2312 43.349 88.605 42.6754 87.406 41.4763C86.207 40.2772 85.5334 38.6509 85.5334 36.9551V18.6209C85.54 16.9316 86.2148 15.3135 87.4104 14.1202C88.606 12.9268 90.2252 12.2552 91.9144 12.2519Z" fill="black"/>
</svg>
