<svg width="102" height="127" viewBox="0 0 102 127" fill="none" xmlns="http://www.w3.org/2000/svg">
    <path d="M101.869 50.7459C101.869 37.2873 96.5122 24.3799 86.9767 14.8632C77.4411 5.34646 64.5077 0 51.0224 0C37.537 0 24.6042 5.34646 15.0686 14.8632C5.53306 24.3799 0.175804 37.2873 0.175804 50.7459C0.164267 62.9517 4.59091 74.747 12.6335 83.9423L50.7684 126.949L88.9034 83.9423C97.1303 74.821 101.74 63.0177 101.869 50.7459Z" fill="black"/>
    <path d="M51.1077 74.2582C64.119 74.2582 74.6667 63.7314 74.6667 50.7459C74.6667 37.7605 64.119 27.2336 51.1077 27.2336C38.0965 27.2336 27.5488 37.7605 27.5488 50.7459C27.5488 63.7314 38.0965 74.2582 51.1077 74.2582Z" fill="#FFC200"/>
</svg>
