<svg width="144" height="143" viewBox="0 0 144 143" fill="none" xmlns="http://www.w3.org/2000/svg">
    <path d="M84.6511 9.99715C84.0156 9.43132 83.5475 8.70199 83.2977 7.88855C83.0578 7.04954 83.0399 6.1626 83.2456 5.31457C83.4514 4.46654 83.8739 3.68647 84.4717 3.05073C85.0627 2.44113 85.8104 2.00645 86.6326 1.79454C87.5027 1.56645 88.4169 1.56645 89.287 1.79454C89.9932 1.95265 90.6597 2.25286 91.2461 2.67687C91.7865 3.06929 92.2292 3.58103 92.5397 4.17233L91.1938 4.92006C90.9707 4.50115 90.6592 4.13573 90.2809 3.84911C89.9026 3.56249 89.4665 3.36151 89.0029 3.26009C88.4171 3.10644 87.8016 3.10644 87.2158 3.26009C86.6652 3.40428 86.1672 3.70259 85.7802 4.11999C85.3741 4.56004 85.0905 5.09888 84.9577 5.68275C84.8003 6.26044 84.8003 6.8697 84.9577 7.44739C85.1147 7.99525 85.4231 8.48767 85.8475 8.86808C86.2968 9.27333 86.8426 9.55653 87.4327 9.69058C87.8943 9.80915 88.3763 9.82576 88.845 9.73924C89.3137 9.65273 89.758 9.46516 90.1469 9.1896L90.9919 10.5056C90.4418 10.8934 89.8099 11.1492 89.145 11.2533C88.4251 11.3665 87.6896 11.3309 86.984 11.1487C86.1219 10.9673 85.3194 10.5712 84.6511 9.99715Z" fill="white"/>
    <path d="M98.3719 10.8047L96.7718 10.057L95.1641 13.691L93.5864 12.9881L97.3998 4.37424L98.9776 5.0771L97.3774 8.71855L99.0299 9.46628L103.098 6.95391L104.795 7.70164L100.009 10.5729L101.094 16.3678L99.2841 15.5678L98.3719 10.8047Z" fill="white"/>
    <path d="M109.67 19.3438L105.774 16.7043L103.778 17.9829L102.282 16.9735L111.076 11.5524L112.504 12.5245L110.732 22.7086L109.236 21.6767L109.67 19.3438ZM109.961 17.8857L110.806 13.4816L107.03 15.8967L109.961 17.8857Z" fill="white"/>
    <path d="M124.251 22.6188L117.678 29.3484L116.43 28.1595L118.912 25.6172C118.113 25.2799 117.381 24.8012 116.751 24.204C115.991 23.5511 115.498 22.6405 115.368 21.6468C115.353 21.1841 115.438 20.7237 115.619 20.2976C115.8 19.8714 116.071 19.4898 116.415 19.1793L118.508 17.0258L119.75 18.2371L117.791 20.256C117.581 20.4436 117.414 20.6744 117.302 20.9325C117.189 21.1907 117.134 21.47 117.14 21.7515C117.218 22.335 117.512 22.8683 117.963 23.2469C118.531 23.809 119.214 24.2403 119.966 24.5106L123.01 21.3851L124.251 22.6188Z" fill="white"/>
    <path d="M125.723 36.3846L123.016 32.5263L120.698 33.0123L119.666 31.5168L129.813 29.5802L130.8 30.9934L125.521 39.8839L124.474 38.3885L125.723 36.3846ZM126.515 35.1209L128.863 31.3L124.481 32.2197L126.515 35.1209Z" fill="white"/>
    <path d="M136.708 44.8564L135.369 42.0374L128.191 45.4396L127.443 43.8768L134.614 40.4672L133.283 37.6557L134.622 37.0201L138.039 44.2208L136.708 44.8564Z" fill="white"/>
    <path d="M137.694 56.319C137.509 56.6984 137.239 57.0303 136.906 57.2895C136.573 57.5487 136.185 57.7283 135.772 57.8145C135.347 57.9584 134.895 58.0049 134.45 57.9505C134.005 57.8961 133.577 57.7423 133.2 57.5004C132.408 56.8824 131.858 56.0068 131.644 55.0254L130.553 51.1298L139.623 48.5875L140.094 50.24L137.021 51.1073L137.723 53.6197C138.033 54.4947 138.022 55.4511 137.694 56.319ZM133.798 55.9601C134.019 56.098 134.268 56.1844 134.527 56.2129C134.786 56.2414 135.048 56.2112 135.293 56.1246C136.355 55.8255 136.729 54.9806 136.355 53.5823L135.749 51.4214L132.332 52.3785L132.938 54.5394C133.043 55.1017 133.348 55.6066 133.798 55.9601Z" fill="white"/>
    <path d="M133.095 81.2485L139.309 81.884L134.494 78.2575L134.568 77.5098L139.952 74.9526L133.821 74.317L133.993 72.672L143.362 73.644L143.212 75.0797L136.632 78.1454L142.449 82.4523L142.3 83.873L132.923 82.9234L133.095 81.2485Z" fill="#575757"/>
    <path d="M131.189 94.0272L129.791 93.5935L131.907 86.8639L140.88 89.6828L138.839 96.2031L137.44 95.7619L138.973 90.8717L136.64 90.124L135.272 94.4608L133.904 94.0346L135.264 89.6903L132.782 88.9426L131.189 94.0272Z" fill="#575757"/>
    <path d="M125.41 105.692L122.337 104.047L123.085 102.626L124.857 103.568L128.259 97.19L126.487 96.2479L127.235 94.8123L130.308 96.4573L130.113 96.8162C129.859 97.3545 130.054 97.9228 130.689 98.536C131.606 99.342 132.609 100.044 133.68 100.63L136.267 102.125L133.022 108.219L126.016 104.48L125.41 105.692ZM130.3 100.211C129.77 99.833 129.356 99.3152 129.104 98.7154L126.861 102.933L132.558 105.968L134.293 102.716L132.857 101.871C131.966 101.379 131.112 100.825 130.3 100.211Z" fill="#575757"/>
    <path d="M129.552 113.528L128.46 114.851L123.301 110.597L125.237 118.755L124.198 120.011L116.938 114.029L118.029 112.698L123.181 116.953L121.252 108.795L122.291 107.546L129.552 113.528Z" fill="#575757"/>
    <path d="M110.551 122.531L114.2 119.54L113.542 117.259L114.933 116.123L117.617 126.112L116.286 127.204L107.029 122.605L108.443 121.446L110.551 122.531ZM111.867 123.226L115.853 125.29L114.611 120.983L111.867 123.226Z" fill="#575757"/>
    <path d="M103.403 129.245L104.944 128.4L103.037 124.916L104.533 124.093L109.019 132.363L107.523 133.186L105.699 129.724L104.084 130.599L103.598 135.354L101.96 136.237L102.596 130.696L97.3618 128.034L99.0965 127.084L103.403 129.245Z" fill="#575757"/>
    <path d="M97.7427 138.024L96.1052 138.555L94.0415 132.191L91.2898 140.117L89.742 140.618L86.8408 131.645L88.4784 131.115L90.5346 137.47L93.2937 129.559L94.8415 129.058L97.7427 138.024Z" fill="#575757"/>
    <path d="M77.0684 141.216L80.164 140.805L79.1171 132.932L80.8369 132.7L81.8837 140.573L84.9644 140.162L85.1663 141.658L77.2852 142.682L77.0684 141.216Z" fill="#575757"/>
    <path d="M60.4395 132.842C61.0901 133.386 61.5767 134.101 61.8453 134.906C62.1091 135.738 62.1527 136.625 61.9719 137.479C61.791 138.334 61.3919 139.127 60.8134 139.781C60.2368 140.406 59.4997 140.861 58.6824 141.097C57.8209 141.346 56.9107 141.374 56.0354 141.179C55.3234 141.035 54.6473 140.75 54.0464 140.342C53.4904 139.954 53.0322 139.442 52.708 138.846L54.039 138.046C54.2757 138.458 54.5987 138.815 54.9859 139.091C55.373 139.367 55.8152 139.557 56.2822 139.646C56.8734 139.777 57.4881 139.756 58.0692 139.586C58.6146 139.421 59.1037 139.108 59.4824 138.682C59.8677 138.229 60.1257 137.682 60.2302 137.096C60.3665 136.515 60.3432 135.908 60.1629 135.339C59.9936 134.794 59.6718 134.309 59.2357 133.941C58.7733 133.557 58.2195 133.3 57.6281 133.193C57.1633 133.089 56.6813 133.086 56.2153 133.185C55.7493 133.285 55.3104 133.484 54.9288 133.769L54.0464 132.483C54.5849 132.072 55.2124 131.792 55.8784 131.668C56.5922 131.541 57.3239 131.557 58.0318 131.713C58.9182 131.876 59.7476 132.264 60.4395 132.842Z" fill="white"/>
    <path d="M46.6659 132.431L48.2885 133.096L49.784 129.417L51.3767 130.075L47.81 138.824L46.2173 138.173L47.7128 134.524L46.0453 133.836L42.045 136.461L40.3252 135.713L45.0359 132.722L43.7947 126.965L45.6266 127.712L46.6659 132.431Z" fill="white"/>
    <path d="M35.1668 124.213L39.1372 126.748L41.0888 125.409L42.5843 126.381L33.933 132.034L32.4824 131.107L33.9779 120.878L35.5257 121.865L35.1668 124.213ZM34.9125 125.708L34.1648 130.135L37.8661 127.615L34.9125 125.708Z" fill="white"/>
    <path d="M20.4956 121.334L26.8812 114.41L28.1598 115.584L25.7522 118.201C26.5581 118.518 27.3022 118.973 27.9505 119.547C28.7407 120.177 29.2684 121.077 29.431 122.075C29.4606 122.536 29.3882 122.998 29.2189 123.429C29.0496 123.859 28.7876 124.247 28.4515 124.564L26.4176 126.77L25.139 125.596L27.0532 123.525C27.2553 123.334 27.414 123.101 27.5185 122.843C27.623 122.585 27.6709 122.308 27.6589 122.03C27.5688 121.441 27.2621 120.908 26.799 120.534C26.2139 119.99 25.5174 119.579 24.7577 119.33L21.7667 122.531L20.4956 121.334Z" fill="white"/>
    <path d="M18.657 107.658L21.461 111.442L23.764 110.888L24.8408 112.339L14.7464 114.545L13.7295 113.162L18.7617 104.129L19.8534 105.624L18.657 107.658ZM17.9093 108.937L15.6661 112.818L20.0254 111.786L17.9093 108.937Z" fill="white"/>
    <path d="M7.43271 99.4407L8.8534 102.222L15.9269 98.6256L16.7195 100.173L9.63851 103.77L11.0517 106.544L9.72824 107.217L6.1167 100.114L7.43271 99.4407Z" fill="white"/>
    <path d="M6.13045 88.0154C6.30769 87.6337 6.56945 87.2973 6.89591 87.0318C7.22237 86.7662 7.60496 86.5784 8.01474 86.4825C8.43516 86.3265 8.88529 86.267 9.33183 86.3084C9.77836 86.3498 10.2099 86.4911 10.5944 86.7218C11.4005 87.3179 11.9721 88.1779 12.2095 89.1519L13.4134 93.0252L4.44059 95.8142L3.93213 94.1692L6.98287 93.2271L6.23514 90.7296C5.87966 89.8659 5.84256 88.904 6.13045 88.0154ZM10.0336 88.2621C9.80977 88.13 9.55878 88.0506 9.29968 88.0298C9.04057 88.0091 8.78015 88.0476 8.53815 88.1425C7.44646 88.479 7.11746 89.3314 7.53619 90.6848L8.20167 92.8308L11.5964 91.7765L10.9309 89.6305C10.8037 89.0823 10.4856 88.5973 10.0336 88.2621Z" fill="white"/>
    <path d="M10.0495 62.9814L3.8209 62.5178L8.74097 66.0022L8.68116 66.7499L3.37227 69.4492L9.51862 69.9203L9.3915 71.5653L0 70.8176L0.104682 69.3819L6.60246 66.1443L0.672959 61.9869L0.777641 60.5662L10.1766 61.2616L10.0495 62.9814Z" fill="#575757"/>
    <path d="M11.6059 50.1353L13.0191 50.5391L11.0825 57.321L2.02002 54.7488L3.9043 48.1314L5.31004 48.5277L3.91178 53.4627L6.26713 54.1357L7.50837 49.754L8.89915 50.1503L7.65791 54.5245L10.1553 55.2349L11.6059 50.1353Z" fill="#575757"/>
    <path d="M17.0637 38.3212L20.1892 39.8765L19.4414 41.3196L17.6469 40.4223L14.4765 46.8902L16.2711 47.7874L15.5233 49.2455L12.4128 47.6753L12.5922 47.3164C12.8315 46.778 12.5922 46.2097 11.9716 45.619C11.0287 44.8331 10.0003 44.1559 8.90591 43.6001L6.25146 42.172L9.33212 35.9957L16.4356 39.5325L17.0637 38.3212ZM12.323 43.9292C12.8606 44.2816 13.2902 44.7759 13.5643 45.3573L15.6953 41.0803L9.90787 38.1941L8.26286 41.499L9.75832 42.2991C10.6518 42.7793 11.509 43.3241 12.323 43.9292Z" fill="#575757"/>
    <path d="M12.7051 30.6046L13.7669 29.2512L19.001 33.3638L16.84 25.2584L17.842 23.9723L25.2744 29.7747L24.25 31.1505L19.0159 27.0454L21.1619 35.1434L20.13 36.3846L12.7051 30.6046Z" fill="#575757"/>
    <path d="M31.4561 21.086L27.8894 24.1667L28.6371 26.4099L27.2688 27.5913L24.2778 17.6913L25.5864 16.5623L34.9629 20.914L33.5796 22.1104L31.4561 21.086ZM30.1176 20.428L26.0799 18.4765L27.4407 22.746L30.1176 20.428Z" fill="#575757"/>
    <path d="M38.4045 14.177L36.9091 15.0593L38.9055 18.4839L37.41 19.3513L32.6694 11.216L34.1649 10.3486L36.1539 13.7508L37.7091 12.846L38.0606 8.0755L39.6682 7.14084L39.1822 12.704L44.5135 15.2238L42.8087 16.1959L38.4045 14.177Z" fill="#575757"/>
    <path d="M43.8164 5.25654L45.439 4.67331L47.6822 10.9842L50.2095 2.98344L51.7498 2.43759L54.8978 11.3206L53.2752 11.8964L51.032 5.6005L48.4972 13.5863L47.0017 14.1321L43.8164 5.25654Z" fill="#575757"/>
    <path d="M64.4021 1.48799L61.3215 1.98897L62.5851 9.82519L60.8728 10.1018L59.6092 2.26563L56.536 2.75913L56.3042 1.26367L64.1703 0L64.4021 1.48799Z" fill="#575757"/>
</svg>
