<?xml version="1.0" encoding="UTF-8" standalone="no"?>
<svg
   xmlns:dc="http://purl.org/dc/elements/1.1/"
   xmlns:cc="http://creativecommons.org/ns#"
   xmlns:rdf="http://www.w3.org/1999/02/22-rdf-syntax-ns#"
   xmlns:svg="http://www.w3.org/2000/svg"
   xmlns="http://www.w3.org/2000/svg"
   viewBox="0 0 405.33334 104"
   height="104"
   width="405.33334"
   xml:space="preserve"
   id="svg2"
   version="1.1"><metadata
     id="metadata8"><rdf:RDF><cc:Work
         rdf:about=""><dc:format>image/svg+xml</dc:format><dc:type
           rdf:resource="http://purl.org/dc/dcmitype/StillImage" /></cc:Work></rdf:RDF></metadata><defs
     id="defs6" /><g
     transform="matrix(1.3333333,0,0,-1.3333333,0,104)"
     id="g10"><g
       transform="scale(0.1)"
       id="g12"><path
         id="path14"
         style="fill:#2a3860;fill-opacity:1;fill-rule:nonzero;stroke:none"
         d="m 1160.66,371.137 c 0,-40.231 5.85,-68.961 17.54,-86.203 13.65,-19.157 35.09,-28.735 66.27,-28.735 27.28,0 48.72,9.578 62.36,32.563 11.7,21.074 17.55,49.808 17.55,86.203 v 160.91 h 21.44 V 363.473 c 0,-40.227 -9.75,-72.793 -29.24,-95.778 -19.49,-21.074 -46.77,-32.566 -79.91,-32.566 -35.08,0 -62.37,9.574 -81.86,30.648 -9.74,11.496 -17.54,26.821 -21.43,44.059 -3.9,15.324 -3.9,32.566 -3.9,53.637 v 172.402 h 31.18 z m 280.66,-72.793 c 9.74,-13.41 19.48,-24.903 31.18,-32.567 11.69,-7.664 25.34,-11.496 40.93,-11.496 17.54,0 33.13,5.75 44.83,17.246 11.69,13.407 17.54,28.731 17.54,45.973 0,21.07 -11.7,38.309 -35.08,51.715 -23.39,7.664 -44.84,19.16 -66.27,28.738 -25.34,13.41 -37.03,34.481 -37.03,61.297 0,26.82 9.74,47.891 29.23,63.215 17.54,13.41 40.93,21.07 68.22,21.07 11.69,0 23.39,-1.914 35.08,-5.746 11.69,-3.828 21.44,-7.66 29.23,-15.324 -1.95,-3.832 -3.89,-9.578 -5.84,-13.406 0,0 -1.95,-7.664 -5.85,-22.989 h -5.85 c -3.89,13.41 -11.69,22.989 -19.49,28.735 -9.74,5.746 -21.43,9.578 -35.08,9.578 -15.59,0 -27.28,-3.832 -38.98,-13.41 -9.74,-9.578 -15.59,-22.989 -15.59,-36.395 0,-22.988 11.69,-40.23 35.08,-51.723 23.39,-9.578 44.83,-19.156 66.27,-28.734 25.33,-13.406 37.03,-34.48 37.03,-59.383 0,-30.648 -9.75,-55.55 -31.18,-72.789 -19.5,-17.246 -46.78,-26.82 -77.97,-26.82 -11.69,0 -25.34,1.914 -38.98,7.664 -13.64,3.828 -25.33,9.578 -33.13,17.238 1.95,7.664 3.9,13.41 5.85,17.242 0,5.747 1.95,13.407 1.95,21.071 z m 469.7,0 c 7.8,-13.41 17.54,-24.903 29.24,-32.567 11.69,-7.664 25.33,-11.496 40.93,-11.496 19.49,0 33.13,5.75 44.82,17.246 11.7,13.407 17.54,28.731 17.54,45.973 0,21.07 -11.69,38.309 -35.08,51.715 -23.38,7.664 -44.83,19.16 -66.26,28.738 -25.34,13.41 -37.03,34.481 -37.03,61.297 0,26.82 9.74,47.891 29.23,63.215 17.54,13.41 40.93,21.07 70.16,21.07 11.7,0 21.44,-1.914 33.14,-5.746 11.69,-3.828 21.44,-7.66 29.23,-15.324 -1.95,-3.832 -3.9,-9.578 -5.85,-13.406 0,0 -1.94,-7.664 -5.84,-22.989 h -5.85 c -3.9,13.41 -11.69,22.989 -19.49,28.735 -9.75,5.746 -21.44,9.578 -35.08,9.578 -15.6,0 -27.29,-3.832 -38.98,-13.41 -9.75,-9.578 -15.59,-22.989 -15.59,-36.395 0,-22.988 11.69,-40.23 35.08,-51.723 23.39,-9.578 44.82,-19.156 68.21,-28.734 23.39,-13.406 35.09,-34.48 35.09,-59.383 0,-30.648 -9.75,-55.55 -31.19,-72.789 -19.49,-17.246 -46.77,-26.82 -77.96,-26.82 -11.69,0 -25.33,1.914 -38.98,7.664 -13.64,3.828 -25.33,9.578 -31.18,17.238 1.95,7.664 1.95,13.41 3.9,17.242 0,5.747 1.95,13.407 1.95,21.071 z m 504.79,185.812 c -11.69,13.407 -25.34,24.903 -40.93,30.649 -15.59,7.66 -33.13,11.492 -50.67,11.492 -38.98,0 -70.17,-13.41 -91.61,-40.227 -21.43,-24.902 -33.13,-61.3 -33.13,-105.355 0,-42.145 11.7,-74.711 35.08,-99.613 21.44,-22.989 50.68,-34.481 85.76,-34.481 40.93,0 72.11,19.156 95.5,53.637 17.54,26.816 27.29,57.469 27.29,90.035 0,19.152 -1.96,36.395 -5.85,51.719 -3.9,15.324 -11.69,28.734 -21.44,42.144 z m -259.22,-97.695 c 0,45.973 15.6,84.285 46.78,113.019 31.18,26.817 68.22,42.141 114.99,42.141 46.78,0 83.81,-13.41 114.99,-36.394 35.08,-26.821 52.63,-63.215 52.63,-113.02 0,-47.891 -15.6,-86.203 -46.78,-114.934 -31.18,-28.734 -72.11,-44.058 -120.84,-44.058 -48.72,0 -87.7,13.406 -116.94,42.14 -31.19,26.821 -44.83,65.133 -44.83,111.106 z m 426.84,149.414 h 157.86 l -1.95,-11.492 1.95,-13.41 c -9.74,1.914 -17.54,3.832 -23.39,3.832 -3.9,1.914 -9.74,1.914 -17.54,1.914 H 2622.4 V 407.531 h 68.22 c 5.84,0 13.64,0 23.38,1.914 7.8,0 13.65,0 15.6,0 v -22.984 c -3.9,0 -11.7,0 -21.44,1.914 -9.75,0 -15.59,0 -17.54,0 h -68.22 v -147.5 l -19.49,1.918 -19.48,-1.918 z m 360.56,-296.918 -19.49,1.918 -19.49,-1.918 v 277.762 c -23.39,0 -38.98,-1.914 -48.73,-1.914 -9.74,0 -25.33,-1.918 -48.72,-3.832 l 1.95,13.41 -1.95,11.492 h 228.03 l -1.95,-11.492 1.95,-13.41 c -11.69,0 -25.34,1.914 -40.93,3.832 -17.54,0 -33.13,1.914 -50.67,1.914 z m -1264.9,149.418 c 0,21.07 7.8,38.313 23.39,53.637 13.64,13.406 31.18,21.07 52.62,21.07 19.49,0 37.03,-7.664 52.63,-21.07 13.64,-15.324 21.43,-32.567 21.43,-53.637 0,-21.07 -7.79,-40.227 -21.43,-55.551 -13.65,-13.41 -31.19,-21.07 -52.63,-21.07 -21.44,0 -38.98,7.66 -52.62,21.07 -15.59,15.324 -23.39,34.481 -23.39,55.551 z m 13.64,0 c 0,-19.16 5.85,-34.48 17.55,-45.973 11.69,-13.41 27.28,-19.156 44.82,-19.156 17.54,0 31.19,5.746 42.88,19.156 13.64,11.493 19.49,26.813 19.49,45.973 0,17.238 -5.85,32.566 -19.49,44.059 -11.69,13.41 -25.34,19.156 -42.88,19.156 -17.54,0 -33.13,-5.746 -44.82,-19.156 -11.7,-11.493 -17.55,-26.821 -17.55,-44.059 z m 35.09,42.145 H 1759 c 7.8,0 13.64,-1.918 17.54,-5.75 3.9,-3.829 7.8,-7.661 7.8,-15.325 0,-5.746 -1.95,-9.578 -5.85,-13.406 -3.9,-5.746 -7.79,-7.664 -13.64,-9.578 1.95,-5.746 5.85,-11.496 9.74,-17.246 3.9,-5.742 7.8,-11.488 11.7,-17.235 l 3.89,-7.664 -9.74,1.914 -9.74,-1.914 -21.45,40.227 h -3.89 v -40.227 l -9.75,1.914 -7.79,-1.914 z m 17.54,-42.145 c 5.85,0 11.69,1.918 15.59,3.832 1.95,3.832 3.9,7.66 3.9,15.324 0,5.746 -1.95,9.578 -3.9,13.41 -1.95,0 -5.85,1.914 -9.74,1.914 h -5.85 z m -884.844,13.41 v -160.91 l -19.489,1.918 -19.488,-1.918 v 295 h 93.551 c 33.133,0 58.469,-3.832 74.062,-15.324 15.588,-11.492 23.388,-26.821 23.388,-49.805 0,-22.988 -7.8,-42.144 -27.29,-57.469 -15.59,-11.492 -37.027,-19.156 -62.367,-24.902 l 89.657,-113.02 21.44,-22.984 9.74,-11.496 -25.33,1.918 -25.339,-1.918 -27.289,38.313 -52.621,65.128 -35.082,40.227 -13.645,17.242 h 11.695 c 1.95,0 3.899,0 7.793,0 5.848,0 11.7,0 17.547,0 5.844,0 11.692,0 15.59,1.914 17.539,3.832 31.184,11.492 40.93,21.071 11.691,11.496 15.59,24.902 15.59,40.23 0,32.563 -15.59,49.805 -46.774,55.551 -7.801,0 -15.594,0 -23.39,0 -5.848,0 -11.696,0 -21.438,0 -9.746,0 -17.543,0 -21.441,0 V 401.785" /><path
         id="path16"
         style="fill:#f26f23;fill-opacity:1;fill-rule:nonzero;stroke:none"
         d="m 658.332,602.184 c 32.656,5.132 65.309,-11.559 73.145,-41.086 7.836,-29.524 -14.368,-59.051 -50.938,-64.188 -26.125,-3.851 -50.941,7.703 -62.699,24.391 L 497.676,503.328 c -2.613,-30.812 -14.371,-62.902 -32.653,-91.148 l 96.653,-83.442 c 23.512,11.551 53.551,8.981 77.066,-10.273 32.653,-26.961 41.797,-78.313 16.977,-112.977 C 629.598,169.547 581.27,166.98 548.613,199.074 526.41,222.18 518.57,254.277 526.41,282.523 l -95.347,91.145 C 404.938,347.992 373.59,330.02 339.629,322.316 L 330.488,173.398 C 351.383,161.844 367.059,132.316 365.754,96.3711 363.145,45.0195 329.18,0.0898438 289.996,0.0898438 c -39.183,0 -64.004,42.3632562 -57.473,92.4296562 3.918,34.6645 22.207,64.1875 45.715,78.3085 l 15.676,146.356 c -32.652,1.281 -58.777,12.836 -78.371,32.089 L 122.809,249.141 C 124.113,224.75 114.969,195.223 94.0742,172.113 65.3359,142.59 31.375,140.02 18.3125,168.262 c -11.75,26.961 0,69.324 26.125,96.281 19.5938,20.543 41.7969,26.961 57.4685,19.262 l 90.125,95 c -11.754,21.824 -16.976,48.781 -14.363,77.023 L 86.2344,441.707 C 74.4805,423.734 54.8867,409.613 37.9102,407.047 14.3984,403.191 2.64063,422.449 11.7813,449.41 c 7.8398,24.395 32.6562,47.5 54.8593,51.352 16.9844,2.566 27.4336,-5.133 30.0469,-20.539 l 90.1215,15.406 c 7.836,25.672 22.207,50.062 40.492,70.605 l -48.328,46.219 c -15.672,-7.707 -31.348,-8.992 -40.493,0 -10.449,10.266 -3.917,33.375 14.368,48.781 16.98,16.688 40.492,21.825 52.246,11.555 9.14,-7.703 9.14,-20.539 1.308,-34.664 l 49.633,-43.648 c 20.899,16.687 44.41,29.527 69.227,37.23 l 6.531,74.461 c -13.059,2.566 -22.207,11.555 -19.594,24.391 1.309,16.687 20.899,34.66 41.801,39.796 22.203,5.137 39.18,-3.851 37.875,-21.824 0,-12.836 -10.449,-26.957 -26.121,-34.664 l -5.227,-75.742 c 26.125,2.57 49.637,-1.281 69.227,-10.27 l 67.922,70.61 c -6.531,11.551 -3.918,28.238 7.836,41.082 16.98,16.687 45.715,23.105 66.613,14.117 20.898,-10.269 24.816,-32.09 7.84,-51.348 -13.063,-14.121 -33.961,-21.828 -52.25,-19.257 l -69.227,-74.461 c 16.981,-15.407 30.043,-37.227 36.575,-64.188 l 114.945,19.258 c 6.527,19.258 24.816,34.66 48.324,38.516" /><path
         id="path18"
         style="fill:#ffffff;fill-opacity:1;fill-rule:evenodd;stroke:none"
         d="m 296.527,421.168 c 1.309,-7.703 1.309,-14.121 1.309,-19.258 0,-3.847 0,-7.703 0,-10.269 -1.309,-2.567 -1.309,-3.852 -3.922,-5.133 0,0 -1.305,0 -2.613,0 -2.61,0 -3.918,0 -5.223,0 -3.922,-1.289 -5.226,-1.289 -6.531,-1.289 -1.309,1.289 -2.613,2.57 -3.918,3.855 0,1.281 0,3.852 0,5.133 0,2.566 0,8.984 0,19.258 1.305,10.269 1.305,19.258 1.305,29.527 0,2.567 1.304,10.27 1.304,19.258 -11.754,2.566 -13.062,8.984 1.309,16.691 0,6.414 0,10.266 1.305,16.688 0,14.121 -18.286,-11.559 -18.286,5.133 23.512,24.39 90.125,82.164 118.86,57.769 13.062,-20.539 -32.656,-51.347 -75.758,-78.308 28.738,-3.856 121.473,-57.774 92.742,-91.149 -3.922,-5.136 -15.68,-3.855 -19.594,2.567 -23.511,34.664 -54.859,66.757 -82.289,68.039 0,-11.551 0,-26.957 0,-38.512 z m 0,95 c 0,-14.121 1.309,-11.555 1.309,-25.676 11.75,11.555 80.98,53.918 58.773,55.199 -13.058,0 -31.347,-3.851 -58.773,-29.523 h -1.309" /></g></g></svg>