<svg width="116" height="116" viewBox="0 0 116 116" fill="none" xmlns="http://www.w3.org/2000/svg">
    <path d="M58.1481 114.559C89.5462 114.559 114.999 89.1063 114.999 57.7082C114.999 26.3101 89.5462 0.856934 58.1481 0.856934C26.7501 0.856934 1.29688 26.3101 1.29688 57.7082C1.29688 89.1063 26.7501 114.559 58.1481 114.559Z" stroke="black" stroke-miterlimit="10"/>
    <path d="M69.3748 82.6182H80.894L71.2234 69.6785C73.5078 69.5239 75.6477 68.5066 77.2092 66.8321C78.7707 65.1576 79.6368 62.9512 79.6316 60.6616V51.6448C79.6023 49.2624 78.6429 46.9851 76.9583 45.3004C75.2736 43.6157 72.997 42.6572 70.6147 42.6279H31.6167V82.7063H41.7607V69.8128H60.8766L69.3748 82.6182ZM41.6481 51.5325H67.4362C67.9862 51.5325 68.5136 51.749 68.9026 52.1379C69.2915 52.5268 69.5102 53.0562 69.5102 53.6062V58.654C69.5102 59.204 69.2915 59.7334 68.9026 60.1223C68.5136 60.5112 67.9862 60.7277 67.4362 60.7277H41.6481V51.5325Z" fill="black"/>
    <path d="M82.8552 43.1913C85.7311 43.1913 88.0624 40.86 88.0624 37.9841C88.0624 35.1082 85.7311 32.7769 82.8552 32.7769C79.9793 32.7769 77.6479 35.1082 77.6479 37.9841C77.6479 40.86 79.9793 43.1913 82.8552 43.1913Z" fill="black"/>
</svg>
