<svg width="52" height="52" viewBox="0 0 52 52" fill="none" xmlns="http://www.w3.org/2000/svg">
    <path d="M25.8001 50.94C39.7287 50.94 51.0201 39.6486 51.0201 25.72C51.0201 11.7914 39.7287 0.5 25.8001 0.5C11.8715 0.5 0.580078 11.7914 0.580078 25.72C0.580078 39.6486 11.8715 50.94 25.8001 50.94Z" stroke="black" stroke-miterlimit="10"/>
    <path d="M30.78 36.7705H35.8901L31.6001 31.0303C32.6135 30.9617 33.5628 30.5104 34.2555 29.7676C34.9482 29.0247 35.3324 28.046 35.3301 27.0303V23.0303C35.3171 21.9734 34.8915 20.9632 34.1442 20.2158C33.3968 19.4685 32.3869 19.0432 31.3301 19.0303H14.03V36.8096H18.53V31.0898H27.0101L30.78 36.7705ZM18.4801 22.9805H29.92C30.164 22.9805 30.398 23.0765 30.5706 23.249C30.7431 23.4216 30.8401 23.6564 30.8401 23.9004V26.1396C30.8401 26.3836 30.7431 26.6185 30.5706 26.791C30.398 26.9635 30.164 27.0596 29.92 27.0596H18.4801V22.9805Z" fill="black"/>
    <path d="M36.7602 19.2802C38.036 19.2802 39.0702 18.2459 39.0702 16.9702C39.0702 15.6944 38.036 14.6602 36.7602 14.6602C35.4844 14.6602 34.4502 15.6944 34.4502 16.9702C34.4502 18.2459 35.4844 19.2802 36.7602 19.2802Z" fill="black"/>
</svg>
