<svg width="219" height="53" viewBox="0 0 219 53" fill="none" xmlns="http://www.w3.org/2000/svg">
    <path d="M18.2822 37.3946C17.7351 37.758 17.0926 37.9511 16.4358 37.9493C15.7791 37.9474 15.1376 37.7508 14.5926 37.3843C14.0476 37.0179 13.6236 36.4977 13.3741 35.8902C13.1246 35.2827 13.0608 34.615 13.1909 33.9712C13.3211 33.3275 13.6393 32.7369 14.1052 32.274C14.5711 31.8111 15.1638 31.4966 15.8084 31.3706C16.453 31.2447 17.1204 31.313 17.7263 31.5664C18.3322 31.8199 18.8493 32.2471 19.2122 32.7945C19.6985 33.5279 19.8737 34.4246 19.6993 35.2872C19.5249 36.1497 19.0152 36.9076 18.2822 37.3946Z" fill="#324C88"/>
    <path d="M44.1722 20.1646C43.6252 20.528 42.9826 20.7211 42.3259 20.7193C41.6691 20.7174 41.0277 20.5208 40.4827 20.1543C39.9376 19.7879 39.5135 19.2677 39.264 18.6602C39.0145 18.0527 38.9508 17.385 39.081 16.7413C39.2111 16.0975 39.5293 15.5069 39.9952 15.044C40.4611 14.5811 41.0538 14.2666 41.6984 14.1407C42.343 14.0147 43.0104 14.083 43.6163 14.3365C44.2222 14.5899 44.7393 15.0171 45.1022 15.5645C45.5885 16.2979 45.7637 17.1946 45.5893 18.0572C45.4149 18.9197 44.9052 19.6777 44.1722 20.1646Z" fill="#324C88"/>
    <path d="M17.1722 26.5845C17.0922 24.7306 17.4347 22.8827 18.1739 21.1807C18.9131 19.4787 20.0295 17.9673 21.4388 16.7602C22.8482 15.5532 24.5135 14.6821 26.3089 14.2134C28.1043 13.7446 29.9827 13.6906 31.8022 14.0547C32.8026 14.2694 33.7731 14.6052 34.6923 15.0547C35.4776 15.4232 36.3761 15.4685 37.1946 15.1811C38.0132 14.8938 38.6862 14.2966 39.0689 13.5181C39.4516 12.7396 39.5134 11.8421 39.241 11.0185C38.9685 10.195 38.3837 9.511 37.6122 9.11425C37.6122 9.11425 37.5522 9.11468 37.5222 9.05468L37.3922 9.00439C36.0164 8.36313 34.5697 7.88658 33.0822 7.58447C30.2774 7.02677 27.3826 7.11307 24.6158 7.83642C21.8491 8.55977 19.2825 9.90113 17.1096 11.7602C14.9366 13.6194 13.2138 15.9474 12.071 18.5688C10.9283 21.1903 10.3953 24.0372 10.5123 26.8945C10.5139 27.5388 10.7051 28.1684 11.0623 28.7046C11.5508 29.436 12.3095 29.9437 13.1719 30.1162C14.0344 30.2887 14.93 30.1117 15.6622 29.6245C16.151 29.3 16.544 28.8507 16.8007 28.3232C17.0574 27.7958 17.1685 27.2093 17.1223 26.6245C17.1223 26.6245 17.1223 26.6244 17.1223 26.5644" fill="#324C88"/>
    <path d="M41.6122 25.4845C41.6907 27.3376 41.347 29.1842 40.6072 30.8849C39.8673 32.5857 38.7507 34.096 37.3415 35.3019C35.9324 36.5078 34.2677 37.3777 32.4731 37.8459C30.6784 38.3141 28.8009 38.3684 26.9822 38.0046C25.9805 37.7946 25.0094 37.4586 24.0922 37.0046C24.0922 37.0046 24.0922 37.0046 24.0422 37.0046C23.2569 36.636 22.3583 36.5908 21.5398 36.8781C20.7213 37.1654 20.0483 37.7622 19.6656 38.5407C19.2829 39.3192 19.2211 40.2171 19.4935 41.0407C19.7659 41.8643 20.3508 42.5478 21.1222 42.9445L21.2122 43.0046L21.3322 43.0549C22.7022 43.702 24.1463 44.1788 25.6322 44.4748C28.4367 45.0448 31.3342 44.9688 34.1051 44.2531C36.876 43.5374 39.4477 42.2007 41.6254 40.3439C43.8031 38.4871 45.5297 36.1588 46.6744 33.5358C47.819 30.9128 48.3518 28.0641 48.2322 25.2048C48.2314 24.6046 48.0673 24.0157 47.7577 23.5016C47.4481 22.9875 47.0046 22.5673 46.4746 22.2858C45.9445 22.0044 45.3479 21.8725 44.7486 21.904C44.1493 21.9354 43.5699 22.1291 43.0722 22.4645C42.585 22.7905 42.1931 23.2402 41.9366 23.7673C41.68 24.2944 41.5681 24.88 41.6122 25.4645C41.6122 25.4645 41.6122 25.4646 41.6122 25.5246" fill="#324C88"/>
    <path d="M16.3223 52.3544C16.1957 52.3298 16.0717 52.2931 15.9522 52.2446C11.139 50.4233 7.01516 47.1435 4.15722 42.8637C1.29928 38.584 -0.149868 33.5182 0.0122611 28.3745V28.2343C0.017505 28.086 0.0376031 27.9387 0.0722587 27.7944C0.14952 27.4049 0.303333 27.0346 0.524773 26.705C0.746213 26.3754 1.03085 26.0932 1.36224 25.8745C2.0352 25.4447 2.84842 25.2921 3.6314 25.4487C4.41439 25.6053 5.10635 26.0588 5.56225 26.7143C5.81054 27.0915 5.97427 27.5179 6.04223 27.9643V28.4443C5.89809 32.3396 6.97546 36.1828 9.12359 39.4355C11.2717 42.6882 14.3831 45.1877 18.0222 46.5844L18.3922 46.7446C18.8662 46.969 19.2731 47.3138 19.5723 47.7446C20.0144 48.4166 20.1731 49.2359 20.0139 50.0244C19.8547 50.8129 19.3904 51.5067 18.7222 51.9545C18.3918 52.1744 18.021 52.3263 17.6313 52.4018C17.2417 52.4773 16.8409 52.475 16.4522 52.3945C16.4522 52.3945 16.3723 52.3945 16.3223 52.3945" fill="#324C88"/>
    <path d="M55.6022 27.0045C55.211 26.9285 54.8388 26.7753 54.5074 26.5539C54.176 26.3324 53.8921 26.047 53.6722 25.7145C53.4236 25.3384 53.263 24.9112 53.2022 24.4645V23.9948C53.3498 20.1039 52.2745 16.2646 50.1275 13.0163C47.9805 9.76796 44.8697 7.27358 41.2322 5.88442L40.8722 5.72476C40.3948 5.50569 39.9867 5.15979 39.6923 4.72476C39.3437 4.22866 39.1536 3.63865 39.1471 3.03237C39.1406 2.4261 39.3179 1.83175 39.6557 1.32827C39.9935 0.824792 40.476 0.43539 41.0395 0.211572C41.603 -0.0122463 42.221 -0.0596134 42.8122 0.0748532H42.9322C43.0594 0.0970067 43.1836 0.133786 43.3022 0.184716C48.1153 2.00508 52.2387 5.2849 55.0951 9.56509C57.9516 13.8453 59.3981 18.9117 59.2322 24.0548V24.1945C59.2319 24.3432 59.2117 24.4911 59.1722 24.6344C59.0962 25.0231 58.9439 25.3933 58.7242 25.7228C58.5045 26.0523 58.2217 26.3351 57.8922 26.5548C57.5612 26.7777 57.1891 26.9322 56.7976 27.0094C56.4061 27.0867 56.0031 27.0849 55.6122 27.0045" fill="#324C88"/>
    <path d="M84.5623 45.5844C81.5927 45.6979 78.6539 44.9474 76.1023 43.4242C73.9289 42.0578 72.2774 40.0014 71.4123 37.5844L78.4123 33.4945C78.8663 34.7954 79.7292 35.9143 80.872 36.684C82.0149 37.4537 83.3761 37.8328 84.7523 37.7645C87.2623 37.7645 88.5222 37.0544 88.5222 35.6044C88.5222 34.6644 87.8023 33.8943 86.3623 33.3143C85.7423 33.0643 84.3623 32.6546 82.3623 32.0746C79.7862 31.4155 77.3929 30.1809 75.3623 28.4642C74.4878 27.6403 73.8038 26.6352 73.3581 25.5194C72.9125 24.4036 72.7159 23.204 72.7823 22.0043C72.7376 20.639 73.0023 19.2812 73.5564 18.0326C74.1106 16.784 74.9398 15.6771 75.9823 14.7943C78.2136 12.9126 81.0654 11.929 83.9823 12.0346C86.4999 11.9879 88.9814 12.6384 91.1523 13.9144C93.2661 15.2076 94.9341 17.116 95.9323 19.3842L89.0423 23.3842C88.0356 20.9975 86.3689 19.801 84.0423 19.7943C83.2527 19.7386 82.4673 19.9501 81.8123 20.3944C81.5735 20.5665 81.3798 20.7937 81.2475 21.0565C81.1152 21.3194 81.0482 21.6099 81.0523 21.9042C81.0645 22.2774 81.1756 22.6407 81.3741 22.9569C81.5726 23.2731 81.8515 23.5313 82.1823 23.7045C83.5675 24.4477 85.0384 25.0183 86.5623 25.4042C87.8398 25.7667 89.0981 26.1942 90.3322 26.6845C91.4256 27.1657 92.4732 27.7447 93.4622 28.4144C94.5586 29.123 95.4349 30.1242 95.9923 31.3046C96.5668 32.6145 96.8468 34.0343 96.8123 35.4642C96.8795 36.8748 96.6109 38.2813 96.0285 39.5678C95.4461 40.8542 94.5665 41.9839 93.4622 42.8641C90.8989 44.7717 87.7541 45.733 84.5623 45.5844Z" fill="#324C88"/>
    <path d="M108.002 37.1846H120.452V44.9043H99.7723V12.7344H120.232V20.4043H108.002V24.8643H119.072V32.4443H108.002V37.1846Z" fill="#324C88"/>
    <path d="M139.662 45.5846C137.425 45.6392 135.199 45.2458 133.116 44.4274C131.033 43.6089 129.135 42.3821 127.533 40.819C125.931 39.2559 124.659 37.3877 123.789 35.3253C122.92 33.2629 122.473 31.0477 122.473 28.8097C122.473 26.5716 122.92 24.356 123.789 22.2936C124.659 20.2311 125.931 18.3635 127.533 16.8004C129.135 15.2373 131.033 14.0105 133.116 13.192C135.199 12.3735 137.425 11.9802 139.662 12.0348C142.493 12.0138 145.28 12.7268 147.752 14.1046C150.159 15.406 152.174 17.3252 153.592 19.6647L146.472 23.7545C145.844 22.6076 144.891 21.6718 143.732 21.0646C142.077 20.2218 140.204 19.9059 138.365 20.1598C136.525 20.4137 134.807 21.225 133.442 22.4845C131.914 24.2352 131.072 26.4808 131.072 28.8048C131.072 31.1288 131.914 33.3739 133.442 35.1246C134.805 36.3868 136.52 37.2031 138.359 37.464C140.198 37.7249 142.072 37.4179 143.732 36.5846C144.9 35.967 145.855 35.012 146.472 33.8444L153.592 37.9845C152.193 40.3332 150.186 42.261 147.782 43.5646C145.295 44.927 142.498 45.6229 139.662 45.5846Z" fill="#324C88"/>
    <path d="M183.392 40.7446C180.183 43.8543 175.891 45.5928 171.422 45.5928C166.954 45.5928 162.661 43.8543 159.452 40.7446C156.322 37.5646 154.568 33.2813 154.568 28.8193C154.568 24.3574 156.322 20.0745 159.452 16.8945C162.661 13.7849 166.954 12.0459 171.422 12.0459C175.891 12.0459 180.183 13.7849 183.392 16.8945C186.522 20.0745 188.276 24.3574 188.276 28.8193C188.276 33.2813 186.522 37.5646 183.392 40.7446ZM165.232 35.0942C166.693 36.6536 168.652 37.655 170.771 37.9253C172.89 38.1956 175.038 37.7181 176.843 36.5752C178.648 35.4323 179.998 33.6954 180.66 31.6641C181.322 29.6327 181.255 27.4345 180.471 25.4473C179.686 23.4601 178.232 21.8086 176.361 20.7778C174.49 19.7471 172.317 19.4014 170.218 19.8003C168.119 20.1992 166.225 21.3179 164.862 22.9634C163.5 24.6088 162.753 26.6779 162.752 28.8145C162.711 29.9756 162.909 31.1327 163.336 32.2134C163.763 33.2941 164.408 34.2749 165.232 35.0942Z" fill="#324C88"/>
    <path d="M209.842 12.7344H218.022V44.9043H211.682L200.332 28.7246V44.9043H192.102V12.7344H198.492L209.842 28.9043V12.7344Z" fill="#324C88"/>
</svg>
