<svg xmlns="http://www.w3.org/2000/svg" display="none">

    <symbol id="arrow-left" viewBox="0 0 30 21">
        <path d="M23.89 12.2002H29.09V8.51001H23.89V12.2002Z"/>
        <path d="M10.96 3.69043L16.16 3.69043V0.000244141L10.96 0.000244141V3.69043Z"/>
        <path d="M10.96 20.71H16.16V17.0198H10.96V20.71Z"/>
        <path d="M5.48001 7.78027L10.68 7.78027V4.09033H5.48001L5.48001 7.78027Z"/>
        <path d="M5.48001 16.6299H10.68V12.9399H5.48001L5.48001 16.6299Z"/>
        <path d="M0 12.2002H5.2L5.2 8.51001H0L0 12.2002Z"/>
        <path d="M10.96 12.2002L22.09 12.2002V8.51001L10.96 8.51001V12.2002Z"/>
    </symbol>

    <symbol id="arrow-right" viewBox="0 0 38 27">
        <path d="M6.65436 11.0992H0V15.8246H6.65436V11.0992Z"/>
        <path d="M23.2214 0.191467H16.567V4.91684H23.2214V0.191467Z"/>
        <path d="M23.2214 21.9971H16.567V26.7224H23.2214V21.9971Z"/>
        <path d="M30.24 5.34998H23.5856V10.0753H30.24V5.34998Z"/>
        <path d="M30.24 16.6909H23.5856V21.4163H30.24V16.6909Z"/>
        <path d="M37.4062 11.0992H30.7519V15.8246H37.4062V11.0992Z"/>
        <path d="M23.2214 11.0992H8.96765V15.8246H23.2214V11.0992Z"/>
    </symbol>

    <symbol id="arrow-bottom" viewBox="0 0 22 30">
        <path d="M12.9294 5.82733V0.70813L9.297 0.70813V5.82733H12.9294Z"/>
        <path d="M21.3064 18.5563V13.437H17.6741V18.5563H21.3064Z"/>
        <path d="M4.55249 18.5464V13.4272H0.919922L0.919922 18.5464H4.55249Z"/>
        <path d="M17.2902 23.9412V18.8221H13.6578V23.9412H17.2902Z"/>
        <path d="M8.5686 23.951V18.832H4.93628V23.951H8.5686Z"/>
        <path d="M12.9296 29.3459V24.2267H9.297V29.3459H12.9296Z"/>
        <path d="M12.9392 18.5563V7.5993H9.30688V18.5563H12.9392Z"/>
    </symbol>

    <symbol id="vk" viewBox="0 0 24 16">
        <path d="M13.4985 15.1308C5.62349 15.1308 1.05605 9.70646 0.869019 0.669189H4.8065C4.93447 7.29455 7.85801 10.1101 10.1811 10.6909V0.669189H13.9119V6.38886C16.2055 6.14275 18.6073 3.53395 19.4145 0.669189H23.1552C22.8481 2.15581 22.2375 3.56308 21.3619 4.80301C20.4862 6.04294 19.3642 7.08886 18.0659 7.87538C19.5072 8.59863 20.7788 9.61921 21.7969 10.8698C22.8149 12.1204 23.5563 13.5727 23.9722 15.1308H19.8574C19.4785 13.7745 18.7074 12.5604 17.6408 11.6408C16.5743 10.7213 15.2599 10.1374 13.8627 9.96242V15.1308H13.4985Z"/>
    </symbol>

    <symbol id="telegram" viewBox="0 0 22 19">
        <path fill-rule="evenodd" clip-rule="evenodd"
              d="M1.79097 8.37333C7.46753 5.89907 11.2573 4.25832 13.1604 3.45107C18.5745 1.19667 19.7065 0.802893 20.435 0.793048C20.7053 0.785887 20.9709 0.865215 21.193 1.01948C21.3459 1.15358 21.444 1.33933 21.4686 1.54123C21.5005 1.7962 21.5005 2.05414 21.4686 2.3091C21.1831 5.40028 19.9133 12.8821 19.2636 16.3375C18.988 17.7945 18.4465 18.3064 17.9346 18.3064C16.7927 18.4049 15.966 17.5583 14.8438 16.8396C13.1211 15.7173 12.1564 15.0085 10.4928 13.8863C8.52406 12.6163 9.81363 11.9173 10.9063 10.7754C11.1918 10.48 16.1825 5.94173 16.2809 5.52826C16.2921 5.46784 16.2899 5.40572 16.2746 5.34622C16.2593 5.28672 16.2313 5.23127 16.1924 5.1837C16.1297 5.15249 16.0605 5.13625 15.9905 5.13625C15.9205 5.13625 15.8514 5.15249 15.7888 5.1837C15.6116 5.22308 12.8685 7.03447 7.55939 10.6179C6.95416 11.0962 6.21364 11.3718 5.44296 11.4054C4.40925 11.2766 3.39268 11.0357 2.41113 10.6868C1.1905 10.293 0.2258 10.0764 0.30455 9.407C0.3833 9.10182 0.865653 8.74742 1.79097 8.37333Z"/>
    </symbol>

    <symbol id="linkedin" viewBox="0 0 24 25">
        <path d="M18.817 0.392456H5.03586C3.73051 0.392456 2.47863 0.911049 1.5556 1.83415C0.632575 2.75725 0.114014 4.00925 0.114014 5.31471V19.097C0.114014 20.4025 0.632575 21.6545 1.5556 22.5776C2.47863 23.5007 3.73051 24.0193 5.03586 24.0193H18.817C20.1224 24.0193 21.3743 23.5007 22.2973 22.5776C23.2203 21.6545 23.7389 20.4025 23.7389 19.097V5.31471C23.7389 4.00925 23.2203 2.75725 22.2973 1.83415C21.3743 0.911049 20.1224 0.392456 18.817 0.392456ZM7.98897 19.097H5.03586V8.26807H7.98897V19.097ZM6.48286 7.01781C6.13745 7.02172 5.79865 6.92285 5.50954 6.73377C5.22044 6.54469 4.99412 6.27394 4.85922 5.95591C4.72433 5.63787 4.68693 5.28692 4.75192 4.94762C4.81691 4.60833 4.98129 4.29601 5.22416 4.05035C5.46703 3.80468 5.7775 3.63676 6.116 3.56792C6.45451 3.49907 6.80585 3.53241 7.12537 3.6637C7.44489 3.79498 7.71805 4.01829 7.91039 4.30525C8.10272 4.59221 8.20548 4.92987 8.20551 5.27533C8.2068 5.50287 8.16328 5.72843 8.07741 5.93914C7.99154 6.14985 7.86499 6.34158 7.70503 6.50338C7.54507 6.66519 7.35478 6.7939 7.14507 6.88216C6.93537 6.97043 6.71037 7.01652 6.48286 7.01781ZM19.7719 19.097H16.8187V13.5743C16.8187 10.2567 12.8813 10.5126 12.8813 13.5743V19.097H9.92815V8.26807H12.8813V10.0401C14.2594 7.49035 19.7719 7.30331 19.7719 12.4815V19.097Z"/>
    </symbol>

    <symbol id="rutube" viewBox="0 0 26 23">
        <path d="M16.7799 22.7705H21.89L17.6 17.0303C18.6134 16.9617 19.5627 16.5104 20.2554 15.7676C20.9481 15.0247 21.3323 14.046 21.33 13.0303V9.03027C21.317 7.97344 20.8914 6.96317 20.144 6.21582C19.3967 5.46847 18.3868 5.04324 17.33 5.03027H0.0299072V22.8096H4.52991V17.0898H13.01L16.7799 22.7705ZM4.47998 8.98047H15.9199C16.1639 8.98047 16.3979 9.07649 16.5704 9.24902C16.743 9.42156 16.84 9.65639 16.84 9.90039V12.1396C16.84 12.3836 16.743 12.6185 16.5704 12.791C16.3979 12.9635 16.1639 13.0596 15.9199 13.0596H4.47998V8.98047Z"/>
        <path d="M22.7599 5.28016C24.0357 5.28016 25.0699 4.24593 25.0699 2.97016C25.0699 1.69438 24.0357 0.660156 22.7599 0.660156C21.4842 0.660156 20.45 1.69438 20.45 2.97016C20.45 4.24593 21.4842 5.28016 22.7599 5.28016Z"/>
    </symbol>

    <symbol id="dzen" viewBox="0 0 27 27">
        <path d="M0.189941 13.1797C0.189941 7.23969 0.189917 4.26016 2.03992 2.41016C3.88992 0.560156 6.86995 0.55957 12.8199 0.55957H13.8199C19.8199 0.55957 22.74 0.560156 24.59 2.41016C26.44 4.26016 26.4399 7.23969 26.4399 13.1797V14.2402C26.4399 20.1902 26.44 23.1598 24.59 25.0098C22.74 26.8598 19.7699 26.8604 13.8199 26.8604H12.8199C6.81995 26.8604 3.88992 26.8598 2.03992 25.0098C0.189917 23.1598 0.189941 20.1902 0.189941 14.2402V13.1797Z"
              fill="black"/>
        <path fill-rule="evenodd" clip-rule="evenodd"
              d="M13.0901 5.21973C13.0901 8.65973 12.81 10.5996 11.52 11.8896C10.23 13.1796 8.30011 13.41 4.86011 13.46V13.9697C8.30011 13.9697 10.23 14.2403 11.52 15.5303C12.81 16.8203 13.0401 18.7602 13.0901 22.2002H13.6001C13.6001 18.7602 13.87 16.8303 15.16 15.5303C16.45 14.2303 18.3901 14.0097 21.8301 13.9697V13.46C18.3901 13.46 16.45 13.1796 15.16 11.8896C13.87 10.5996 13.6401 8.65973 13.6001 5.21973H13.0901Z"
              fill="white"/>
    </symbol>

    <symbol id="hh" viewBox="0 0 32 31">
        <path fill-rule="evenodd" clip-rule="evenodd"
              d="M16.11 0.540039C13.1057 0.540039 10.1689 1.43051 7.67091 3.09961C5.17293 4.76871 3.22588 7.14138 2.07618 9.91699C0.92649 12.6926 0.625696 15.7468 1.21181 18.6934C1.79791 21.6399 3.24467 24.3463 5.36903 26.4707C7.49339 28.5951 10.1999 30.0418 13.1465 30.6279C16.0931 31.214 19.1474 30.9134 21.923 29.7637C24.6986 28.614 27.0709 26.6669 28.74 24.1689C30.4091 21.671 31.2999 18.7348 31.2999 15.7305C31.2999 11.7018 29.6996 7.83794 26.851 4.98926C24.0023 2.14058 20.1386 0.540039 16.11 0.540039ZM15.5199 22.2598H13.08V17.2598C13.1117 16.6297 13.0647 15.9983 12.94 15.3799C12.8579 15.1177 12.6839 14.8941 12.45 14.75C12.1881 14.5818 11.8809 14.4978 11.57 14.5098C11.1853 14.5029 10.8069 14.6068 10.48 14.8096C10.1515 15.0261 9.90498 15.3467 9.77992 15.7197C9.6075 16.3034 9.53318 16.9125 9.55995 17.5205V22.2305H7.12001V8.84961H9.57997V14.0098C10.0759 13.3642 10.7755 12.9059 11.5652 12.708C12.3549 12.5101 13.1882 12.5845 13.9299 12.9199C14.3273 13.1043 14.6713 13.3867 14.9299 13.7402C15.157 14.0727 15.3166 14.446 15.3999 14.8398C15.4958 15.4583 15.536 16.0843 15.5199 16.71V22.2598ZM25.1499 22.2598H22.71V17.2598C22.7417 16.6297 22.6947 15.9983 22.57 15.3799C22.4805 15.1216 22.3083 14.9003 22.08 14.75C21.8145 14.5816 21.5041 14.4977 21.19 14.5098C20.8087 14.5048 20.434 14.6087 20.11 14.8096C19.7815 15.0261 19.535 15.3467 19.4099 15.7197C19.2375 16.3034 19.1632 16.9125 19.19 17.5205V22.2305H16.75V8.84961H19.19V14.0098C19.6842 13.365 20.3821 12.9069 21.1701 12.709C21.958 12.5111 22.7896 12.5853 23.5299 12.9199C23.9272 13.1043 24.2713 13.3867 24.5299 13.7402C24.7611 14.0704 24.9212 14.4446 25 14.8398C25.1055 15.4573 25.1491 16.0839 25.13 16.71L25.1499 22.2598Z"/>
    </symbol>

    <symbol id="mail" viewBox="0 0 18 14">
        <path d="M17.04 0.879883H0.600006V12.7699H17.04V0.879883Z" stroke-linejoin="round"/>
        <path d="M8.82001 6.81988L0.600006 0.879883H17.04L8.82001 6.81988Z" stroke-linejoin="round"/>
    </symbol>


    <symbol id="phone" viewBox="0 0 18 18">
        <path d="M12.9299 11.4396C12.7692 11.2784 12.5783 11.1509 12.3681 11.0636C12.1579 10.9764 11.9325 10.9318 11.7049 10.9318C11.4773 10.9318 11.252 10.9764 11.0418 11.0636C10.8316 11.1509 10.6406 11.2784 10.4799 11.4396L9.64998 12.2697C8.71118 11.6759 7.84226 10.9781 7.05989 10.1896C6.27485 9.40411 5.57747 8.53584 4.97993 7.59976L5.8199 6.76968C6.13992 6.44425 6.31929 6.00638 6.31929 5.54996C6.31929 5.09354 6.13992 4.65567 5.8199 4.33023L4.1899 2.71011C4.03264 2.5491 3.84432 2.42107 3.63631 2.33511C3.4283 2.24916 3.20498 2.20708 2.97993 2.21011C2.75369 2.20912 2.52949 2.25225 2.32014 2.33804C2.1108 2.42384 1.92044 2.55063 1.75996 2.71011L0.979935 3.48941C0.600162 3.88329 0.313237 4.35706 0.140213 4.87613C-0.0328104 5.3952 -0.087553 5.94644 -0.0200652 6.48941C0.169935 8.64941 1.57996 11.2301 3.75996 13.4201C5.59262 15.4134 8.03222 16.7458 10.6999 17.2101H11.1899C11.6529 17.2292 12.1151 17.1557 12.5495 16.9943C12.9839 16.8329 13.3817 16.5865 13.7199 16.2697L14.4899 15.4894C14.6526 15.3308 14.7816 15.1414 14.8692 14.9318C14.9568 14.7222 15.0013 14.4969 15 14.2697C15.0023 14.0438 14.9582 13.8196 14.8704 13.6115C14.7827 13.4033 14.6532 13.2158 14.4899 13.0597L12.9299 11.4396ZM13.7399 14.6896L12.9499 15.4699C12.6602 15.7081 12.3232 15.8824 11.9611 15.9806C11.5991 16.0789 11.2204 16.0992 10.8499 16.0402C8.98993 15.8802 6.60998 14.56 4.64998 12.59C2.85524 10.9555 1.63778 8.78347 1.17989 6.39957C1.12091 6.02841 1.14221 5.64951 1.24226 5.28726C1.34231 4.92502 1.51886 4.58823 1.75996 4.29996L2.5699 3.51968C2.62116 3.46518 2.68317 3.422 2.75203 3.39273C2.82089 3.36347 2.89511 3.34884 2.96992 3.34976C3.04616 3.34924 3.12179 3.36353 3.19221 3.39273C3.26264 3.42193 3.32646 3.46537 3.37996 3.51968L5.00996 5.15933C5.11564 5.26766 5.17476 5.41327 5.17476 5.56461C5.17476 5.71594 5.11564 5.86155 5.00996 5.96988L3.85994 7.11929C3.77003 7.20983 3.71251 7.32771 3.69624 7.45426C3.67997 7.5808 3.70589 7.70916 3.76997 7.81949C4.45488 8.98884 5.28848 10.0647 6.24995 11.0197C7.21088 11.9815 8.28937 12.8183 9.45992 13.5099C9.56872 13.5732 9.69545 13.5985 9.82027 13.5822C9.94509 13.5659 10.061 13.5092 10.15 13.4201L11.2999 12.2697C11.3522 12.2149 11.4151 12.1715 11.4847 12.1418C11.5543 12.112 11.6292 12.0968 11.7049 12.0968C11.7806 12.0968 11.8555 12.112 11.9251 12.1418C11.9947 12.1715 12.0577 12.2149 12.1099 12.2697L13.7299 13.8498C13.8316 13.9623 13.8886 14.1083 13.89 14.2599C13.8903 14.3323 13.8763 14.4039 13.8488 14.4709C13.8214 14.5378 13.7809 14.5983 13.7299 14.6496L13.7399 14.6896Z"/>
        <path d="M14.73 2.51959C13.9343 1.71737 12.9869 1.08113 11.9431 0.648494C10.8993 0.215862 9.77993 -0.00404742 8.65002 5.63934e-05C8.57517 5.62925e-05 8.50104 0.01438 8.43188 0.0430251C8.36273 0.0716703 8.29988 0.114119 8.24695 0.167049C8.19402 0.219978 8.15206 0.282463 8.12341 0.351619C8.09477 0.420775 8.07996 0.494539 8.07996 0.569392C8.07996 0.644246 8.09477 0.718987 8.12341 0.788142C8.15206 0.857298 8.19402 0.919783 8.24695 0.972713C8.29988 1.02564 8.36273 1.06809 8.43188 1.09674C8.50104 1.12538 8.57517 1.1397 8.65002 1.1397C9.6356 1.13966 10.6114 1.33465 11.5211 1.71392C12.4308 2.09319 13.2563 2.64951 13.95 3.34967C14.6436 4.04982 15.1916 4.87984 15.5624 5.79303C15.9331 6.70621 16.1192 7.68444 16.11 8.66998C16.0992 8.75185 16.1059 8.83508 16.1299 8.91412C16.1538 8.99316 16.1943 9.06588 16.2488 9.12799C16.3032 9.19009 16.3703 9.2394 16.4456 9.27349C16.5208 9.30759 16.6024 9.32525 16.6849 9.32525C16.7675 9.32525 16.8492 9.30759 16.9244 9.27349C16.9997 9.2394 17.0667 9.19009 17.1211 9.12799C17.1755 9.06588 17.2162 8.99316 17.2401 8.91412C17.2641 8.83508 17.2708 8.75185 17.26 8.66998C17.271 7.52777 17.0527 6.39431 16.6182 5.33795C16.1836 4.28158 15.5416 3.3234 14.73 2.51959Z"/>
        <path d="M11.47 5.84961C11.7938 6.1753 12.0491 6.56235 12.2208 6.98828C12.3926 7.41421 12.4773 7.87088 12.47 8.33008C12.4884 8.46953 12.5569 8.59673 12.6627 8.68945C12.7685 8.78217 12.9043 8.83398 13.0449 8.83398C13.1856 8.83398 13.3215 8.78217 13.4272 8.68945C13.533 8.59673 13.6016 8.46953 13.62 8.33008C13.6293 7.72145 13.5174 7.11675 13.2909 6.55176C13.0644 5.98677 12.7278 5.47273 12.3007 5.03906C11.8735 4.6054 11.3644 4.26042 10.8029 4.02539C10.2414 3.79036 9.63873 3.66985 9.03003 3.66992C8.8762 3.66992 8.72864 3.73107 8.61987 3.83984C8.5111 3.94861 8.44995 4.09617 8.44995 4.25C8.44994 4.3257 8.46499 4.39991 8.49426 4.46973C8.52353 4.53954 8.56649 4.60319 8.62048 4.65625C8.67448 4.70931 8.73852 4.75125 8.80884 4.7793C8.87915 4.80735 8.95434 4.82066 9.03003 4.81934C9.9398 4.82123 10.8124 5.18034 11.46 5.81934L11.47 5.84961Z"/>
    </symbol>

</svg>