<svg width="53" height="52" viewBox="0 0 53 52" fill="none" xmlns="http://www.w3.org/2000/svg">
    <path fill-rule="evenodd" clip-rule="evenodd" d="M15.9299 25.8898C21.7099 23.3698 25.56 21.7031 27.48 20.8898C32.99 18.5998 34.1299 18.2106 34.8699 18.1906C35.1441 18.1867 35.4129 18.2664 35.64 18.4201C35.7975 18.5588 35.8974 18.7514 35.92 18.9601C35.9483 19.2193 35.9483 19.4811 35.92 19.7404C35.62 22.8704 34.33 30.4706 33.67 33.9806C33.39 35.4706 32.85 35.9806 32.32 35.9806C31.17 36.0906 30.3199 35.2204 29.1799 34.4904C27.4399 33.3504 26.45 32.6404 24.76 31.4904C22.76 30.2004 24.07 29.49 25.19 28.34C25.48 28.04 30.55 23.4299 30.64 23.0099C30.6571 22.9488 30.6578 22.8848 30.642 22.8234C30.6262 22.7619 30.5945 22.7055 30.5499 22.6603C30.4399 22.5503 30.27 22.5903 30.14 22.6603C30.01 22.7303 27.14 24.5398 21.79 28.1798C21.1736 28.6615 20.4216 28.9379 19.64 28.9699C18.5886 28.8461 17.555 28.6016 16.5599 28.2404C15.3199 27.8404 14.33 27.6306 14.42 26.9406C14.5 26.6306 14.9899 26.2598 15.9299 25.8898Z" fill="black"/>
    <path d="M26.49 50.94C40.4186 50.94 51.71 39.6486 51.71 25.72C51.71 11.7914 40.4186 0.5 26.49 0.5C12.5614 0.5 1.27002 11.7914 1.27002 25.72C1.27002 39.6486 12.5614 50.94 26.49 50.94Z" stroke="black" stroke-miterlimit="10"/>
</svg>
