<svg width="52" height="52" viewBox="0 0 52 52" fill="none" xmlns="http://www.w3.org/2000/svg">
    <path fill-rule="evenodd" clip-rule="evenodd" d="M15.791 26.3733C21.4675 23.8991 25.2573 22.2583 27.1604 21.4511C32.5745 19.1967 33.7065 18.8029 34.435 18.793C34.7053 18.7859 34.9709 18.8652 35.193 19.0195C35.3459 19.1536 35.444 19.3393 35.4686 19.5412C35.5005 19.7962 35.5005 20.0541 35.4686 20.3091C35.1831 23.4003 33.9133 30.8821 33.2636 34.3375C32.988 35.7945 32.4465 36.3064 31.9346 36.3064C30.7927 36.4049 29.966 35.5583 28.8438 34.8396C27.1211 33.7173 26.1564 33.0085 24.4928 31.8863C22.5241 30.6163 23.8136 29.9173 24.9063 28.7754C25.1918 28.48 30.1825 23.9417 30.2809 23.5283C30.2921 23.4678 30.2899 23.4057 30.2746 23.3462C30.2593 23.2867 30.2313 23.2313 30.1924 23.1837C30.1297 23.1525 30.0605 23.1362 29.9905 23.1362C29.9205 23.1362 29.8514 23.1525 29.7888 23.1837C29.6116 23.2231 26.8685 25.0345 21.5594 28.6179C20.9542 29.0962 20.2136 29.3718 19.443 29.4054C18.4093 29.2766 17.3927 29.0357 16.4111 28.6868C15.1905 28.293 14.2258 28.0764 14.3045 27.407C14.3833 27.1018 14.8657 26.7474 15.791 26.3733Z" fill="white"/>
    <path d="M26.176 51.0338C39.8869 51.0338 51.0018 39.918 51.0018 26.2059C51.0018 12.4939 39.8869 1.37805 26.176 1.37805C12.465 1.37805 1.3501 12.4939 1.3501 26.2059C1.3501 39.918 12.465 51.0338 26.176 51.0338Z" stroke="white" stroke-miterlimit="10"/>
</svg>
