<svg width="191" height="191" viewBox="0 0 191 191" fill="none" xmlns="http://www.w3.org/2000/svg">
    <path d="M95.5153 190.267C147.715 190.267 190.03 147.951 190.03 95.7513C190.03 43.552 147.715 1.23608 95.5153 1.23608C43.3159 1.23608 1 43.552 1 95.7513C1 147.951 43.3159 190.267 95.5153 190.267Z" stroke="black" stroke-miterlimit="10"/>
    <path fill-rule="evenodd" clip-rule="evenodd" d="M55.9408 96.3878C77.6021 86.9438 92.0307 80.6977 99.2261 77.6496C119.876 69.0676 124.148 67.6089 126.921 67.534C127.948 67.5193 128.956 67.8182 129.807 68.394C130.397 68.9138 130.771 69.6359 130.856 70.4179C130.962 71.3894 130.962 72.3706 130.856 73.3421C129.732 85.0721 124.897 113.555 122.424 126.709C121.375 132.293 119.351 134.204 117.365 134.204C113.055 134.617 109.869 131.355 105.597 128.62C99.076 124.347 95.3659 121.686 89.0324 117.377C81.5372 112.542 86.4465 109.88 90.6439 105.57C91.7307 104.446 110.731 87.1691 111.069 85.595C111.133 85.3661 111.136 85.1264 111.076 84.896C111.017 84.6657 110.898 84.4543 110.731 84.2848C110.319 83.8726 109.682 84.0225 109.195 84.2848C108.708 84.5472 97.9519 91.3286 77.9021 104.97C75.592 106.775 72.7739 107.811 69.8446 107.931C65.9044 107.467 62.031 106.551 58.3018 105.197C53.6547 103.698 49.9448 102.912 50.2821 100.326C50.5819 99.164 52.418 97.7744 55.9408 96.3878Z" fill="black"/>
</svg>
