<svg width="51" height="52" viewBox="0 0 51 52" fill="none" xmlns="http://www.w3.org/2000/svg">
    <path d="M26.4986 34.1308C18.6236 34.1308 14.0562 28.7065 13.8691 19.6692H17.8066C17.9346 26.2946 20.8581 29.1101 23.1812 29.6909V19.6692H26.9121V25.3889C29.2056 25.1427 31.6075 22.5339 32.4146 19.6692H36.1553C35.8482 21.1558 35.2377 22.5631 34.362 23.803C33.4863 25.0429 32.3643 26.0889 31.0661 26.8754C32.5073 27.5986 33.7789 28.6192 34.797 29.8698C35.815 31.1204 36.5564 32.5727 36.9723 34.1308H32.8576C32.4786 32.7745 31.7075 31.5604 30.6409 30.6408C29.5744 29.7213 28.26 29.1374 26.8628 28.9624V34.1308H26.4986Z" fill="white"/>
    <path d="M25.4353 51.0338C39.1463 51.0338 50.2612 39.918 50.2612 26.2059C50.2612 12.4939 39.1463 1.37805 25.4353 1.37805C11.7243 1.37805 0.609375 12.4939 0.609375 26.2059C0.609375 39.918 11.7243 51.0338 25.4353 51.0338Z" stroke="white" stroke-miterlimit="10"/>
</svg>
