<svg width="52" height="52" viewBox="0 0 52 52" fill="none" xmlns="http://www.w3.org/2000/svg">
    <path d="M26.77 33.7705C18.72 33.7705 14.1299 28.2503 13.9399 19.0703H17.9399C18.0699 25.8103 21.04 28.66 23.4 29.25V19.0703H27.1899V24.8799C29.5199 24.6299 31.96 21.9803 32.78 19.0703H36.58C36.2681 20.5818 35.6481 22.0123 34.7585 23.2734C33.869 24.5346 32.7291 25.5994 31.41 26.4004C32.8741 27.1351 34.1659 28.171 35.2001 29.4414C36.2343 30.7118 36.9875 32.1878 37.41 33.7705H33.23C32.8462 32.3921 32.0631 31.1579 30.9794 30.2236C29.8957 29.2894 28.5598 28.697 27.14 28.5205V33.7705H26.77Z" fill="black"/>
    <path d="M25.72 50.94C39.6486 50.94 50.94 39.6486 50.94 25.72C50.94 11.7914 39.6486 0.5 25.72 0.5C11.7914 0.5 0.5 11.7914 0.5 25.72C0.5 39.6486 11.7914 50.94 25.72 50.94Z" stroke="black" stroke-miterlimit="10"/>
</svg>
