<svg width="144" height="144" viewBox="0 0 144 144" fill="none" xmlns="http://www.w3.org/2000/svg">
    <path d="M74.8004 95.0057C52.1174 95.0057 39.1838 79.4511 38.6484 53.584H49.9195C50.2858 72.5757 58.6546 80.6055 65.3046 82.268V53.584H75.9838V69.954C82.5492 69.2496 89.4247 61.7837 91.7352 53.584H102.443C101.564 57.8429 99.8169 61.8738 97.3104 65.4274C94.8039 68.9811 91.592 71.9815 87.8749 74.2384C92.0005 76.3086 95.6403 79.2277 98.5545 82.8073C101.469 86.3869 103.591 90.546 104.782 95.0057H93.0033C91.9219 91.1218 89.7154 87.6439 86.6617 85.0114C83.6081 82.379 79.8439 80.7098 75.843 80.2124V95.0057H74.8004Z" fill="black"/>
    <path d="M71.8404 143.385C111.088 143.385 142.905 111.569 142.905 72.3212C142.905 33.0736 111.088 1.25708 71.8404 1.25708C32.5928 1.25708 0.776367 33.0736 0.776367 72.3212C0.776367 111.569 32.5928 143.385 71.8404 143.385Z" stroke="black" stroke-miterlimit="10"/>
</svg>
