<svg width="45" height="45" viewBox="0 0 45 45" fill="none" xmlns="http://www.w3.org/2000/svg">
    <g clip-path="url(#clip0_766_68)">
        <path d="M33.8953 11.1099C33.4013 10.616 32.7931 10.2516 32.1246 10.0489C31.4561 9.84618 30.7479 9.81144 30.0628 9.94777C29.3776 10.0841 28.7367 10.3873 28.1967 10.8304C27.6567 11.2736 27.2343 11.8431 26.967 12.4885C26.6996 13.1339 26.5956 13.8352 26.664 14.5304C26.7324 15.2256 26.9712 15.8933 27.3592 16.4741C27.7473 17.055 28.2726 17.5313 28.8886 17.8607C29.5046 18.1901 30.1924 18.3625 30.8909 18.3626C31.7313 18.3628 32.5528 18.1137 33.2516 17.6469C33.9504 17.1801 34.495 16.5166 34.8166 15.7402C35.1383 14.9638 35.2224 14.1095 35.0584 13.2853C34.8944 12.4611 34.4897 11.7041 33.8953 11.1099ZM32.2011 15.4274C32.0288 15.6008 31.8237 15.7383 31.5978 15.8318C31.372 15.9254 31.1298 15.9731 30.8853 15.9724C30.4551 15.9722 30.0384 15.8229 29.7059 15.55C29.3735 15.277 29.146 14.8972 29.0622 14.4753C28.9784 14.0534 29.0434 13.6155 29.2462 13.2362C29.449 12.8569 29.7771 12.5596 30.1745 12.395C30.5719 12.2305 31.014 12.2087 31.4256 12.3336C31.8373 12.4584 32.1929 12.7221 32.4319 13.0797C32.6709 13.4373 32.7785 13.8668 32.7365 14.2948C32.6944 14.7229 32.5052 15.1231 32.2011 15.4274Z" fill="black"/>
        <path d="M1.19608 36.8338C0.959699 36.8339 0.728606 36.7639 0.531995 36.6326C0.335385 36.5014 0.182075 36.3149 0.091429 36.0966C0.00078264 35.8783 -0.0231395 35.638 0.0226977 35.4061C0.0685349 35.1742 0.182077 34.9611 0.348965 34.7937L7.25857 27.8841C7.48323 27.6594 7.78795 27.5332 8.10568 27.5332C8.42341 27.5332 8.72812 27.6594 8.95279 27.8841C9.17746 28.1088 9.30369 28.4135 9.30369 28.7312C9.30369 29.0489 9.17746 29.3536 8.95279 29.5783L2.04319 36.4879C1.93175 36.5986 1.79953 36.6861 1.65415 36.7454C1.50878 36.8048 1.3531 36.8348 1.19608 36.8338Z" fill="black"/>
        <path d="M2.74001 43.4555C2.50363 43.4555 2.27256 43.3855 2.07595 43.2543C1.87933 43.1231 1.72601 42.9365 1.63536 42.7182C1.54472 42.4999 1.52081 42.2596 1.56665 42.0278C1.61248 41.7959 1.72601 41.5828 1.8929 41.4154L9.09335 34.2149C9.31802 33.9902 9.62273 33.864 9.94046 33.864C10.2582 33.864 10.5629 33.9902 10.7876 34.2149C11.0122 34.4396 11.1385 34.7443 11.1385 35.062C11.1385 35.3797 11.0122 35.6845 10.7876 35.9091L3.58712 43.1096C3.36177 43.3326 3.05707 43.457 2.74001 43.4555Z" fill="black"/>
        <path d="M9.36013 45C9.12375 45 8.89266 44.93 8.69605 44.7988C8.49943 44.6676 8.34613 44.481 8.25548 44.2627C8.16483 44.0444 8.14093 43.8041 8.18676 43.5722C8.2326 43.3403 8.34613 43.1272 8.51301 42.9598L15.4226 36.0502C15.6473 35.8256 15.952 35.6993 16.2697 35.6993C16.5875 35.6993 16.8922 35.8256 17.1169 36.0502C17.3415 36.2749 17.4677 36.5796 17.4677 36.8973C17.4677 37.2151 17.3415 37.5198 17.1169 37.7445L10.2072 44.6541C10.0957 44.7646 9.96354 44.8521 9.81817 44.9115C9.6728 44.9708 9.51714 45.0009 9.36013 45Z" fill="black"/>
        <path d="M44.6496 0.350133C44.5159 0.216521 44.3523 0.116526 44.1724 0.0583607C43.9925 0.000195376 43.8014 -0.0144819 43.6147 0.0155242C43.4736 0.0381139 40.1642 0.580261 35.6505 2.30555C33.0577 3.28974 30.5543 4.49471 28.1676 5.90718C25.4212 7.52577 22.8815 9.4719 20.6044 11.7028L11.5883 13.4592C11.355 13.5046 11.1407 13.6187 10.9727 13.7867L2.79665 21.936C2.62928 22.1033 2.51533 22.3165 2.46921 22.5486C2.4231 22.7808 2.44689 23.0214 2.5376 23.24C2.6283 23.4586 2.78182 23.6453 2.97873 23.7766C3.17565 23.9079 3.40709 23.9778 3.64376 23.9775C3.72057 23.9777 3.7972 23.9701 3.87248 23.9549L13.0947 22.159C12.4951 23.3384 11.9342 24.562 11.4118 25.8299C11.3219 26.0478 11.2986 26.2875 11.3448 26.5187C11.3911 26.7498 11.5048 26.9621 11.6716 27.1287L13.9305 29.3877L11.8311 31.4871C11.7199 31.5984 11.6316 31.7305 11.5714 31.8758C11.5112 32.0212 11.4802 32.1769 11.4802 32.3343C11.4802 32.4916 11.5112 32.6474 11.5714 32.7927C11.6316 32.9381 11.7199 33.0701 11.8311 33.1814C11.9423 33.2926 12.0744 33.3809 12.2198 33.4411C12.3651 33.5013 12.5209 33.5322 12.6782 33.5322C12.8355 33.5322 12.9913 33.5013 13.1367 33.4411C13.282 33.3809 13.4141 33.2926 13.5253 33.1814L15.6247 31.0819L17.8837 33.3409C17.9949 33.4521 18.127 33.5403 18.2724 33.6004C18.4177 33.6604 18.5735 33.6913 18.7308 33.691C18.8867 33.6908 19.041 33.6606 19.1855 33.6021C20.4524 33.0797 21.676 32.5183 22.8563 31.9178L21.0477 41.1343C20.9985 41.3857 21.0315 41.6463 21.1418 41.8775C21.252 42.1087 21.4337 42.2984 21.66 42.4185C21.8862 42.5386 22.1451 42.5828 22.3984 42.5445C22.6517 42.5062 22.886 42.3875 23.0666 42.2059L31.213 34.0299C31.381 33.8624 31.4951 33.6485 31.5406 33.4157L33.2969 24.3912C35.5251 22.1128 37.4688 19.5727 39.0855 16.8265C40.4977 14.4397 41.7027 11.9363 42.6872 9.34364C44.411 4.82571 44.9546 1.51773 44.9772 1.37937C45.0072 1.19414 44.9931 1.00447 44.9362 0.825668C44.8793 0.646868 44.7811 0.483964 44.6496 0.350133ZM7.2581 20.8601L12.3987 15.7351L17.9303 14.6593C16.7067 16.1686 15.5922 17.7634 14.5955 19.4313L7.2581 20.8601ZM29.2647 32.6011L24.1396 37.7417L25.5684 30.4C27.2364 29.4033 28.8311 28.2889 30.3405 27.0652L29.2647 32.6011ZM40.4395 8.55441C38.9302 12.4892 36.1489 18.1621 31.4657 22.8452C29.2206 25.0676 26.7002 26.9935 23.966 28.5759C23.9167 28.6007 23.8695 28.6296 23.8248 28.662C22.2644 29.5649 20.6515 30.3739 18.9948 31.0848L17.3006 29.3905L20.7145 25.9781C20.9392 25.7534 21.0654 25.4487 21.0654 25.131C21.0654 24.8133 20.9392 24.5085 20.7145 24.2839C20.4898 24.0592 20.1851 23.933 19.8674 23.933C19.5496 23.933 19.2449 24.0592 19.0203 24.2839L15.6135 27.6963L13.9192 26.0021C14.6291 24.3477 15.4362 22.7368 16.3363 21.1778C16.3676 21.1326 16.3959 21.0855 16.421 21.0366C18.0031 18.3014 19.9295 15.7804 22.1532 13.5354C26.8349 8.85231 32.5077 6.07097 36.4425 4.56311C38.3382 3.83353 40.2788 3.2266 42.2523 2.74605C41.7726 4.71887 41.1671 6.65895 40.4395 8.55441Z" fill="black"/>
    </g>
    <defs>
        <clipPath id="clip0_766_68">
            <rect width="45" height="45" fill="white"/>
        </clipPath>
    </defs>
</svg>
