<svg width="39" height="35" viewBox="0 0 39 35" fill="none" xmlns="http://www.w3.org/2000/svg">
    <path d="M27.8873 29L28.5638 28.2635C28.3792 28.0941 28.1378 28 27.8873 28V29ZM32.4098 33.1543L31.7334 33.8907C32.0255 34.1591 32.4488 34.2294 32.812 34.0698C33.1753 33.9103 33.4098 33.5511 33.4098 33.1543L32.4098 33.1543ZM32.4101 28.9862L32.3427 27.9885C31.8178 28.0239 31.4101 28.46 31.4101 28.9861L32.4101 28.9862ZM2 7C2 4.23858 4.23858 2 7 2V0C3.13401 0 0 3.13401 0 7H2ZM2 23V7H0V23H2ZM7 28C4.23858 28 2 25.7614 2 23H0C0 26.866 3.13401 30 7 30V28ZM27.8873 28H7V30H27.8873V28ZM33.0863 32.4178L28.5638 28.2635L27.2108 29.7365L31.7334 33.8907L33.0863 32.4178ZM31.4101 28.9861L31.4098 33.1542L33.4098 33.1543L33.4101 28.9863L31.4101 28.9861ZM37 23C37 25.6462 34.9438 27.8129 32.3427 27.9885L32.4774 29.9839C36.1213 29.738 39 26.7056 39 23H37ZM37 7V23H39V7H37ZM32 2C34.7614 2 37 4.23858 37 7H39C39 3.13401 35.866 0 32 0V2ZM7 2H32V0H7V2Z" fill="black"/>
    <circle cx="23.484" cy="10.8834" r="0.883431" fill="black"/>
    <circle cx="14.0612" cy="10.8834" r="0.883431" fill="black"/>
    <path d="M26 17C25.0807 17.9511 23.9894 18.7056 22.7884 19.2203C21.5873 19.7351 20.3 20 19 20C17.7 20 16.4127 19.7351 15.2116 19.2203C14.0106 18.7056 12.9193 17.9511 12 17" stroke="black" stroke-width="2" stroke-linecap="round" stroke-linejoin="round"/>
</svg>
