<svg width="48" height="41" viewBox="0 0 48 41" fill="none" xmlns="http://www.w3.org/2000/svg">
    <g clip-path="url(#clip0_766_74)">
        <path d="M42.5698 20.9664V20.4309C42.5678 18.3987 41.7337 16.4502 40.2505 15.0132C38.7674 13.5762 36.7564 12.768 34.6589 12.7661H25.2751V9.49034C26.4439 9.19038 27.4601 8.48856 28.1341 7.51589C28.808 6.54322 29.0935 5.3662 28.9374 4.2045C28.7813 3.0428 28.1942 1.97584 27.2857 1.20278C26.3772 0.429725 25.2094 0.00341797 24.0003 0.00341797C22.7912 0.00341797 21.6234 0.429725 20.7149 1.20278C19.8064 1.97584 19.2193 3.0428 19.0632 4.2045C18.9071 5.3662 19.1927 6.54322 19.8666 7.51589C20.5405 8.48856 21.5567 9.19038 22.7255 9.49034V12.7661H13.3418C11.2443 12.768 9.23328 13.5762 7.75013 15.0132C6.26698 16.4502 5.43287 18.3987 5.43088 20.4309V20.9664C3.90132 21.2531 2.52258 22.047 1.53151 23.2117C0.540449 24.3764 -0.00106757 25.8391 1.58015e-06 27.3486C0.00107073 28.858 0.544655 30.32 1.53737 31.4834C2.53008 32.6467 3.90995 33.4388 5.43992 33.7235C5.54369 35.687 6.42119 37.537 7.89145 38.892C9.36171 40.2471 11.3126 41.0037 13.3418 41.006H34.6589C36.6879 41.0034 38.6386 40.2466 40.1088 38.8916C41.579 37.5367 42.4566 35.6869 42.5607 33.7235C44.0907 33.4388 45.4706 32.6467 46.4633 31.4834C47.456 30.32 47.9996 28.858 48.0006 27.3486C48.0017 25.8391 47.4602 24.3764 46.4691 23.2117C45.4781 22.047 44.0993 21.2531 42.5698 20.9664ZM5.43088 31.1803C4.59391 30.9194 3.86397 30.4079 3.34614 29.7195C2.82831 29.0311 2.54932 28.2012 2.54932 27.3493C2.54932 26.4975 2.82831 25.6676 3.34614 24.9792C3.86397 24.2907 4.59391 23.7793 5.43088 23.5184V31.1803ZM21.5795 4.8226C21.5795 4.35704 21.722 3.90194 21.989 3.51487C22.2559 3.12779 22.6354 2.82614 23.0794 2.64805C23.5233 2.46996 24.0118 2.42342 24.4831 2.51436C24.9543 2.60529 25.3871 2.82959 25.7268 3.15889C26.0665 3.48818 26.2977 3.9077 26.3913 4.36434C26.4848 4.82098 26.4365 5.29426 26.2524 5.72429C26.0683 6.15433 25.7567 6.5218 25.3571 6.78023C24.9574 7.03867 24.4876 7.17646 24.0071 7.17617C23.3632 7.1754 22.746 6.92713 22.2909 6.48588C21.8357 6.04463 21.5799 5.44643 21.5795 4.8226ZM40.0277 33.3354C40.0261 34.7126 39.4607 36.0329 38.4556 37.0068C37.4506 37.9806 36.0878 38.5284 34.6664 38.5299H13.3418C11.9201 38.5287 10.557 37.9811 9.55157 37.0073C8.54616 36.0334 7.98059 34.7128 7.97899 33.3354V20.425C7.98059 19.0476 8.54616 17.727 9.55157 16.7532C10.557 15.7793 11.9201 15.2317 13.3418 15.2305H34.6589C36.0803 15.2321 37.443 15.7799 38.4481 16.7537C39.4532 17.7275 40.0186 19.0479 40.0202 20.425L40.0277 33.3354ZM42.5773 31.1686V23.5067C43.4143 23.7676 44.1442 24.279 44.662 24.9675C45.1799 25.6559 45.4589 26.4858 45.4589 27.3377C45.4589 28.1895 45.1799 29.0194 44.662 29.7078C44.1442 30.3962 43.4143 30.9077 42.5773 31.1686Z" fill="black"/>
        <path d="M33.2952 20.5402C32.5506 20.5402 31.8227 20.7541 31.2035 21.1549C30.5844 21.5557 30.1018 22.1255 29.8169 22.792C29.5319 23.4586 29.4573 24.192 29.6026 24.8996C29.7479 25.6072 30.1065 26.2572 30.633 26.7673C31.1595 27.2775 31.8304 27.6249 32.5607 27.7657C33.291 27.9064 34.048 27.8342 34.736 27.5581C35.4239 27.282 36.012 26.8145 36.4257 26.2146C36.8393 25.6147 37.0602 24.9094 37.0602 24.188C37.0602 23.2205 36.6635 22.2927 35.9574 21.6086C35.2514 20.9245 34.2937 20.5402 33.2952 20.5402ZM33.2952 25.3553C33.0569 25.3553 32.824 25.2868 32.6259 25.1585C32.4277 25.0303 32.2733 24.848 32.1821 24.6347C32.091 24.4214 32.0671 24.1867 32.1136 23.9602C32.1601 23.7338 32.2748 23.5258 32.4433 23.3626C32.6118 23.1993 32.8265 23.0881 33.0602 23.0431C33.2939 22.998 33.5361 23.0212 33.7563 23.1095C33.9764 23.1979 34.1646 23.3475 34.297 23.5395C34.4293 23.7314 34.5 23.9571 34.5 24.188C34.5 24.4976 34.3731 24.7945 34.1471 25.0134C33.9212 25.2323 33.6147 25.3553 33.2952 25.3553Z" fill="black"/>
        <path d="M14.7024 20.5402C13.9578 20.5402 13.2299 20.7541 12.6108 21.1549C11.9916 21.5557 11.509 22.1255 11.2241 22.792C10.9391 23.4586 10.8646 24.192 11.0098 24.8996C11.1551 25.6072 11.5137 26.2572 12.0402 26.7673C12.5668 27.2775 13.2376 27.6249 13.9679 27.7657C14.6983 27.9064 15.4553 27.8342 16.1432 27.5581C16.8312 27.282 17.4192 26.8145 17.8329 26.2146C18.2466 25.6147 18.4674 24.9094 18.4674 24.188C18.4674 23.2205 18.0707 22.2927 17.3647 21.6086C16.6586 20.9245 15.701 20.5402 14.7024 20.5402ZM14.7024 25.3553C14.4645 25.3538 14.2323 25.2841 14.0352 25.155C13.838 25.0259 13.6848 24.8431 13.5948 24.6296C13.5047 24.4162 13.4819 24.1817 13.5293 23.9558C13.5766 23.7298 13.6919 23.5225 13.8607 23.36C14.0295 23.1975 14.2442 23.087 14.4777 23.0426C14.7112 22.9981 14.953 23.0217 15.1727 23.1102C15.3925 23.1988 15.5802 23.3484 15.7122 23.5402C15.8443 23.732 15.9148 23.9574 15.9148 24.188C15.9148 24.3419 15.8833 24.4943 15.8223 24.6364C15.7613 24.7785 15.6719 24.9075 15.5592 25.016C15.4466 25.1245 15.3128 25.2103 15.1658 25.2685C15.0188 25.3267 14.8613 25.3562 14.7024 25.3553Z" fill="black"/>
        <path d="M27.4733 31.666H20.5247C20.1942 31.677 19.881 31.812 19.6512 32.0424C19.4214 32.2728 19.293 32.5807 19.293 32.9011C19.293 33.2216 19.4214 33.5295 19.6512 33.7599C19.881 33.9903 20.1942 34.1253 20.5247 34.1363H27.4718C27.8023 34.1253 28.1155 33.9903 28.3453 33.7599C28.5751 33.5295 28.7035 33.2216 28.7035 32.9011C28.7035 32.5807 28.5751 32.2728 28.3453 32.0424C28.1155 31.812 27.8023 31.677 27.4718 31.666H27.4733Z" fill="black"/>
    </g>
    <defs>
        <clipPath id="clip0_766_74">
            <rect width="48" height="41" fill="white"/>
        </clipPath>
    </defs>
</svg>
