<svg width="42" height="42" viewBox="0 0 42 42" fill="none" xmlns="http://www.w3.org/2000/svg">
    <path d="M3.5 5.25H14C15.8565 5.25 17.637 5.9875 18.9497 7.30025C20.2625 8.61301 21 10.3935 21 12.25V36.75C21 35.3576 20.4469 34.0223 19.4623 33.0377C18.4777 32.0531 17.1424 31.5 15.75 31.5H3.5V5.25Z" stroke="black" stroke-width="2" stroke-linecap="round" stroke-linejoin="round"/>
    <path d="M38.5 5.25H28C26.1435 5.25 24.363 5.9875 23.0503 7.30025C21.7375 8.61301 21 10.3935 21 12.25V36.75C21 35.3576 21.5531 34.0223 22.5377 33.0377C23.5223 32.0531 24.8576 31.5 26.25 31.5H38.5V5.25Z" stroke="black" stroke-width="2" stroke-linecap="round" stroke-linejoin="round"/>
</svg>
