<svg width="31" height="44" viewBox="0 0 31 44" fill="none" xmlns="http://www.w3.org/2000/svg">
    <path d="M9.59277 28.9261V32.1172M9.59277 32.1172V36.9037H22.4818V32.1172H9.59277ZM11.8024 39.667H20.0214" stroke="black" stroke-width="2" stroke-linecap="round"/>
    <path d="M9.59316 28.9261C6.5854 27.6896 4.54863 25.2783 2.9744 22.4327C1.40018 19.5871 0.842392 16.29 1.39297 13.085C1.94355 9.87988 3.56964 6.95801 6.00326 4.80088C8.43687 2.64375 11.5328 1.38008 14.7808 1.21815C18.0288 1.05621 21.235 2.00566 23.8711 3.91003C26.5072 5.8144 28.4159 8.56004 29.2825 11.6945C30.1492 14.8289 29.9221 18.165 28.6388 21.1531C27.3554 24.1412 25.3934 26.4635 22.5236 27.9931" stroke="black" stroke-width="2" stroke-linecap="round"/>
    <path d="M13.8887 43H18.185" stroke="black" stroke-width="2" stroke-linecap="round"/>
</svg>
