<svg width="40" height="41" viewBox="0 0 40 41" fill="none" xmlns="http://www.w3.org/2000/svg">
    <path d="M1.94845 26.428C3.46856 31.0569 6.7088 34.925 10.9996 37.233C15.2904 39.5409 20.3039 40.1124 25.004 38.8292C29.7041 37.5461 33.7317 34.5064 36.2545 30.3383C38.7773 26.1701 39.6025 21.1922 38.5596 16.433C37.5167 11.6738 34.6854 7.49705 30.6507 4.7659C26.6161 2.03476 21.6864 0.957899 16.8804 1.75785C12.0744 2.55781 7.75933 5.17343 4.82688 9.06425C1.89443 12.9551 0.568709 17.8237 1.12365 22.6641C7.04545 26.428 6.4697 18.197 13.0516 21.2966C12.8474 19.5149 13.3354 17.7227 14.4148 16.2905C15.4942 14.8583 17.0826 13.8955 18.8517 13.601C20.6208 13.3066 22.4354 13.703 23.9205 14.7083C25.4057 15.7136 26.4479 17.2511 26.8318 19.0029C27.2157 20.7548 26.9119 22.5872 25.9833 24.1214C25.0546 25.6557 23.5721 26.7746 21.842 27.247C20.1119 27.7193 18.2664 27.509 16.687 26.6594C15.1075 25.8098 13.9148 24.386 13.3552 22.6821" stroke="black" stroke-width="2" stroke-linecap="round" stroke-linejoin="round"/>
    <path d="M38.837 21.5065C32.9152 17.7426 33.491 25.9736 26.9091 22.874" stroke="black" stroke-width="2" stroke-linecap="round" stroke-linejoin="round"/>
    <path d="M6.46973 17.0455L8.77276 16.4697" stroke="black" stroke-width="2" stroke-linecap="round"/>
    <path d="M11.3632 9.8748L13.1022 11.4907" stroke="black" stroke-width="2" stroke-linecap="round"/>
    <path d="M18.4405 6.10603L16.8724 7.88831" stroke="black" stroke-width="2" stroke-linecap="round"/>
    <path d="M24.6058 10.1363L22.3157 10.7612" stroke="black" stroke-width="2" stroke-linecap="round"/>
    <path d="M30.283 9.71701L28.0604 8.88306" stroke="black" stroke-width="2" stroke-linecap="round"/>
    <path d="M31.5093 16.5282L31.2682 14.1666" stroke="black" stroke-width="2" stroke-linecap="round"/>
</svg>
